{"glyphs":{"0":{"ha":732,"x_min":0,"x_max":732,"o":"m 327 -277 q 105 -134 205 -277 q 22 67 47 -49 q 0 269 0 163 q 68 656 0 467 q 209 907 120 802 q 376 1032 285 995 q 473 1053 426 1053 q 568 1031 522 1053 q 690 873 645 992 q 732 584 732 749 q 674 146 732 360 q 473 -221 601 -120 q 327 -277 403 -277 m 377 -201 q 445 -180 411 -201 q 544 -66 498 -146 q 630 155 595 28 q 688 576 688 363 l 687 623 q 648 861 684 752 q 551 975 609 962 q 526 977 538 977 q 437 943 481 977 q 262 600 323 855 q 213 195 213 395 q 290 -155 213 -62 q 377 -201 328 -201 z "},"1":{"ha":395,"x_min":0,"x_max":395,"o":"m 203 -289 q 173 -278 186 -289 q 79 -162 115 -230 q 0 206 0 -15 q 67 633 0 414 q 186 909 116 794 q 317 1053 248 1013 q 351 1069 331 1069 q 380 1059 366 1069 q 395 1023 395 1045 q 386 996 395 1009 q 323 861 353 943 q 203 328 243 637 q 184 59 184 172 q 232 -212 184 -140 q 247 -244 247 -226 q 235 -274 247 -260 q 203 -289 222 -288 z "},"2":{"ha":886,"x_min":0,"x_max":886,"o":"m 735 -286 q 540 -212 648 -286 q 385 -94 483 -172 q 258 -214 315 -172 q 102 -282 163 -282 q 21 -241 46 -282 q 0 -163 0 -208 q 63 -9 0 -77 q 195 47 111 42 q 292 22 241 47 q 437 292 357 124 q 557 588 509 441 q 610 846 605 734 q 589 947 610 906 q 521 1015 565 996 q 476 1023 500 1023 q 435 1018 462 1023 q 366 979 408 1012 q 269 854 314 935 q 232 774 249 818 q 212 760 225 760 q 203 761 208 760 q 189 781 189 767 q 191 789 189 785 q 231 876 209 837 q 338 1013 280 964 q 530 1088 431 1088 q 705 1013 633 1088 q 785 775 785 930 q 745 539 785 666 q 414 -60 652 240 q 566 -176 509 -136 q 736 -239 661 -239 q 850 -199 797 -239 q 863 -195 857 -195 q 880 -202 875 -195 q 886 -216 886 -209 q 878 -234 886 -227 q 735 -286 810 -286 m 73 -212 q 187 -126 113 -212 q 267 -16 223 -85 q 196 2 229 2 q 98 -43 138 1 q 42 -169 42 -104 q 57 -208 42 -195 q 73 -212 64 -212 z "},"3":{"ha":747,"x_min":0,"x_max":747,"o":"m 281 -285 q 141 -258 202 -285 q 24 -165 61 -224 q 0 -83 0 -125 q 92 62 0 1 q 176 97 127 84 l 182 98 q 195 94 189 98 q 204 76 204 87 q 186 54 204 57 q 115 27 144 45 q 51 -79 51 -13 q 69 -140 51 -111 q 157 -196 96 -184 q 186 -199 172 -199 q 310 -165 239 -199 q 452 -54 401 -115 q 525 116 524 27 q 480 241 525 184 q 366 325 441 291 q 257 361 319 345 l 252 361 q 239 363 245 361 q 210 404 210 376 q 249 502 214 449 q 297 566 279 547 q 441 722 330 605 q 519 881 519 810 q 501 942 519 917 q 414 985 469 985 q 313 939 359 985 q 269 865 286 911 q 248 851 263 851 q 240 852 244 851 q 225 872 225 859 q 227 880 225 876 q 277 967 245 930 q 386 1047 323 1022 q 511 1073 449 1073 q 586 1063 549 1073 q 703 999 658 1046 q 747 882 747 951 q 554 591 747 751 q 447 518 501 549 q 302 409 345 456 q 393 403 351 409 q 693 222 620 366 q 723 96 723 162 q 685 -55 723 20 q 574 -186 648 -129 q 335 -282 479 -262 q 281 -285 307 -285 z "},"4":{"ha":829,"x_min":0,"x_max":829,"o":"m 636 -289 q 606 -278 619 -289 q 511 -162 549 -230 q 434 204 434 -16 q 441 336 434 269 q 271 351 366 351 q 141 343 191 351 q 69 324 98 339 q 44 317 57 317 q 29 319 40 317 q 7 336 18 321 q 0 361 0 348 q 2 376 0 366 q 19 397 4 387 q 62 449 44 417 q 125 629 96 514 q 189 822 149 725 q 328 1014 239 942 q 477 1087 388 1061 q 489 1088 484 1088 q 514 1081 501 1088 q 533 1043 533 1070 q 526 1019 533 1031 q 500 1001 518 1006 q 324 772 378 942 q 293 675 308 725 q 253 553 275 613 q 157 390 220 460 q 269 396 214 396 q 446 380 363 396 q 500 633 463 511 q 618 909 549 794 q 751 1053 682 1013 q 784 1069 764 1069 q 813 1059 800 1069 q 829 1025 829 1045 q 819 996 829 1010 q 757 861 787 943 q 636 328 674 631 q 633 306 633 309 q 677 248 665 280 q 678 240 678 244 q 675 229 678 235 q 656 218 670 218 q 645 221 651 218 q 635 233 638 224 q 627 248 632 241 q 617 52 617 142 q 665 -212 617 -139 q 680 -245 680 -225 q 668 -274 680 -261 q 636 -289 656 -288 z "},"5":{"ha":795,"x_min":0,"x_max":795,"o":"m 279 -285 q 141 -256 201 -285 q 24 -154 61 -219 q 0 -64 0 -111 q 92 94 0 28 q 176 133 127 119 l 181 134 q 195 129 188 134 q 205 109 205 122 q 186 85 205 90 q 115 56 144 75 q 51 -60 51 12 q 69 -127 51 -95 q 157 -188 96 -174 q 187 -191 172 -191 q 310 -154 240 -191 q 452 -33 401 -99 q 525 155 525 59 q 480 290 525 228 q 366 382 441 345 q 251 423 316 405 q 230 431 240 423 q 162 595 162 473 q 194 817 162 675 q 221 980 221 937 q 210 1027 221 1012 q 203 1044 203 1034 q 209 1059 203 1052 q 223 1065 214 1065 q 239 1060 233 1065 q 340 983 288 1017 q 543 902 465 902 q 587 907 565 902 q 715 1004 656 924 q 751 1023 730 1023 q 778 1013 765 1023 q 795 977 795 1000 q 787 951 795 964 q 592 850 710 850 q 427 890 509 852 q 299 962 370 916 q 304 894 304 937 q 275 673 304 817 q 254 511 254 562 q 258 473 254 488 l 288 474 q 393 467 345 474 q 605 379 527 443 q 723 138 720 285 q 685 -33 723 49 q 574 -178 648 -114 q 335 -281 479 -260 q 279 -285 307 -285 z "},"6":{"ha":682,"x_min":0,"x_max":682,"o":"m 370 -316 q 104 -170 208 -316 q 6 111 22 -46 q 0 219 0 165 q 41 494 0 358 q 186 790 88 656 q 593 1095 342 1004 q 608 1098 601 1098 q 650 1069 638 1098 q 652 1053 652 1061 q 623 1012 652 1023 q 494 916 557 987 q 350 691 414 827 q 235 361 276 536 q 301 366 269 366 q 392 356 349 366 q 597 231 524 324 q 682 -3 682 125 q 616 -195 682 -112 q 509 -283 572 -251 q 370 -316 445 -316 m 427 -254 q 490 -241 460 -254 q 570 -172 538 -218 q 608 -37 608 -113 q 530 178 604 78 q 373 296 469 258 q 264 315 322 315 q 224 313 245 315 q 199 91 199 186 q 232 -108 199 -31 q 427 -254 296 -254 z "},"7":{"ha":745,"x_min":0,"x_max":745,"o":"m 393 -284 q 382 -284 392 -284 q 359 -269 372 -283 q 280 -142 309 -215 q 240 91 240 -37 q 369 648 240 359 q 522 907 437 801 q 541 930 531 919 q 307 897 423 897 q 3 1031 69 897 q 0 1048 0 1040 q 28 1089 0 1077 q 45 1092 37 1092 q 86 1063 74 1092 q 128 1016 100 1036 q 347 964 203 964 q 565 994 458 964 q 673 1036 630 1011 q 701 1046 688 1046 q 734 1029 720 1046 q 745 998 745 1015 q 731 968 745 982 q 652 841 692 919 q 465 328 543 625 q 402 -73 402 84 q 426 -211 402 -164 q 437 -239 437 -224 q 436 -251 437 -241 q 422 -272 436 -260 q 393 -284 409 -284 z "},"8":{"ha":644,"x_min":0,"x_max":644,"o":"m 298 -289 q 195 -273 246 -289 q 70 -190 117 -246 q 0 12 0 -106 q 123 313 0 162 q 196 395 157 355 q 84 600 128 495 q 39 812 41 701 q 130 1006 41 933 q 333 1069 214 1069 q 450 1053 392 1069 q 567 992 517 1032 q 633 905 614 955 q 644 849 644 878 q 612 743 644 800 q 501 616 571 682 q 389 515 473 589 l 422 466 q 607 16 607 193 q 597 -68 607 -26 q 512 -211 574 -157 q 298 -289 421 -289 m 363 551 l 366 553 q 465 643 418 600 q 574 768 536 709 q 600 848 600 811 q 591 889 600 869 q 433 1010 556 968 q 315 1032 372 1032 q 187 976 223 1032 q 172 919 172 949 q 174 890 172 913 q 191 828 176 868 q 261 700 224 751 q 363 551 290 656 m 299 -246 q 387 -228 345 -246 q 452 -169 429 -209 q 470 -94 470 -138 q 390 119 470 -5 q 300 246 349 180 q 222 357 246 321 q 157 283 187 321 q 45 11 45 144 q 103 -159 45 -88 q 215 -232 144 -208 q 299 -246 258 -246 z "},"9":{"ha":665,"x_min":0,"x_max":665,"o":"m 71 -316 q 31 -288 43 -316 q 29 -273 29 -280 q 58 -232 29 -243 q 184 -139 122 -208 q 324 81 261 -52 q 437 403 395 229 q 370 398 402 398 q 283 408 324 398 q 82 529 155 439 q 0 760 0 633 q 64 945 1 866 q 169 1032 106 1000 q 304 1063 232 1063 q 564 920 463 1063 q 659 646 644 800 q 665 541 665 593 q 626 273 665 406 q 484 -16 579 115 q 87 -313 330 -227 q 71 -316 79 -316 m 407 448 q 447 450 427 448 q 471 667 471 569 q 439 860 471 786 q 249 1004 376 1004 q 187 990 216 1004 q 109 922 140 968 q 73 792 73 866 q 149 582 73 684 q 302 466 208 503 q 407 448 351 448 z "},"\u0000":{"ha":0,"x_min":0,"x_max":0,"o":""},"\u001d":{"ha":0,"x_min":0,"x_max":0,"o":""}," ":{"ha":471,"x_min":0,"x_max":0,"o":""}," ":{"ha":471,"x_min":0,"x_max":0,"o":""},"!":{"ha":410,"x_min":0,"x_max":410,"o":"m 146 -208 q 123 -200 133 -208 q 40 -66 69 -139 q 0 149 0 36 q 69 471 0 311 q 201 682 121 592 q 318 783 255 744 q 358 797 340 797 q 374 795 362 797 q 398 779 387 793 q 410 747 410 764 q 408 730 410 743 q 383 701 407 718 q 205 420 286 635 q 140 176 161 300 q 127 43 127 104 q 177 -144 127 -88 q 189 -169 189 -156 q 187 -180 189 -171 q 173 -198 185 -189 q 146 -208 161 -208 m 245 -392 q 196 -304 196 -392 l 197 -300 q 194 -252 197 -277 q 180 -208 191 -228 q 261 -229 201 -226 q 295 -234 283 -232 q 336 -253 323 -239 q 350 -283 350 -267 q 328 -319 350 -307 q 309 -323 319 -323 q 276 -314 295 -323 q 286 -350 286 -334 q 286 -359 286 -355 q 252 -391 280 -387 l 245 -392 z "},"\"":{"ha":254,"x_min":0,"x_max":254,"o":"m 156 91 q 130 111 137 91 q 127 128 127 119 q 142 186 127 153 q 156 229 156 215 q 155 238 156 231 q 141 251 154 245 q 134 278 134 264 q 165 328 134 311 q 192 335 178 335 q 215 330 200 335 q 242 304 231 326 q 254 262 254 283 q 193 138 254 212 q 184 123 184 127 l 184 119 q 179 102 184 110 q 156 91 170 91 m 29 92 q 0 130 0 92 q 16 187 0 154 q 28 230 28 214 q 28 239 28 233 q 14 252 27 246 q 7 279 7 266 q 38 330 7 313 q 64 336 52 336 q 88 332 73 336 q 115 306 103 327 q 126 263 126 285 q 66 140 126 212 q 58 125 58 129 q 52 104 58 111 q 29 92 43 92 z "},"#":{"ha":888,"x_min":0,"x_max":888,"o":"m 609 -310 q 598 -309 608 -310 q 575 -294 588 -309 q 488 5 493 -189 q 231 -51 332 -50 l 231 -85 q 251 -237 231 -174 q 261 -266 261 -250 q 260 -277 261 -267 q 246 -299 260 -288 q 216 -310 232 -310 q 205 -309 215 -310 q 183 -294 195 -309 q 97 -20 106 -196 q 5 59 47 5 q 0 72 0 65 q 7 89 0 83 q 22 95 15 95 q 39 86 32 95 q 96 39 64 55 q 127 285 96 155 q 5 378 60 308 q 0 391 0 385 q 7 408 0 401 q 21 414 14 414 q 39 406 32 414 q 142 340 83 352 q 274 607 192 505 q 450 711 352 705 q 482 699 469 711 q 496 668 495 687 q 484 636 496 649 q 453 623 471 623 q 387 558 420 613 q 302 359 340 484 l 300 350 q 419 383 340 358 q 563 422 510 411 q 667 607 606 531 q 843 711 744 705 q 875 699 862 711 q 888 668 888 687 q 876 636 888 649 q 846 623 864 623 q 718 429 784 604 q 840 363 787 418 q 846 349 846 357 q 839 332 846 338 q 825 326 833 326 q 808 332 814 326 q 699 374 766 374 q 640 114 662 257 l 663 115 q 840 44 771 115 q 846 29 846 37 q 839 13 846 19 q 825 7 833 7 q 808 14 814 7 q 743 50 779 42 q 697 54 721 54 q 631 47 666 54 q 623 -81 623 -20 q 644 -237 623 -174 q 654 -266 654 -250 q 653 -277 654 -267 q 638 -299 652 -288 q 609 -310 625 -310 m 235 19 q 419 64 300 28 l 490 85 q 534 339 497 213 l 492 326 q 278 271 361 280 q 235 19 247 138 z "},"$":{"ha":827,"x_min":0,"x_max":827,"o":"m 359 -496 q 342 -490 349 -496 q 262 -295 293 -434 q 71 -146 123 -257 q 48 -44 50 -102 q 53 23 48 -6 q 75 41 58 41 q 97 18 97 38 l 96 13 q 90 -39 90 -14 q 109 -130 90 -92 q 252 -247 151 -210 q 220 -3 231 -130 q 207 278 207 157 q 208 328 207 304 q 54 520 111 420 q 0 731 0 620 q 18 842 0 788 q 205 1025 61 968 q 374 1057 290 1057 q 457 1183 411 1126 q 474 1192 464 1192 q 497 1172 494 1192 q 492 1156 497 1162 q 428 1055 457 1112 q 667 968 557 1042 q 782 850 738 920 q 827 700 827 781 q 776 545 827 612 q 638 456 724 476 q 587 450 613 450 q 454 488 517 450 q 349 661 349 551 q 376 771 349 720 q 435 847 399 817 q 529 884 481 884 q 575 876 552 884 q 597 842 597 865 q 595 829 597 836 q 562 807 585 807 q 548 810 555 807 q 505 819 526 819 q 454 806 477 819 q 405 755 424 788 q 383 670 383 717 q 471 519 383 573 q 587 486 525 486 q 631 490 609 486 q 747 567 703 508 q 791 699 791 625 q 783 760 791 729 q 646 935 754 866 q 406 1010 532 1008 l 391 973 q 292 548 322 794 q 422 432 342 500 q 528 337 486 378 q 741 -42 741 130 q 659 -218 741 -143 q 384 -311 550 -311 q 311 -305 365 -311 l 316 -327 q 374 -460 338 -418 q 380 -475 380 -467 q 373 -490 380 -484 q 359 -496 367 -496 m 374 -269 q 424 -267 392 -269 q 494 -248 455 -264 q 572 -169 551 -225 q 578 -130 578 -151 q 526 7 578 -70 q 378 172 466 94 l 271 269 q 270 199 270 235 q 302 -261 270 -73 q 374 -269 341 -269 m 232 606 q 340 990 264 819 l 348 1005 q 229 965 288 996 q 145 897 174 937 q 116 814 116 857 q 203 639 116 734 l 232 606 z "},"%":{"ha":842,"x_min":0,"x_max":842,"o":"m 125 -315 q 100 -307 113 -315 q 83 -279 87 -298 q 62 -63 62 -180 q 178 476 62 210 q 363 780 251 643 q 783 1082 543 1000 q 798 1085 791 1085 q 840 1055 828 1085 q 842 1040 842 1048 q 812 999 842 1010 q 676 911 748 976 q 492 690 583 826 q 343 424 411 570 q 218 79 265 258 q 170 -262 172 -100 l 170 -272 q 162 -298 170 -285 q 125 -315 150 -315 m 158 665 q 91 681 127 665 q 27 751 55 698 q 0 867 0 805 q 30 986 0 935 q 121 1055 59 1038 q 157 1059 140 1059 q 252 1026 204 1059 q 327 925 300 992 q 341 850 341 886 q 273 709 341 766 q 188 668 235 677 q 158 665 173 665 m 188 742 q 240 755 214 742 q 290 812 274 774 q 297 851 297 830 q 287 907 297 877 q 232 979 269 955 q 195 991 214 991 q 153 978 175 991 q 91 854 91 935 q 103 795 91 823 q 188 742 130 742 m 444 -267 q 311 -180 358 -267 q 285 -62 285 -125 q 315 54 285 2 q 406 123 345 105 q 443 127 425 127 q 537 94 490 127 q 612 -7 585 60 q 627 -83 627 -47 q 558 -223 627 -167 q 444 -267 506 -267 m 473 -190 q 525 -176 499 -190 q 576 -119 559 -158 q 583 -81 583 -102 q 572 -25 583 -56 q 517 47 554 23 q 480 59 499 59 q 438 46 460 59 q 376 -79 376 2 q 389 -137 376 -109 q 473 -190 416 -190 z "},"&":{"ha":533,"x_min":0,"x_max":533,"o":"m 342 -376 q 311 -359 321 -376 q 306 -341 306 -351 q 322 -311 306 -321 q 495 -31 495 -199 q 472 115 495 41 q 388 307 447 195 q 255 115 365 271 q 155 -65 187 22 q 142 -138 142 -107 q 160 -195 142 -174 q 223 -222 184 -222 q 350 -158 290 -222 q 412 24 412 -85 q 401 114 412 70 l 401 119 q 405 132 401 125 q 423 142 411 142 q 444 124 440 142 q 456 24 456 75 q 389 -191 456 -100 q 211 -280 316 -280 q 103 -251 154 -280 q 19 -156 48 -219 q 0 -62 0 -115 q 43 108 0 20 q 185 329 86 197 q 296 489 245 412 q 254 650 254 584 q 260 705 254 678 q 324 791 277 765 q 392 808 358 808 q 510 734 473 808 q 526 654 526 701 q 412 348 526 541 q 464 243 439 297 q 533 -50 533 90 q 360 -370 533 -260 q 342 -376 351 -376 m 325 534 q 361 596 345 566 q 391 693 391 656 q 376 736 391 724 q 352 747 366 747 q 303 699 317 747 q 298 656 298 678 q 300 628 298 648 q 325 534 302 595 z "},"'":{"ha":126,"x_min":0,"x_max":126,"o":"m 29 92 q 0 130 0 92 q 16 187 0 154 q 28 230 28 214 q 28 239 28 233 q 14 252 27 246 q 7 279 7 266 q 38 330 7 313 q 64 336 52 336 q 88 332 73 336 q 115 306 103 327 q 126 263 126 285 q 66 140 126 212 q 58 125 58 129 q 52 104 58 111 q 29 92 43 92 z "},"(":{"ha":456,"x_min":0,"x_max":456,"o":"m 298 -308 q 166 -256 222 -308 q 35 1 75 -170 q 0 306 0 146 q 28 600 0 456 q 141 911 64 782 q 412 1093 247 1087 q 443 1080 431 1093 q 456 1049 456 1068 q 444 1018 456 1030 q 413 1004 432 1005 q 345 949 377 1002 q 264 725 299 870 q 212 411 230 580 q 197 145 197 269 q 249 -184 197 -96 q 301 -218 270 -218 l 307 -218 q 337 -229 324 -218 q 352 -263 352 -243 q 341 -292 352 -279 q 298 -308 328 -308 z "},")":{"ha":402,"x_min":0,"x_max":402,"o":"m 70 -304 q 40 -302 55 -304 q 11 -284 21 -298 q 2 -258 2 -273 q 20 -222 2 -235 q 47 -213 33 -213 l 62 -214 q 112 -184 90 -214 q 176 20 155 -122 q 196 324 196 159 q 167 724 196 533 q 104 953 143 871 q 40 1014 75 1009 q 11 1029 21 1016 q 0 1058 0 1042 q 16 1092 0 1078 q 44 1102 28 1102 l 48 1102 q 304 899 212 1083 q 402 406 402 703 q 340 -16 402 179 q 189 -262 286 -184 q 70 -304 136 -304 z "},"*":{"ha":367,"x_min":0,"x_max":367,"o":"m 222 631 q 210 635 216 631 q 148 739 165 667 q 71 723 106 723 q 14 735 41 723 q 0 755 0 741 q 2 764 0 760 q 22 777 9 777 q 31 776 27 777 q 39 774 35 774 q 115 803 64 774 q 35 925 47 862 l 35 929 q 39 943 35 936 q 57 951 45 951 q 78 933 74 951 q 147 868 84 916 q 215 1006 165 962 q 229 1010 222 1010 q 245 1003 239 1010 q 252 989 252 996 q 243 972 252 979 q 220 871 229 955 q 286 935 280 914 q 309 954 290 954 q 326 944 320 954 q 330 931 330 938 l 330 928 q 251 804 319 866 q 328 777 305 777 q 336 778 332 777 q 345 779 340 779 q 365 766 358 779 q 367 757 367 762 q 354 737 367 743 q 294 724 326 724 q 218 741 258 724 q 235 671 220 687 q 244 653 244 664 q 241 640 244 646 q 222 631 233 631 z "},"+":{"ha":827,"x_min":0,"x_max":827,"o":"m 462 -310 q 434 -299 446 -310 q 250 174 250 -91 q 252 220 250 197 q 125 239 168 239 q 70 221 87 239 q 37 202 58 202 q 19 206 28 202 q 0 239 0 218 q 4 257 0 248 q 96 357 43 328 q 231 389 151 389 q 277 387 254 389 l 279 387 q 496 804 336 600 q 559 841 521 841 q 605 825 583 841 q 637 753 637 797 q 623 702 637 727 q 555 542 604 673 q 496 342 524 455 q 646 323 576 323 q 760 353 713 323 q 791 369 771 369 q 811 363 802 369 q 827 331 827 351 q 821 311 827 321 q 690 201 770 229 q 543 178 628 178 q 475 182 509 178 q 469 182 471 182 q 464 183 466 182 q 449 -2 450 90 q 486 -233 449 -136 q 499 -265 499 -248 q 489 -295 499 -281 q 462 -310 478 -309 z "},",":{"ha":127,"x_min":0,"x_max":127,"o":"m 28 -445 q 3 -425 10 -445 q 0 -407 0 -416 q 16 -350 0 -382 q 28 -307 28 -323 q 28 -298 28 -305 q 14 -284 27 -291 q 7 -258 7 -271 q 38 -208 7 -224 q 64 -201 52 -201 q 88 -205 73 -201 q 115 -231 103 -210 q 127 -273 127 -252 q 125 -290 127 -282 q 94 -360 116 -329 l 73 -388 q 58 -412 58 -406 q 52 -433 58 -426 q 28 -445 43 -445 z "},"-":{"ha":677,"x_min":0,"x_max":677,"o":"m 340 -27 q 31 67 191 -27 q 0 118 0 82 q 4 140 0 129 q 32 171 13 163 q 52 176 41 176 q 71 171 61 176 q 173 146 91 161 q 349 131 260 131 q 629 207 527 131 q 651 221 636 221 q 663 218 657 221 q 677 193 677 209 q 673 180 677 186 q 537 31 619 83 q 340 -27 447 -27 z "},"­":{"ha":677,"x_min":0,"x_max":677,"o":"m 340 -27 q 31 67 191 -27 q 0 118 0 82 q 4 140 0 129 q 32 171 13 163 q 52 176 41 176 q 71 171 61 176 q 173 146 91 161 q 349 131 260 131 q 629 207 527 131 q 651 221 636 221 q 663 218 657 221 q 677 193 677 209 q 673 180 677 186 q 537 31 619 83 q 340 -27 447 -27 z "},".":{"ha":97,"x_min":0,"x_max":97,"o":"m 46 -315 q 25 -309 36 -315 q 2 -279 8 -298 q 0 -265 0 -272 q 9 -237 0 -252 q 52 -212 25 -212 q 84 -226 68 -212 q 97 -258 97 -240 q 96 -273 97 -261 q 80 -300 94 -285 q 46 -315 63 -315 z "},"/":{"ha":780,"x_min":0,"x_max":780,"o":"m 64 -315 q 38 -307 51 -315 q 20 -279 24 -298 q 0 -65 0 -174 q 116 476 0 210 q 301 780 189 643 q 547 999 408 911 q 721 1082 629 1050 q 736 1085 728 1085 q 777 1055 766 1085 q 780 1040 780 1048 q 750 999 780 1010 q 614 911 686 976 q 430 690 521 826 q 281 424 349 570 q 156 78 203 258 q 108 -262 110 -96 l 109 -271 q 100 -298 109 -285 q 64 -315 87 -315 z "},":":{"ha":142,"x_min":0,"x_max":142,"o":"m 70 298 q 14 325 36 298 q 0 370 0 342 q 33 440 3 421 q 72 452 52 452 q 131 421 108 452 q 142 380 142 404 q 141 361 142 371 q 109 309 133 324 q 70 298 91 298 m 70 -35 q 14 -7 36 -35 q 0 37 0 9 q 33 107 3 88 q 72 119 52 119 q 131 88 108 119 q 142 47 142 71 q 141 28 142 38 q 109 -24 133 -9 q 70 -35 91 -35 z "},";":{"ha":151,"x_min":0,"x_max":151,"o":"m 79 298 q 22 325 45 298 q 9 370 9 342 q 42 440 12 421 q 81 452 60 452 q 140 421 117 452 q 151 380 151 404 q 150 361 151 371 q 118 309 142 324 q 79 298 99 298 m 27 -134 q 12 -129 20 -134 q 0 -100 0 -121 l 1 -86 q 22 -37 3 -68 q 39 7 39 -9 l 39 14 q 26 28 39 20 q 22 50 22 39 q 58 102 22 87 q 80 106 69 106 q 133 71 118 106 q 140 35 140 52 q 137 11 140 22 q 98 -55 124 -26 q 75 -81 85 -70 q 57 -104 58 -98 q 50 -123 57 -116 q 27 -134 40 -134 z "},";":{"ha":151,"x_min":0,"x_max":151,"o":"m 79 298 q 22 325 45 298 q 9 370 9 342 q 42 440 12 421 q 81 452 60 452 q 140 421 117 452 q 151 380 151 404 q 150 361 151 371 q 118 309 142 324 q 79 298 99 298 m 27 -134 q 12 -129 20 -134 q 0 -100 0 -121 l 1 -86 q 22 -37 3 -68 q 39 7 39 -9 l 39 14 q 26 28 39 20 q 22 50 22 39 q 58 102 22 87 q 80 106 69 106 q 133 71 118 106 q 140 35 140 52 q 137 11 140 22 q 98 -55 124 -26 q 75 -81 85 -70 q 57 -104 58 -98 q 50 -123 57 -116 q 27 -134 40 -134 z "},"<":{"ha":646,"x_min":0,"x_max":646,"o":"m 593 -235 q 572 -214 572 -233 l 572 -210 q 564 -189 572 -199 q 391 -106 537 -154 q 328 -83 360 -96 q 226 -47 278 -62 q 3 141 28 11 q 0 168 0 155 q 24 247 0 207 q 184 352 66 317 q 319 376 250 368 q 421 393 373 383 q 557 495 534 416 q 570 526 557 513 q 602 538 583 538 q 633 525 621 538 q 646 488 646 512 q 467 245 646 306 q 245 204 384 218 l 208 200 q 58 149 58 182 q 254 47 58 109 q 424 -14 339 20 q 564 -96 509 -47 q 616 -201 616 -144 q 593 -235 616 -235 z "},"=":{"ha":648,"x_min":0,"x_max":648,"o":"m 426 140 q 372 144 399 140 q 222 174 293 155 q 210 178 216 176 q 97 197 136 197 q 55 182 68 197 q 29 163 46 163 q 15 168 22 163 q 0 199 0 178 q 3 215 0 207 q 75 309 33 281 q 181 338 119 338 q 347 307 243 338 l 389 295 q 508 277 452 277 q 595 304 557 277 q 618 320 604 320 q 635 314 627 320 q 648 286 648 303 q 643 266 648 275 q 541 162 603 189 q 426 140 486 140 m 426 -80 q 372 -77 399 -80 q 222 -51 293 -67 q 98 -31 134 -31 q 55 -45 68 -31 q 29 -61 46 -61 q 15 -57 22 -61 q 0 -31 0 -49 q 3 -16 0 -23 q 75 64 33 40 q 180 90 123 90 q 347 62 241 90 l 389 52 q 506 36 451 36 q 595 60 557 36 q 618 74 604 74 q 635 68 627 74 q 648 44 648 59 q 643 27 648 35 q 541 -62 603 -39 q 426 -80 486 -80 z "},">":{"ha":646,"x_min":0,"x_max":646,"o":"m 53 -235 q 29 -201 29 -235 q 34 -169 29 -184 q 222 -14 62 -77 q 392 47 307 20 q 588 149 588 109 q 560 175 588 162 q 401 204 522 191 q 290 219 347 210 q 82 297 154 240 q 0 488 0 361 q 12 525 0 512 q 43 538 24 538 q 75 526 62 538 q 89 495 87 513 q 224 393 112 416 q 327 376 273 383 q 461 352 396 368 q 622 247 579 317 q 646 168 646 207 q 643 141 646 155 q 420 -47 617 11 q 317 -83 368 -62 q 254 -106 286 -96 q 117 -161 169 -134 q 74 -210 74 -184 l 74 -212 q 53 -235 74 -233 z "},"?":{"ha":578,"x_min":0,"x_max":578,"o":"m 31 -171 l 28 -171 q 14 -167 20 -171 q 3 -118 3 -159 q 71 60 3 -35 q 195 208 119 126 q 295 324 248 266 q 382 515 382 441 q 349 605 382 574 q 257 639 310 639 q 104 562 167 639 q 58 413 58 503 l 59 393 q 53 377 59 384 q 38 370 47 371 q 22 376 28 370 q 14 391 15 382 l 14 418 q 55 593 14 522 q 191 709 106 679 q 302 729 248 729 q 425 705 364 729 q 578 487 578 640 q 444 220 578 345 q 245 66 366 146 l 225 52 q 146 -5 209 44 q 49 -145 52 -79 l 49 -149 q 31 -171 49 -167 m 43 -378 q 32 -377 38 -378 q 0 -332 0 -365 q 15 -273 0 -309 q 37 -195 37 -220 q 35 -180 37 -187 q 102 -231 48 -204 q 132 -248 122 -241 q 168 -300 168 -271 q 165 -314 168 -307 q 126 -338 155 -338 q 84 -314 106 -338 l 84 -322 q 75 -359 84 -348 q 43 -378 64 -378 z "},"@":{"ha":931,"x_min":0,"x_max":931,"o":"m 509 -256 q 255 -182 358 -238 q 47 33 106 -98 q 0 245 0 136 q 66 505 0 382 q 171 641 107 583 q 307 725 230 695 q 468 755 385 755 q 735 681 612 755 q 864 559 812 633 q 931 332 931 463 q 913 203 931 267 q 809 -1 881 89 q 684 -101 749 -74 q 623 -115 651 -115 q 518 -30 548 -115 q 505 68 505 9 q 513 175 505 116 q 454 105 484 132 q 334 47 389 47 q 247 81 281 47 q 195 218 195 130 q 249 353 195 296 q 340 411 286 393 q 411 422 374 422 q 568 379 481 422 l 569 381 q 618 428 585 415 q 649 433 633 433 q 686 426 667 433 q 733 376 720 410 q 739 345 739 361 q 731 309 739 327 q 707 263 724 294 q 591 -31 591 48 q 625 -75 591 -75 q 665 -63 642 -75 q 774 28 719 -35 q 870 213 842 109 q 886 328 886 271 q 821 541 886 452 q 709 644 775 604 q 469 712 598 712 q 322 684 393 712 q 105 484 181 627 q 44 245 44 370 q 87 52 44 146 q 276 -142 141 -67 q 513 -212 372 -195 q 527 -220 522 -213 q 532 -235 532 -227 q 509 -256 532 -256 m 368 108 q 538 296 429 108 q 529 300 534 297 q 475 313 500 313 q 453 311 464 313 q 374 247 403 296 q 340 149 340 192 q 355 112 340 122 q 368 108 361 108 z "},"A":{"ha":1300,"x_min":0,"x_max":1273,"o":"m 1256 -396 l 1253 -396 q 1088 -311 1158 -381 q 951 -39 995 -215 q 916 -41 934 -41 q 860 -35 888 -41 q 674 36 764 -13 l 626 62 q 219 -326 446 -326 q 184 -324 201 -326 q 26 -219 76 -305 q 0 -127 0 -175 q 72 23 0 -34 q 234 83 131 70 q 177 192 177 130 q 191 241 177 218 q 267 286 211 277 q 290 288 277 288 q 500 220 374 288 l 514 270 q 611 597 564 457 q 757 895 673 774 q 1010 1093 862 1044 q 1023 1095 1017 1095 q 1050 1086 1038 1095 q 1070 1055 1070 1076 q 1068 1043 1070 1049 q 998 721 1029 923 q 966 301 966 509 q 989 5 966 131 q 1043 36 1025 11 q 1060 92 1060 60 q 1038 160 1060 129 q 1035 170 1035 165 q 1041 183 1035 178 q 1052 188 1047 188 q 1067 180 1061 188 q 1090 98 1090 139 q 1062 16 1090 52 q 996 -28 1038 -14 q 1258 -361 1061 -329 q 1273 -380 1273 -364 q 1265 -393 1273 -387 q 1256 -396 1261 -396 m 941 5 q 932 52 936 28 q 907 374 907 197 q 962 918 907 655 q 858 682 909 819 q 769 430 817 572 q 654 126 715 269 l 707 96 q 880 20 792 49 q 941 5 912 9 m 204 -272 q 317 -214 258 -272 q 417 -43 370 -160 q 481 151 451 44 q 256 241 324 241 q 208 203 208 241 q 212 178 208 192 q 260 110 226 140 q 302 86 280 94 q 314 69 314 81 q 296 52 312 52 q 185 31 230 48 q 83 -64 104 -3 q 71 -126 71 -96 q 85 -191 71 -159 q 204 -272 121 -268 z "},"B":{"ha":1152,"x_min":0,"x_max":1125,"o":"m 368 -410 l 364 -410 q 335 -399 349 -410 q 191 -24 191 -276 q 210 199 191 83 q 279 526 232 330 q 309 652 295 591 q 342 876 342 798 q 322 980 342 942 q 241 1038 289 1038 q 176 999 201 1038 q 163 940 163 976 q 201 821 163 888 q 203 812 203 817 q 202 805 203 808 q 186 793 197 793 q 179 795 182 793 q 121 806 147 806 q 70 792 89 806 q 47 749 47 774 q 95 688 47 709 q 154 677 118 677 q 290 708 216 677 q 297 709 294 709 q 305 707 300 709 q 315 691 315 703 q 303 674 315 680 l 267 661 q 141 638 199 638 q 78 648 104 638 q 7 711 24 670 q 0 747 0 729 q 6 783 0 760 q 43 825 13 806 q 110 844 68 844 q 151 840 132 844 q 124 947 124 901 q 146 1029 124 996 q 260 1086 186 1086 q 390 1037 325 1086 q 479 909 444 994 q 559 1003 517 966 q 763 1086 656 1086 q 901 1051 838 1086 q 995 969 958 1020 q 1046 815 1046 899 q 1004 678 1046 748 q 762 492 941 572 l 774 488 q 1125 152 1125 375 q 1118 93 1125 122 q 968 -139 1085 -37 q 699 -279 846 -245 q 620 -288 659 -288 q 478 -252 544 -288 q 349 -48 380 -196 l 348 -58 q 336 -169 336 -118 q 346 -253 336 -215 q 394 -330 359 -300 q 410 -365 410 -345 q 399 -394 410 -380 q 368 -410 387 -408 m 536 -195 q 655 -155 593 -195 q 802 -10 738 -102 q 876 151 855 67 q 884 217 884 185 q 869 300 884 260 q 750 417 842 372 q 637 450 703 439 q 606 472 616 452 q 604 486 604 479 q 627 519 604 510 q 756 587 704 550 q 878 732 855 657 q 887 791 887 763 q 858 886 887 843 q 754 962 820 941 q 701 970 728 970 q 593 939 648 970 q 499 848 543 911 q 513 717 513 790 q 507 615 513 669 q 430 275 486 450 q 385 47 385 131 q 388 -9 385 19 q 536 -195 414 -195 z "},"C":{"ha":937,"x_min":0,"x_max":914,"o":"m 389 -311 q 187 -239 279 -311 q 33 16 85 -159 q 0 262 0 133 q 154 817 0 567 q 363 1020 247 956 q 600 1084 480 1084 q 733 1062 671 1084 q 844 990 803 1036 q 914 793 914 912 q 908 726 914 760 q 847 589 889 634 q 741 534 796 534 q 633 612 656 538 q 630 637 630 625 q 669 740 630 682 q 650 739 659 739 q 591 751 616 739 q 540 827 544 777 q 557 846 540 845 q 576 829 575 846 q 582 810 577 819 q 648 774 599 774 q 719 792 678 774 q 726 794 723 794 q 743 784 738 794 q 745 776 745 780 q 738 762 745 768 q 692 706 707 733 q 672 643 672 671 q 675 623 672 632 q 741 575 691 575 q 817 616 779 575 q 868 729 850 653 q 876 800 876 764 q 868 869 876 834 q 722 1027 841 992 q 661 1036 692 1036 q 587 1025 625 1036 q 323 747 422 979 q 227 347 248 563 q 218 190 218 265 q 227 44 218 114 q 294 -163 245 -94 q 437 -248 352 -248 q 484 -241 460 -248 q 619 -157 556 -222 q 736 57 700 -72 q 757 73 740 73 q 780 52 780 71 l 779 45 q 651 -191 741 -98 q 500 -291 583 -261 q 389 -311 445 -311 z "},"D":{"ha":1220,"x_min":0,"x_max":1192,"o":"m 368 -410 l 364 -410 q 335 -399 349 -410 q 191 -24 191 -277 q 210 199 191 83 q 279 525 231 328 l 309 652 q 342 879 342 799 q 322 980 342 943 q 241 1038 289 1038 q 176 999 200 1038 q 163 940 163 976 q 201 821 163 888 q 203 812 203 817 q 202 805 203 808 q 186 793 197 793 q 178 795 182 793 q 121 806 147 806 q 70 792 88 806 q 47 749 47 774 q 94 688 47 709 q 154 677 118 677 q 290 708 216 677 q 296 709 293 709 q 305 707 300 709 q 315 691 315 703 q 303 674 315 680 l 267 661 q 141 638 199 638 q 77 648 104 638 q 0 747 0 680 q 6 783 0 760 q 42 825 13 806 q 110 844 68 844 q 151 840 132 844 q 124 947 124 901 q 146 1029 124 996 q 260 1086 186 1086 q 390 1036 325 1086 q 490 880 454 986 l 492 872 q 519 925 503 899 q 659 1059 576 1019 q 791 1090 723 1090 q 991 1023 897 1090 q 1139 833 1092 946 q 1192 554 1192 711 q 1190 506 1192 530 q 1091 115 1177 304 q 873 -198 1006 -74 q 696 -303 786 -278 q 631 -313 663 -313 q 565 -302 597 -313 q 431 -183 483 -273 q 359 1 384 -102 l 347 -58 q 336 -168 336 -117 q 346 -253 336 -214 q 393 -330 359 -300 q 410 -364 410 -345 q 398 -394 410 -380 q 368 -410 387 -408 m 597 -257 q 672 -231 635 -257 q 774 -118 726 -195 q 897 167 851 7 q 954 562 954 363 q 931 785 954 680 q 870 942 909 884 q 731 1027 812 1027 q 680 1018 705 1027 q 557 904 610 992 q 510 781 525 846 q 513 715 513 750 q 456 362 513 578 q 416 220 437 290 l 381 90 q 416 -26 408 -3 q 523 -227 458 -170 q 597 -257 557 -257 z "},"E":{"ha":865,"x_min":0,"x_max":844,"o":"m 363 -306 q 205 -271 279 -306 q 41 -128 99 -220 q 0 16 0 -61 q 172 294 0 174 q 498 437 292 380 q 454 475 475 456 q 329 617 381 538 q 264 820 264 718 q 425 1067 264 985 q 606 1109 514 1109 q 659 1106 632 1109 q 808 1026 762 1088 q 844 913 844 977 q 814 808 844 859 q 768 755 796 779 q 747 750 761 750 q 736 757 743 750 q 730 771 730 764 q 738 788 730 781 q 772 830 758 805 q 795 911 795 871 q 764 980 795 958 q 709 996 745 996 q 541 930 629 996 q 443 801 471 876 q 429 723 429 764 q 509 530 429 622 q 597 448 544 490 q 611 421 611 435 q 582 387 611 394 q 420 332 488 362 q 209 97 209 235 q 213 62 209 79 q 311 -83 232 -23 q 493 -146 398 -145 q 686 -89 607 -146 q 769 18 741 -47 q 779 63 779 41 q 744 143 779 111 q 671 172 715 172 q 648 170 660 172 q 572 91 597 161 q 564 23 564 62 q 566 -26 564 -4 q 545 -50 566 -50 q 520 -39 528 -50 q 402 41 460 41 q 370 33 385 41 q 338 -20 338 13 q 353 -53 338 -38 q 358 -65 358 -58 q 339 -83 357 -83 q 326 -77 332 -83 q 302 -20 302 -50 q 353 63 302 33 q 402 76 375 76 q 518 20 462 76 q 569 172 518 120 q 673 216 611 216 q 778 172 730 216 q 816 100 806 144 q 820 66 820 84 q 809 -1 820 35 q 732 -132 783 -75 q 512 -280 645 -231 q 363 -306 439 -306 z "},"F":{"ha":1123,"x_min":0,"x_max":1108,"o":"m 204 -303 q 138 -291 169 -303 q 61 -213 79 -268 q 56 -180 56 -197 q 121 -42 56 -114 q 107 -41 113 -42 q 21 0 47 -31 q 0 56 0 26 q 21 114 0 89 q 106 152 49 147 q 117 153 111 153 q 315 67 201 153 q 322 54 322 62 q 306 37 322 40 q 292 41 298 37 q 205 94 247 77 q 126 113 159 113 q 56 83 75 113 q 46 54 46 68 q 111 -5 46 8 q 144 -9 125 -9 l 161 -8 q 180 -24 179 -8 q 174 -38 180 -33 q 97 -175 97 -111 q 99 -193 97 -184 q 149 -247 111 -235 q 170 -250 159 -250 q 244 -216 206 -250 q 298 -111 279 -183 q 327 86 319 -29 q 336 210 332 145 q 352 420 342 322 q 315 417 333 417 q 177 475 232 417 q 172 486 172 479 q 178 499 172 494 q 189 505 183 505 q 203 499 198 505 q 265 462 231 471 q 309 457 286 457 q 357 462 332 457 q 479 883 386 733 q 422 877 450 877 q 276 932 338 877 q 269 947 269 939 q 276 962 269 956 q 292 968 283 968 q 308 962 301 968 q 370 936 336 939 q 481 959 425 936 q 587 1004 534 980 q 638 1026 612 1015 q 902 1096 796 1096 q 1099 1037 1008 1096 q 1108 1021 1108 1031 q 1088 999 1108 1002 q 1072 1004 1078 999 q 943 1041 1020 1041 q 811 1018 879 1041 q 689 954 744 995 q 609 862 635 912 q 558 534 560 762 l 583 545 q 769 602 675 585 q 821 606 795 606 q 998 542 921 606 q 1004 530 1004 536 q 986 511 1004 511 q 975 515 980 511 q 827 567 913 567 q 561 489 736 567 l 557 488 q 528 66 557 234 q 435 -170 497 -85 q 204 -303 335 -303 z "},"G":{"ha":945,"x_min":0,"x_max":928,"o":"m 425 -545 q 403 -530 409 -545 q 358 -315 366 -429 l 350 -315 q 131 -203 229 -315 q 5 130 28 -75 q 0 232 0 181 q 32 488 0 358 q 159 783 71 647 q 395 1003 250 920 q 644 1076 523 1076 q 777 1053 710 1076 q 889 966 852 1023 q 928 836 928 907 q 893 702 928 764 q 810 614 857 640 q 721 588 763 588 q 694 591 707 588 q 609 646 637 602 q 596 692 596 667 q 602 727 596 709 q 573 724 587 724 q 521 739 542 724 q 484 804 484 763 q 511 863 484 836 q 617 896 547 896 q 697 886 652 896 q 711 868 711 882 q 692 850 709 850 l 689 850 q 614 861 648 861 q 536 837 560 861 q 521 804 521 822 q 541 768 521 782 q 572 760 553 760 q 633 777 602 760 q 642 780 637 780 q 654 775 648 780 q 661 762 661 770 q 656 751 661 755 q 633 695 633 721 q 642 667 633 679 q 718 640 667 640 q 857 722 803 640 q 890 844 890 778 q 859 951 890 904 q 769 1016 829 998 q 718 1022 743 1022 q 616 1000 667 1022 q 480 909 532 963 q 339 696 401 824 q 245 447 281 578 q 193 102 193 261 q 233 -117 193 -28 q 355 -236 283 -216 l 356 -237 q 368 -108 357 -178 q 503 241 399 106 q 658 350 564 322 q 700 355 680 355 q 797 309 760 355 q 831 194 831 266 q 785 14 831 110 q 675 -147 742 -73 q 526 -268 609 -221 q 404 -311 466 -300 q 446 -515 411 -418 q 447 -523 447 -519 q 444 -534 447 -528 q 425 -545 438 -545 m 401 -243 q 504 -218 452 -243 q 642 -113 580 -181 q 746 40 707 -41 q 785 187 785 121 q 755 276 785 247 q 703 298 734 298 q 678 295 691 298 q 556 208 609 275 q 418 -115 458 85 q 401 -243 402 -188 z "},"H":{"ha":1119,"x_min":0,"x_max":1100,"o":"m 905 -326 q 872 -317 886 -326 q 787 -219 819 -274 q 728 24 729 -113 q 747 247 728 139 q 781 408 762 328 q 614 361 698 390 q 427 302 483 317 q 417 267 422 285 l 398 205 q 336 -98 336 1 q 393 -252 336 -204 q 410 -281 408 -264 q 399 -311 410 -298 q 368 -326 387 -325 q 335 -317 349 -326 q 191 37 191 -201 q 217 283 191 144 q 112 333 157 296 q 106 343 106 337 q 113 356 106 351 q 128 361 119 361 q 144 356 137 361 q 224 319 176 329 q 279 554 247 428 q 309 674 295 616 q 342 888 342 810 q 322 983 342 948 q 242 1038 289 1038 q 176 1001 199 1038 q 163 943 163 979 q 201 833 165 894 q 203 825 203 829 q 202 819 203 821 q 184 808 198 808 l 178 808 q 130 819 151 818 q 70 806 87 819 q 47 766 47 789 q 94 707 47 728 q 152 697 117 697 q 290 726 208 697 q 296 728 293 728 q 305 726 300 728 q 315 711 315 722 q 312 702 315 708 q 267 683 310 696 q 142 661 199 661 q 78 671 105 661 q 0 764 0 700 q 43 838 0 810 q 113 855 69 855 q 151 852 128 855 q 124 952 124 907 q 146 1029 124 998 q 261 1083 185 1083 q 390 1036 325 1083 q 490 888 454 989 q 513 734 513 824 q 507 640 513 690 q 456 401 490 523 l 441 348 l 596 399 q 790 448 692 431 q 817 554 803 503 q 846 674 832 616 q 880 884 880 810 q 859 983 880 947 q 779 1038 826 1038 q 713 1001 736 1038 q 701 943 701 979 q 738 833 702 894 q 741 825 741 829 q 735 812 741 817 q 723 807 730 807 q 715 808 720 807 q 681 866 700 823 q 661 952 661 914 q 683 1029 661 998 q 798 1083 722 1083 q 927 1037 862 1083 q 1027 888 991 989 q 1050 734 1050 824 q 1003 439 1050 611 q 1093 396 1049 425 q 1100 385 1099 391 q 1094 372 1100 377 q 1080 366 1088 367 q 1064 370 1070 366 q 994 405 1030 393 q 935 205 992 397 q 873 -99 873 -1 q 883 -178 873 -142 q 930 -252 896 -223 q 947 -281 945 -264 q 937 -311 947 -298 q 905 -326 924 -325 z "},"I":{"ha":418,"x_min":0,"x_max":389,"o":"m 244 -326 l 240 -326 q 211 -317 224 -326 q 67 37 67 -202 q 86 247 67 139 q 155 555 109 374 q 184 674 171 617 q 218 888 218 810 q 198 983 218 948 q 118 1038 165 1038 q 52 1001 75 1038 q 39 946 39 979 q 77 833 39 896 q 79 825 79 829 q 74 812 79 817 q 62 807 68 807 q 54 808 58 807 q 20 866 35 825 q 0 952 0 913 q 22 1029 0 998 q 137 1083 62 1083 q 266 1036 201 1083 q 366 888 330 989 q 389 734 389 824 q 332 401 389 603 l 274 205 q 212 -98 212 2 q 222 -178 212 -142 q 269 -252 235 -223 q 286 -284 286 -265 q 275 -311 286 -298 q 244 -326 262 -325 z "},"J":{"ha":831,"x_min":0,"x_max":801,"o":"m 280 -301 q 186 -281 231 -301 q 64 -176 113 -250 q 3 0 16 -103 q 0 51 0 26 q 21 183 0 121 q 117 307 49 268 q 176 323 147 323 q 270 259 240 323 q 283 191 283 231 q 277 140 283 165 q 362 170 326 170 q 385 167 374 170 q 450 100 438 151 q 452 79 452 90 q 419 7 452 41 q 306 -32 382 -32 q 206 -18 258 -32 q 193 -1 193 -14 q 212 18 195 18 l 216 17 q 304 4 262 4 q 394 33 364 4 q 415 79 415 55 q 376 132 415 120 q 362 134 370 134 q 258 78 316 134 q 245 72 252 72 q 227 90 227 75 l 227 96 q 248 195 248 151 q 237 242 248 225 q 198 264 222 264 q 159 252 180 264 q 94 162 117 223 q 68 14 68 94 q 108 -149 68 -80 q 211 -239 148 -218 q 254 -247 232 -247 q 307 -237 280 -247 q 477 -28 413 -192 q 573 415 551 163 q 583 604 583 513 q 540 925 583 810 q 496 996 522 972 q 450 1014 476 1014 q 418 1026 431 1014 q 404 1058 405 1038 q 417 1090 404 1077 q 449 1103 429 1103 q 667 1017 582 1098 q 792 742 768 915 q 801 608 801 677 q 784 412 801 513 q 595 -84 736 130 q 422 -260 517 -203 q 280 -301 353 -301 z "},"K":{"ha":1262,"x_min":0,"x_max":1239,"o":"m 279 -301 q 185 -281 230 -301 q 64 -176 113 -250 q 0 53 0 -80 q 20 183 0 121 q 116 307 49 268 q 175 323 146 323 q 269 259 239 323 q 282 191 282 231 q 277 140 282 172 q 361 170 325 170 q 384 167 373 170 q 449 100 437 151 q 451 79 451 90 q 418 7 451 41 q 305 -32 381 -32 q 205 -18 257 -32 q 192 -1 192 -14 q 211 18 195 18 l 215 17 q 304 4 263 4 q 393 33 363 4 q 414 79 414 55 q 375 132 414 120 q 361 134 369 134 q 258 78 317 134 q 244 72 252 72 q 226 90 226 75 l 227 96 q 247 195 247 151 q 236 242 247 225 q 197 264 221 264 q 159 252 179 264 q 93 162 117 223 q 67 14 67 94 q 107 -149 67 -79 q 210 -239 148 -218 q 254 -247 231 -247 q 307 -237 279 -247 q 511 72 440 -180 q 582 600 582 323 q 539 925 582 810 q 450 1014 506 1014 q 418 1026 431 1014 q 404 1058 405 1038 q 416 1090 404 1077 q 448 1103 429 1103 q 666 1017 583 1098 q 791 742 768 915 q 801 606 801 675 q 784 412 801 512 q 782 401 783 407 q 931 674 876 462 q 981 860 968 816 q 1046 1006 1006 946 q 1188 1085 1101 1085 q 1214 1079 1209 1085 q 1219 1067 1219 1074 q 1214 1053 1219 1058 q 1202 1048 1208 1048 l 1192 1048 q 1146 1038 1166 1048 q 1053 850 1086 1002 q 1038 782 1045 817 q 1010 660 1026 722 q 807 357 956 428 q 982 169 933 340 q 1016 31 1002 102 q 1058 -128 1033 -56 q 1204 -254 1101 -254 l 1217 -254 q 1231 -260 1225 -254 q 1239 -275 1238 -265 q 1233 -292 1239 -285 q 1218 -299 1227 -298 q 1200 -300 1209 -300 q 1053 -222 1105 -300 q 972 21 1005 -151 q 937 159 957 94 q 777 312 890 312 l 763 311 q 595 -84 708 87 q 422 -260 516 -203 q 279 -301 353 -301 z "},"L":{"ha":1097,"x_min":0,"x_max":1074,"o":"m 857 -378 q 659 -324 751 -378 q 511 -212 578 -275 l 499 -201 q 323 -298 423 -277 q 280 -301 301 -301 q 186 -281 231 -301 q 64 -176 113 -250 q 3 0 16 -103 q 0 51 0 26 q 21 183 0 121 q 117 307 49 268 q 176 323 147 323 q 270 259 240 323 q 283 191 283 231 q 277 140 283 165 q 362 170 326 170 q 385 167 374 170 q 450 100 438 151 q 452 79 452 90 q 419 7 452 41 q 363 -24 399 -14 q 454 -79 408 -45 q 511 73 492 2 q 582 609 582 321 l 582 639 q 498 992 582 895 q 393 1041 456 1041 q 327 1018 355 1041 q 278 932 286 985 q 277 914 277 923 q 300 839 277 876 q 366 791 323 805 q 382 770 382 786 q 361 747 379 747 q 354 748 357 747 q 265 810 296 766 q 229 913 229 862 q 296 1051 229 995 q 451 1104 357 1102 q 597 1070 535 1103 q 775 818 727 1000 q 801 620 801 718 q 784 412 801 509 q 661 28 749 207 q 544 -153 616 -63 l 560 -166 l 560 -167 q 690 -271 623 -224 q 886 -335 784 -335 q 1048 -300 963 -335 q 1056 -298 1053 -298 q 1074 -317 1074 -298 q 1063 -333 1074 -328 q 857 -378 954 -378 m 254 -247 q 307 -237 280 -247 q 425 -131 379 -206 q 299 -49 369 -81 q 206 -18 248 -24 q 193 -1 193 -14 q 212 18 195 18 l 216 17 q 309 4 264 4 q 394 33 367 6 q 415 79 415 55 q 376 132 415 120 q 362 134 370 134 q 258 78 316 134 q 245 72 252 72 q 227 90 227 75 l 227 96 q 248 195 248 151 q 237 242 248 225 q 198 264 222 264 q 159 252 180 264 q 94 162 117 223 q 68 14 68 94 q 108 -149 68 -80 q 211 -239 148 -218 q 254 -247 232 -247 z "},"M":{"ha":1976,"x_min":0,"x_max":1940,"o":"m 279 -301 q 185 -281 231 -301 q 64 -176 113 -250 q 0 53 0 -80 q 20 183 0 121 q 116 307 49 268 q 175 323 147 323 q 269 259 239 323 q 282 191 282 231 q 277 140 282 172 q 361 170 325 170 q 384 167 373 170 q 449 100 437 151 q 451 79 451 90 q 418 7 451 41 q 305 -32 381 -32 q 205 -18 257 -32 q 192 0 192 -14 q 211 18 194 18 l 215 17 q 304 4 263 4 q 393 33 363 4 q 414 79 414 55 q 375 132 414 120 q 361 134 369 134 q 258 78 317 134 q 244 72 252 72 q 226 90 226 75 l 227 96 q 247 195 247 151 q 236 242 247 225 q 197 264 222 264 q 159 252 179 264 q 93 162 117 223 q 67 14 67 94 q 107 -149 67 -79 q 211 -239 148 -218 q 254 -247 232 -247 q 307 -237 280 -247 q 511 72 440 -180 q 582 608 582 323 l 581 661 q 539 925 579 811 q 450 1014 506 1014 q 418 1026 431 1014 q 404 1058 405 1038 q 417 1090 404 1077 q 448 1103 429 1103 q 665 1017 583 1098 q 779 808 747 937 q 812 898 792 857 q 906 1027 844 968 q 1052 1088 968 1086 q 1232 962 1162 1084 q 1299 734 1279 879 q 1310 538 1310 638 q 1305 413 1310 458 l 1308 422 q 1478 887 1389 743 q 1589 1008 1527 966 q 1706 1048 1647 1048 q 1913 844 1846 1048 q 1940 648 1940 755 q 1921 429 1940 549 q 1864 129 1904 315 q 1833 -18 1846 49 q 1816 -157 1816 -102 q 1822 -210 1816 -189 q 1863 -243 1831 -243 l 1874 -243 q 1893 -250 1884 -243 q 1902 -269 1902 -257 q 1896 -287 1902 -279 q 1845 -300 1885 -300 q 1750 -245 1783 -300 q 1699 -9 1703 -164 q 1698 53 1698 22 q 1707 278 1698 159 q 1720 449 1713 364 q 1739 766 1739 676 q 1655 981 1739 981 q 1617 970 1637 981 q 1353 414 1472 895 q 1297 186 1340 376 q 1263 -15 1271 64 q 1251 -39 1261 -31 q 1227 -47 1240 -47 q 1199 -35 1211 -47 q 1192 -12 1192 -24 l 1192 40 q 1176 413 1192 228 q 1079 922 1142 798 q 1014 1000 1056 973 q 983 1008 1000 1008 q 933 991 960 1008 q 852 882 887 959 q 806 705 814 792 q 794 584 800 643 q 773 399 785 488 q 654 12 745 188 q 508 -191 595 -102 q 422 -260 469 -232 q 279 -301 353 -301 z "},"N":{"ha":1381,"x_min":0,"x_max":1341,"o":"m 280 -301 q 186 -281 231 -301 q 64 -176 113 -250 q 0 53 0 -81 q 20 183 0 121 q 117 307 49 268 q 176 323 147 323 q 269 259 240 323 q 283 191 283 231 q 277 140 283 165 q 362 170 326 170 q 384 167 374 170 q 449 100 438 151 q 452 79 452 89 q 419 7 452 41 q 306 -32 380 -32 q 206 -18 258 -32 q 193 -1 193 -14 q 211 18 195 18 l 215 17 q 304 4 263 4 q 394 33 363 4 q 415 79 415 55 q 376 132 415 120 q 362 134 369 134 q 258 78 317 134 q 244 72 252 72 q 226 90 226 75 q 227 96 226 92 q 247 193 247 153 q 236 242 247 224 q 198 264 222 264 q 159 252 180 264 q 94 162 117 223 q 68 14 68 94 q 108 -149 68 -80 q 211 -239 148 -218 q 254 -247 232 -247 q 307 -237 280 -247 q 511 73 440 -180 q 582 606 582 321 q 540 925 582 811 q 450 1014 505 1014 q 418 1026 431 1014 q 404 1058 405 1038 q 417 1090 404 1077 q 448 1103 429 1103 q 667 1017 582 1098 q 795 712 778 905 q 875 888 833 817 q 982 1010 922 968 q 1103 1053 1042 1053 q 1310 853 1240 1053 q 1341 639 1341 757 q 1326 437 1341 547 q 1274 136 1312 332 q 1232 -144 1232 -73 q 1238 -203 1232 -180 q 1280 -236 1249 -236 l 1293 -235 q 1311 -242 1302 -235 q 1320 -262 1320 -248 q 1263 -292 1320 -292 q 1168 -239 1201 -292 q 1112 -4 1119 -159 q 1109 115 1109 54 q 1124 454 1109 216 q 1138 743 1138 647 q 1135 833 1138 792 q 1101 957 1128 921 q 1052 985 1080 985 q 916 869 986 985 q 801 577 854 764 q 784 412 798 496 q 595 -84 735 126 q 422 -260 515 -204 q 280 -301 353 -301 z "},"O":{"ha":840,"x_min":0,"x_max":813,"o":"m 347 -304 q 130 -197 225 -304 q 43 -41 75 -132 q 0 229 0 82 q 43 513 0 372 q 201 789 93 673 q 360 903 269 861 q 380 907 370 907 q 420 882 408 907 q 425 862 425 872 q 399 822 425 836 q 340 736 373 808 q 255 466 294 633 q 206 132 216 300 q 205 79 205 104 q 234 -126 205 -41 q 379 -246 281 -246 q 427 -239 402 -246 q 524 -184 478 -224 q 594 -102 564 -149 q 726 313 690 57 q 743 559 743 438 q 722 805 743 700 q 653 978 700 922 q 578 1019 616 1019 q 528 988 543 1019 q 517 936 517 964 q 569 793 517 874 q 572 783 572 788 q 555 764 570 764 l 549 765 q 503 771 524 771 q 450 758 470 771 q 421 713 421 740 q 445 673 421 690 q 510 658 467 658 q 667 695 577 658 q 674 696 671 696 q 692 678 692 696 q 690 670 692 675 q 627 642 686 661 q 510 622 562 622 q 429 641 458 622 q 385 712 385 669 q 430 789 385 758 q 504 808 458 808 l 519 807 q 484 931 484 871 q 537 1056 484 1012 q 608 1080 565 1080 q 718 1017 664 1080 q 794 817 771 947 q 813 587 813 713 q 736 88 812 320 q 555 -221 669 -124 q 347 -304 458 -304 z "},"P":{"ha":1169,"x_min":0,"x_max":1135,"o":"m 368 -326 l 363 -326 q 334 -317 348 -326 q 191 37 191 -201 q 252 448 191 198 l 309 674 q 342 884 342 812 q 321 983 342 947 q 241 1038 288 1038 q 176 1001 199 1038 q 163 946 163 979 q 200 833 163 896 q 203 825 203 829 q 201 819 203 822 q 184 808 197 808 l 178 808 q 120 819 146 819 q 69 806 87 819 q 47 766 47 789 q 94 707 47 728 q 151 697 117 697 q 289 726 208 697 q 296 728 293 728 q 314 711 314 728 q 303 695 314 699 l 267 683 q 142 661 197 661 q 77 671 104 661 q 0 764 0 700 q 6 798 0 777 q 41 837 13 819 q 113 855 69 855 q 137 854 124 855 q 150 852 143 852 q 124 954 124 903 q 146 1029 124 999 q 261 1083 184 1083 q 389 1036 325 1083 q 490 888 454 989 q 498 861 494 875 q 634 1012 547 950 q 847 1082 735 1082 q 969 1053 912 1082 q 1069 962 1027 1023 q 1135 743 1135 865 q 1051 474 1135 596 q 623 231 919 280 q 454 219 546 219 q 402 220 429 219 l 398 205 q 336 -99 336 1 q 345 -178 336 -142 q 393 -252 358 -223 q 410 -284 410 -266 q 398 -312 410 -298 q 368 -326 386 -325 m 416 266 q 613 300 526 266 q 814 451 744 352 q 903 722 903 578 q 869 870 903 807 q 743 956 823 956 q 675 939 709 956 q 540 786 585 895 q 515 699 519 736 l 507 640 q 455 401 490 523 q 416 266 436 332 z "},"Q":{"ha":836,"x_min":0,"x_max":813,"o":"m 453 -648 q 438 -647 446 -648 q 427 -640 431 -646 q 423 -629 423 -635 q 431 -615 423 -620 q 441 -612 435 -612 l 454 -612 q 490 -602 473 -612 q 530 -529 530 -577 q 511 -465 530 -498 q 441 -368 477 -406 l 382 -302 q 347 -305 364 -305 q 130 -197 225 -305 q 43 -41 75 -132 q 0 229 0 82 q 43 513 0 372 q 201 789 93 673 q 360 903 269 861 q 380 907 370 907 q 420 882 408 907 q 425 862 425 872 q 399 822 425 836 q 340 736 373 808 q 255 466 294 633 q 206 132 216 300 q 205 79 205 104 q 234 -126 205 -41 q 326 -236 269 -214 l 329 -237 q 274 -98 275 -165 q 292 -80 275 -81 q 311 -98 311 -81 q 379 -236 311 -159 q 388 -246 383 -241 q 524 -184 458 -241 q 594 -102 564 -149 q 726 313 690 57 q 743 559 743 438 q 722 805 743 700 q 653 978 700 922 q 578 1019 616 1019 q 528 988 543 1019 q 517 936 517 964 q 569 793 517 874 q 572 783 572 788 q 555 764 570 764 l 549 765 q 503 771 524 771 q 450 758 470 771 q 421 713 421 740 q 445 673 421 690 q 510 658 467 658 q 667 695 577 658 q 674 696 671 696 q 692 678 692 696 q 690 670 692 675 q 627 642 686 661 q 510 622 562 622 q 429 641 458 622 q 385 712 385 669 q 430 789 385 758 q 504 808 458 808 l 519 807 q 484 931 484 872 q 536 1056 484 1013 q 608 1080 565 1080 q 718 1017 664 1080 q 794 817 771 947 q 813 587 813 713 q 789 307 813 453 q 637 -127 745 37 q 430 -292 556 -252 l 437 -299 q 476 -341 457 -320 q 553 -454 523 -390 q 569 -524 569 -490 q 509 -632 569 -595 q 453 -648 483 -648 z "},"R":{"ha":1457,"x_min":0,"x_max":1430,"o":"m 280 -308 q 186 -288 231 -308 q 64 -183 113 -256 q 3 -7 16 -110 q 0 46 0 20 q 20 176 0 115 q 117 300 49 261 q 176 316 147 316 q 269 252 240 316 q 283 184 283 224 q 277 134 283 158 q 362 163 326 163 q 384 160 374 163 q 449 93 438 144 q 452 72 452 82 q 419 0 452 34 q 306 -39 380 -39 q 206 -24 258 -39 q 193 -8 193 -21 q 211 11 195 11 l 215 10 q 304 -3 263 -3 q 394 26 363 -3 q 415 73 415 48 q 376 125 415 113 q 362 127 369 127 q 258 71 316 127 q 245 65 252 65 q 226 83 226 68 q 227 89 226 85 q 247 186 247 146 q 236 235 247 218 q 198 258 222 258 q 159 245 180 258 q 94 155 117 216 q 68 7 68 87 q 108 -156 68 -87 q 211 -246 148 -225 q 254 -254 232 -254 q 307 -243 280 -254 q 511 66 440 -186 q 583 591 583 313 q 540 918 583 804 q 450 1007 505 1007 q 418 1019 431 1007 q 404 1051 405 1031 q 417 1083 404 1070 q 448 1097 429 1096 q 667 1010 582 1091 q 774 817 743 935 q 930 1005 826 930 q 1143 1076 1031 1076 q 1265 1046 1208 1076 q 1365 955 1322 1016 q 1430 736 1430 858 q 1347 467 1430 589 q 873 218 1204 257 q 1006 73 954 173 q 1072 -67 1030 28 q 1137 -184 1099 -134 q 1280 -255 1190 -255 l 1319 -253 q 1334 -258 1326 -253 q 1341 -275 1341 -264 q 1336 -290 1341 -283 q 1273 -300 1327 -300 q 1091 -220 1160 -300 q 1011 -92 1044 -164 q 947 42 960 18 q 802 199 889 159 q 737 212 767 212 q 595 -91 684 42 q 422 -267 515 -211 q 280 -308 353 -308 m 751 260 q 767 261 760 260 q 909 293 846 269 q 1109 444 1040 345 q 1198 716 1198 572 q 1166 863 1198 800 q 1038 949 1119 949 q 971 932 1005 949 q 889 868 922 908 q 805 667 821 786 q 796 551 798 609 q 751 260 795 414 z "},"S":{"ha":865,"x_min":0,"x_max":846,"o":"m 467 -325 q 167 -243 304 -325 q 23 -97 72 -188 q 0 2 0 -48 q 83 166 0 106 q 160 192 119 192 q 324 37 266 192 q 365 115 340 86 q 465 165 408 165 q 526 144 498 165 q 563 68 563 115 q 521 -23 563 21 q 389 -100 474 -70 q 382 -101 385 -101 q 373 -98 378 -101 q 364 -83 364 -94 q 376 -66 364 -71 q 527 68 527 -9 q 503 115 527 98 q 463 130 485 130 q 393 92 424 130 q 345 -38 357 49 q 326 -54 342 -54 q 309 -40 311 -54 q 243 111 286 60 q 173 149 210 149 q 125 130 146 149 q 82 50 94 102 q 78 7 78 28 q 94 -71 78 -33 q 193 -192 126 -143 q 338 -263 260 -240 q 471 -283 406 -283 q 648 -220 587 -283 q 687 -107 687 -178 q 627 64 687 -26 q 442 294 554 168 q 328 433 383 362 q 144 817 150 661 l 143 840 q 214 1017 143 947 q 437 1101 302 1101 q 578 1072 509 1101 q 711 964 660 1038 q 762 785 762 889 q 756 769 762 775 q 740 762 749 762 q 724 769 730 762 q 717 785 717 775 q 672 937 717 873 q 558 1025 627 999 q 451 1046 504 1046 q 293 975 342 1046 q 274 908 274 947 q 283 847 274 880 q 383 688 304 779 q 487 576 431 634 q 613 439 551 509 q 728 295 676 368 q 813 149 781 222 q 846 -3 846 71 q 688 -271 846 -178 q 467 -325 592 -325 z "},"T":{"ha":1431,"x_min":0,"x_max":1408,"o":"m 421 -325 l 408 -325 q 210 -179 279 -314 q 151 71 151 -66 q 196 253 151 189 q 298 315 242 315 q 412 217 375 315 q 425 129 425 180 q 418 56 425 93 q 541 124 485 124 q 583 109 566 124 q 610 43 610 84 q 566 -51 610 -9 q 464 -98 532 -85 q 408 -102 439 -102 q 297 -75 297 -102 q 315 -57 298 -57 l 318 -58 q 401 -66 363 -66 q 457 -60 433 -66 q 537 -21 511 -47 q 566 41 566 9 q 550 75 566 62 q 531 80 542 80 q 400 -23 475 80 q 378 -40 393 -40 q 368 -38 373 -40 q 356 -17 356 -33 l 356 -12 q 378 128 378 62 q 366 211 378 178 q 298 269 342 269 q 236 231 265 269 q 199 114 206 192 q 197 81 197 98 q 214 -52 197 22 q 256 -163 229 -113 q 319 -234 281 -210 q 374 -250 344 -250 q 483 -200 426 -250 q 589 -54 541 -151 q 680 223 649 68 q 714 553 714 394 q 650 884 714 791 q 427 724 557 791 q 233 671 323 671 q 124 696 170 671 q 25 801 56 733 q 0 916 0 856 q 39 1059 0 994 q 146 1149 75 1118 q 270 1173 198 1173 q 376 1160 321 1173 q 390 1142 390 1156 q 371 1124 388 1124 l 368 1124 q 271 1136 318 1136 q 165 1116 210 1136 q 74 1041 106 1090 q 35 910 35 983 q 57 812 35 858 q 140 734 83 758 q 198 723 166 723 q 389 797 283 723 q 557 949 479 864 q 630 1028 593 987 q 738 1143 682 1086 q 1102 1377 918 1332 q 1177 1387 1139 1387 q 1281 1369 1229 1387 q 1392 1276 1358 1339 q 1408 1207 1408 1244 q 1382 1108 1408 1159 q 1362 1096 1375 1096 q 1352 1099 1357 1096 q 1339 1118 1339 1105 q 1341 1128 1339 1123 q 1361 1206 1361 1168 q 1350 1258 1361 1234 q 1265 1325 1324 1308 q 1215 1331 1240 1331 q 1125 1312 1171 1331 q 963 1202 1041 1274 q 793 1030 888 1134 q 718 951 755 990 q 814 793 776 881 q 891 398 891 613 q 869 182 891 289 q 724 -155 831 -16 q 566 -288 661 -235 q 421 -325 497 -325 z "},"U":{"ha":1165,"x_min":0,"x_max":1137,"o":"m 1004 -323 q 974 -307 985 -323 q 905 -187 923 -261 q 890 -52 890 -126 q 935 298 890 80 l 966 462 q 726 -169 865 8 q 605 -279 667 -245 q 514 -304 558 -304 q 341 -127 394 -304 q 318 71 318 -47 q 361 398 318 194 l 422 710 q 437 857 437 793 q 435 899 437 879 q 382 1018 425 992 q 330 1033 358 1033 q 275 1021 304 1033 q 172 954 223 1000 q 70 809 96 887 q 64 774 64 789 q 73 741 64 753 q 109 723 85 723 q 233 801 161 723 q 245 806 238 806 q 259 801 253 806 q 264 789 264 796 q 263 783 264 786 q 252 715 252 744 q 270 654 252 673 q 307 637 287 637 q 367 685 351 637 q 370 708 370 695 q 297 848 370 770 q 293 859 293 853 q 298 873 293 868 q 310 878 303 878 q 365 823 327 878 q 407 706 407 761 q 402 675 407 690 q 333 605 383 619 q 307 601 319 601 q 244 629 272 601 q 216 715 216 658 l 216 736 q 125 692 176 703 q 104 690 114 690 q 39 713 66 690 q 0 799 0 746 q 55 931 0 861 q 129 1004 92 977 q 357 1089 248 1089 q 589 924 519 1089 q 621 734 621 848 q 576 405 621 604 q 530 211 553 306 q 498 79 513 142 q 470 -122 470 -43 q 540 -256 472 -256 q 585 -242 560 -256 q 688 -144 634 -215 q 932 522 835 48 q 1014 1076 985 776 q 1026 1101 1016 1091 q 1053 1110 1036 1110 q 1074 1103 1063 1110 q 1087 1078 1085 1096 q 1137 755 1137 935 q 1069 266 1137 543 l 1052 192 q 996 -132 996 -36 q 1036 -269 996 -222 q 1041 -287 1041 -278 q 1023 -318 1041 -307 q 1004 -323 1015 -323 z "},"V":{"ha":1233,"x_min":0,"x_max":1204,"o":"m 650 -310 q 527 -224 579 -310 q 462 166 462 -112 q 472 366 462 237 q 488 677 488 566 q 481 831 488 759 q 338 1012 458 1012 q 249 987 295 1012 q 140 906 188 957 q 66 762 66 827 q 69 741 66 751 q 114 709 81 709 q 237 790 161 709 q 250 796 242 795 q 262 791 256 796 q 268 778 268 785 l 267 772 q 256 705 256 733 q 273 645 256 663 q 312 627 291 627 q 327 629 319 627 q 371 674 359 637 q 374 697 374 684 q 301 838 374 760 q 296 850 296 844 q 302 863 296 858 q 315 868 308 868 q 369 812 330 867 q 411 696 411 749 q 406 665 411 679 q 337 594 387 608 q 312 591 324 591 q 247 620 276 591 q 220 705 220 647 l 220 726 q 101 673 152 673 q 16 719 43 673 q 0 784 0 747 q 86 956 0 876 q 224 1038 145 1008 q 385 1069 303 1069 q 564 1013 486 1069 q 699 631 699 918 q 696 552 699 591 q 656 226 684 391 q 618 -96 618 -12 q 633 -197 618 -161 q 690 -244 653 -244 q 812 -151 745 -244 q 939 85 877 -57 q 1118 645 1059 355 q 1147 886 1147 783 q 1088 1040 1147 1019 q 1072 1061 1072 1046 q 1073 1069 1072 1065 q 1095 1084 1079 1084 q 1101 1083 1098 1084 q 1204 847 1204 1048 q 1183 635 1204 752 q 1101 330 1155 486 q 846 -183 996 17 q 758 -272 805 -239 q 650 -310 703 -310 z "},"W":{"ha":1507,"x_min":-1,"x_max":1498,"o":"m 935 -342 q 823 -293 878 -342 q 722 -73 755 -229 q 702 163 702 41 q 705 291 702 220 l 692 246 q 503 -173 611 -16 q 284 -322 393 -322 q 146 -252 208 -322 q 50 -67 87 -185 q -1 278 -1 96 q 145 827 -1 593 q 330 1014 218 941 q 521 1074 431 1074 q 722 1006 642 1074 q 787 892 787 951 q 750 821 787 852 q 641 785 715 793 q 687 693 687 735 q 632 611 684 633 q 595 603 614 603 q 534 623 565 603 q 487 685 505 642 q 469 787 469 728 q 477 838 469 831 q 488 842 481 842 q 507 824 507 842 q 505 788 505 804 q 522 696 505 732 q 595 640 547 640 q 618 644 606 640 q 650 693 650 658 q 614 760 650 722 q 575 793 599 776 q 566 808 566 798 q 586 826 567 826 q 642 823 618 823 q 739 878 739 827 q 736 895 739 886 q 680 958 724 930 q 573 986 635 986 q 311 767 414 986 q 226 484 264 663 q 180 87 180 279 q 228 -196 180 -106 q 316 -262 262 -262 q 393 -227 351 -262 q 564 31 477 -160 q 701 456 644 209 q 734 630 724 554 q 770 658 739 658 q 799 649 787 658 q 811 624 811 640 q 808 481 808 587 q 852 -37 808 174 q 916 -212 878 -152 q 994 -268 954 -268 q 1054 -229 1025 -268 q 1114 -54 1092 -178 q 1128 97 1124 16 q 1133 263 1131 178 q 1139 470 1133 368 q 1219 824 1149 694 q 1472 1002 1296 966 l 1476 1002 q 1489 998 1482 1002 q 1498 979 1498 991 q 1480 958 1498 962 q 1261 803 1331 928 q 1184 465 1194 682 q 1178 262 1179 364 q 1159 -56 1176 90 q 1088 -252 1142 -179 q 986 -334 1043 -313 q 935 -342 960 -342 z "},"X":{"ha":1148,"x_min":0,"x_max":1134,"o":"m 1073 -351 q 1061 -347 1067 -351 q 1050 -328 1050 -340 q 1054 -316 1050 -322 q 1084 -216 1084 -268 q 1008 -33 1084 -134 q 848 144 943 52 q 671 -76 768 22 q 449 -245 563 -186 q 269 -294 355 -294 q 99 -232 169 -294 q 13 -89 37 -176 q 0 12 0 -41 q 9 106 0 57 q 87 282 31 208 q 222 374 143 357 q 249 376 236 376 q 326 348 294 376 q 359 263 359 316 q 328 157 359 214 q 385 165 359 165 q 442 151 420 165 q 486 74 486 121 q 425 -20 486 13 q 365 -33 400 -33 q 205 24 292 -33 q 197 40 197 29 q 199 50 197 45 q 216 58 205 58 q 226 55 221 58 q 364 5 308 5 q 408 14 390 5 q 448 73 448 35 q 422 118 448 100 q 383 128 408 128 q 288 102 341 128 q 279 99 283 99 q 267 103 273 99 q 260 119 260 109 q 263 130 260 124 q 322 256 322 204 q 320 272 322 264 q 270 309 312 309 q 248 307 260 309 q 153 238 196 292 q 75 89 101 175 q 59 -16 59 33 q 65 -75 59 -47 q 138 -198 82 -157 q 227 -226 176 -226 l 234 -226 q 385 -159 315 -218 q 471 -73 432 -119 q 692 292 592 75 q 475 519 561 417 q 297 928 297 730 q 321 1065 297 995 q 342 1080 327 1080 q 350 1079 346 1080 q 366 1058 366 1074 q 364 1050 366 1055 q 347 949 347 1000 q 536 564 352 771 q 713 381 618 471 l 725 369 q 812 625 781 502 q 844 836 844 748 q 785 969 844 951 q 757 992 766 975 q 751 1013 751 1002 q 777 1055 751 1042 q 798 1061 787 1061 q 812 1059 805 1061 q 1045 703 1045 972 q 1035 591 1045 648 q 888 208 1002 408 q 1055 9 987 107 q 1134 -203 1134 -106 q 1093 -340 1134 -275 q 1073 -351 1085 -351 z "},"Y":{"ha":827,"x_min":0,"x_max":801,"o":"m 279 -308 q 185 -288 230 -308 q 64 -183 113 -256 q 0 46 0 -87 q 20 176 0 115 q 116 300 49 261 q 175 316 147 316 q 269 252 239 316 q 282 184 282 224 q 277 134 282 165 q 361 163 325 163 q 384 160 373 163 q 449 93 437 144 q 451 73 451 83 q 418 0 451 35 q 305 -39 381 -39 q 205 -24 257 -39 q 192 -7 192 -21 q 211 11 194 11 l 215 10 q 304 -3 263 -3 q 393 26 363 -3 q 414 72 414 48 q 375 125 414 113 q 361 127 369 127 q 258 71 316 127 q 245 65 252 65 q 226 83 226 68 l 227 89 q 247 188 247 144 q 236 235 247 218 q 197 258 221 258 q 159 245 179 258 q 93 155 117 216 q 67 7 67 87 q 107 -156 67 -86 q 210 -246 148 -225 q 254 -254 231 -254 q 307 -243 279 -254 q 511 65 440 -186 q 582 593 582 317 q 539 918 582 803 l 538 921 q 532 830 538 878 q 469 584 517 705 q 363 425 427 484 q 222 359 292 359 q 118 434 156 359 q 94 574 94 485 q 121 777 94 663 q 149 955 148 901 q 134 1000 149 990 q 108 1041 108 1014 q 113 1061 108 1050 q 153 1086 125 1086 q 174 1081 163 1086 q 271 977 247 1047 q 290 856 290 921 q 286 798 290 827 q 249 591 273 688 q 234 479 234 520 q 266 417 234 417 q 333 456 294 417 q 427 600 390 515 q 493 921 493 766 q 486 996 493 964 q 450 1007 469 1007 q 418 1019 431 1007 q 404 1051 405 1031 q 417 1083 404 1070 q 448 1097 429 1096 q 666 1010 583 1091 q 791 735 768 908 q 801 599 801 669 q 784 406 801 505 q 595 -91 735 123 q 422 -267 516 -210 q 279 -308 353 -308 z "},"Z":{"ha":903,"x_min":0,"x_max":882,"o":"m 313 -319 q 197 -300 254 -319 q 39 -184 96 -267 q 0 -54 0 -125 q 12 27 0 -16 q 146 243 39 125 q 416 475 243 345 q 441 494 429 484 q 646 661 559 581 q 747 862 747 760 q 728 934 747 902 q 601 1025 688 998 q 473 1043 541 1043 q 277 1002 371 1043 q 154 905 201 969 q 117 789 118 854 q 141 703 117 736 q 201 671 163 671 q 260 696 229 671 q 357 830 311 734 q 374 841 363 841 q 381 839 377 841 q 392 821 392 833 q 391 785 391 802 q 411 683 391 723 q 486 631 439 631 q 515 637 500 631 q 549 694 548 653 q 429 841 549 765 q 420 857 420 847 q 423 866 420 861 q 438 875 430 875 q 494 839 450 875 q 586 695 586 766 q 530 605 583 630 q 486 595 509 595 q 422 615 454 595 q 356 751 366 654 q 283 667 324 699 q 191 631 237 631 q 93 675 133 631 q 41 807 41 733 q 90 945 41 882 q 262 1058 157 1024 q 448 1088 351 1088 q 612 1065 532 1088 q 778 977 707 1038 q 882 753 882 880 q 810 540 882 642 q 696 414 762 474 q 399 191 587 316 q 274 103 332 145 q 117 -119 117 -14 q 124 -159 117 -140 q 223 -250 150 -222 q 321 -268 270 -268 q 503 -201 427 -268 q 580 -62 559 -150 q 601 -44 584 -44 q 621 -54 614 -44 q 625 -66 625 -60 l 624 -71 q 536 -235 602 -172 q 313 -319 446 -319 z "},"[":{"ha":486,"x_min":0,"x_max":486,"o":"m 178 -302 q 139 -283 153 -302 q 58 -128 90 -219 q 0 270 0 44 q 16 500 0 385 q 77 779 35 648 q 246 1081 144 984 q 277 1093 258 1093 q 319 1072 305 1093 q 326 1062 319 1069 q 347 1055 333 1055 q 382 1067 359 1055 q 440 1086 417 1086 q 480 1064 461 1086 q 486 1050 486 1057 q 478 1034 486 1040 q 465 1028 471 1028 q 446 1036 453 1028 q 437 1040 442 1040 q 402 1027 427 1040 q 353 1014 377 1014 q 314 1024 330 1014 l 311 1021 q 277 951 295 1006 q 187 481 224 791 q 165 117 165 290 q 212 -229 165 -117 q 246 -222 226 -222 q 295 -235 270 -222 q 331 -248 319 -248 q 340 -243 336 -248 q 357 -235 347 -235 q 372 -242 364 -235 q 379 -258 379 -248 q 374 -272 379 -265 q 334 -294 355 -294 q 276 -275 311 -294 q 241 -263 253 -263 q 214 -283 223 -263 q 178 -302 204 -302 z "},"\\":{"ha":780,"x_min":0,"x_max":780,"o":"m 736 -307 q 721 -304 728 -307 q 547 -220 629 -272 q 117 302 267 -43 q 0 843 0 568 q 3 920 0 882 q 39 1086 13 1068 q 64 1094 51 1094 q 101 1074 87 1094 q 109 1050 109 1063 l 108 1041 q 156 700 110 879 q 281 355 203 520 q 430 88 349 209 q 614 -132 522 -48 q 750 -220 686 -197 q 776 -243 768 -227 q 780 -262 780 -252 q 755 -302 780 -291 q 736 -307 746 -307 z "},"]":{"ha":445,"x_min":0,"x_max":445,"o":"m 237 -304 q 198 -283 207 -304 q 171 -262 190 -262 q 137 -272 159 -262 q 81 -288 102 -288 q 39 -264 58 -288 q 35 -251 35 -258 q 43 -234 35 -239 q 58 -229 51 -229 q 75 -237 69 -229 q 84 -241 79 -241 q 120 -231 97 -241 q 165 -221 144 -221 q 204 -230 186 -221 q 273 267 273 -81 q 240 755 273 523 q 170 1027 210 977 q 136 1019 156 1019 q 82 1035 109 1019 q 46 1049 58 1049 q 38 1046 41 1049 q 23 1039 32 1039 q 7 1045 14 1039 q 0 1062 0 1051 q 5 1076 0 1069 q 45 1096 25 1096 q 103 1074 66 1096 q 144 1060 127 1060 q 168 1075 161 1063 q 208 1094 180 1094 q 240 1080 227 1094 q 393 770 338 977 q 445 353 445 572 q 362 -138 445 68 q 273 -288 326 -227 q 237 -304 260 -304 z "},"^":{"ha":311,"x_min":0,"x_max":311,"o":"m 22 890 q 9 895 16 890 q 0 913 0 900 q 17 935 0 930 q 57 983 33 937 q 80 1023 67 1003 q 159 1076 113 1072 q 214 1041 189 1076 q 237 999 226 1022 q 288 938 264 939 q 304 932 298 938 q 311 916 310 926 q 304 901 311 907 q 289 894 298 895 q 239 914 258 895 q 197 979 214 941 q 159 1030 173 1030 q 133 1003 145 1030 l 124 983 q 22 890 98 899 z "},"_":{"ha":677,"x_min":0,"x_max":677,"o":"m 339 -307 q 31 -212 193 -307 q 0 -160 0 -196 q 4 -138 0 -149 q 52 -104 18 -104 q 72 -109 62 -104 q 174 -133 92 -118 q 349 -149 258 -149 q 502 -131 426 -149 q 629 -73 578 -113 q 650 -58 636 -58 q 664 -62 657 -58 q 677 -86 677 -71 q 674 -100 677 -93 q 538 -249 616 -197 q 339 -307 446 -307 z "},"`":{"ha":222,"x_min":0,"x_max":222,"o":"m 156 956 q 113 968 133 956 q 58 1021 80 989 q 33 1061 43 1044 q 22 1074 26 1072 q 0 1101 0 1079 q 29 1129 0 1129 q 95 1091 57 1129 l 113 1075 q 139 1062 127 1062 q 157 1070 149 1062 l 164 1071 q 201 1057 184 1071 q 222 1013 222 1041 q 208 977 222 994 q 156 956 191 956 z "},"a":{"ha":695,"x_min":-12,"x_max":734,"o":"m 407 -365 q 318 -302 348 -365 q 296 -182 296 -249 q 307 -70 296 -139 q 247 -140 277 -113 q 126 -197 182 -197 q 40 -164 75 -197 q -12 -27 -12 -114 q 41 109 -12 52 q 133 166 79 149 q 203 177 167 177 q 361 134 274 177 l 361 136 q 411 183 378 170 q 442 189 427 189 q 479 181 460 189 q 526 132 513 165 q 531 100 531 116 q 524 64 531 82 q 500 18 517 50 q 383 -274 383 -197 q 416 -320 384 -320 q 449 -311 430 -320 q 541 -231 491 -290 q 691 32 621 -140 q 711 46 697 46 q 720 44 715 46 q 734 24 734 38 q 732 15 734 20 q 678 -102 706 -50 q 575 -260 626 -201 q 407 -365 485 -365 m 161 -137 q 331 51 221 -137 q 322 55 326 52 q 269 68 294 68 q 246 66 257 68 q 166 2 195 51 q 132 -96 132 -53 q 148 -133 132 -123 q 161 -137 153 -137 z "},"b":{"ha":753,"x_min":-24,"x_max":783,"o":"m 271 -429 q 158 -389 197 -429 q 132 -324 132 -362 q 220 -175 132 -252 q 398 -88 293 -112 l 406 -56 q 421 57 421 5 q 399 125 421 100 q 359 140 382 140 q 332 136 347 140 q 179 -55 241 104 q 149 -165 157 -112 q 138 -196 149 -185 q 106 -209 123 -209 q 63 -179 74 -209 q 16 -36 35 -115 q -24 302 -24 125 q 83 808 -24 600 q 283 1017 153 939 q 460 1065 366 1065 q 632 1003 568 1065 q 696 827 696 940 q 680 707 696 770 q 446 333 624 497 q 131 110 317 214 q 127 9 127 56 q 130 -60 127 -30 q 311 181 196 125 q 393 201 352 201 q 456 189 425 201 q 545 95 516 160 q 582 -52 576 30 q 745 41 688 -26 q 762 48 752 48 q 777 42 770 48 q 783 25 783 35 q 778 12 783 18 q 689 -59 740 -33 q 581 -97 631 -89 q 522 -277 573 -195 q 429 -374 485 -334 q 271 -429 345 -429 m 208 -361 q 320 -273 258 -361 q 382 -138 351 -229 q 249 -208 302 -162 q 178 -326 178 -273 q 189 -354 178 -344 q 208 -361 197 -361 m 136 163 q 637 720 551 406 q 653 832 653 776 q 604 972 653 926 q 533 1001 574 1001 q 382 916 460 1001 q 192 477 271 790 q 136 163 153 322 z "},"c":{"ha":441,"x_min":-31,"x_max":481,"o":"m 149 -352 q 43 -309 90 -352 q -31 -106 -31 -231 q -1 48 -31 -30 q 88 157 28 119 q 167 178 129 178 q 210 171 189 178 q 262 137 241 161 q 281 86 280 115 q 267 35 281 60 q 249 26 259 26 q 227 36 237 26 q 222 45 222 41 q 237 87 237 68 q 228 103 237 103 q 168 11 197 103 q 137 -151 144 -64 q 136 -185 136 -169 q 198 -301 136 -301 q 249 -280 223 -301 q 373 -114 313 -227 q 438 35 418 -26 q 459 50 443 50 q 481 28 481 47 l 481 22 q 414 -132 442 -77 q 270 -314 353 -256 q 149 -352 215 -352 z "},"d":{"ha":794,"x_min":-14,"x_max":937,"o":"m 549 -333 l 545 -333 q 443 -286 487 -333 q 372 -176 400 -241 q 328 -40 341 -108 l 328 -38 q 246 -132 292 -90 q 119 -191 178 -191 q 38 -157 72 -191 q -14 -20 -14 -108 q 40 115 -14 58 q 132 173 77 155 q 202 184 165 184 q 313 161 254 184 q 372 587 315 385 q 457 807 410 715 q 620 1010 534 951 q 754 1060 690 1060 q 788 1060 755 1060 q 867 1016 821 1059 q 935 865 924 964 q 937 828 937 846 q 928 742 937 785 q 486 98 867 460 q 482 4 482 72 q 492 -136 482 -69 q 557 -282 511 -265 q 566 -283 562 -283 q 672 -179 604 -283 q 741 -60 709 -121 q 789 37 783 24 q 808 49 795 49 q 819 46 814 49 q 831 26 831 39 q 817 -7 831 21 q 709 -200 760 -122 q 549 -333 633 -328 m 492 166 q 831 601 723 395 q 894 829 894 725 q 892 867 894 848 q 831 961 881 949 q 820 962 825 962 q 755 932 791 962 q 636 745 698 885 q 570 553 602 667 q 492 166 517 368 m 159 -130 q 318 38 215 -130 l 316 64 q 267 75 290 75 q 244 73 255 75 q 164 9 193 58 q 131 -90 131 -47 q 146 -126 131 -116 q 159 -130 152 -130 z "},"e":{"ha":438,"x_min":-33,"x_max":480,"o":"m 147 -356 q 42 -313 89 -356 q -33 -109 -33 -235 q 2 54 -33 -28 q 87 153 31 118 q 165 174 127 174 q 209 167 188 174 q 267 124 247 154 q 279 79 279 102 q 144 -87 279 6 q 136 -194 136 -149 q 172 -300 136 -283 q 196 -305 184 -305 q 229 -296 212 -305 q 371 -118 296 -258 q 437 31 416 -32 q 458 46 441 46 q 480 24 480 43 l 479 18 q 412 -137 443 -76 q 249 -330 344 -277 q 147 -356 200 -356 m 155 -24 q 214 33 191 3 q 236 83 236 61 q 226 99 236 99 q 195 75 216 99 q 155 -24 172 45 z "},"f":{"ha":574,"x_min":-24,"x_max":615,"o":"m 315 -983 q 194 -939 257 -983 q 13 -609 65 -838 q -24 -244 -24 -446 q 37 224 -24 12 q 151 456 75 359 q 359 570 249 570 q 463 531 421 570 q 505 427 505 492 q 481 330 505 384 q 215 78 406 172 q 179 -133 193 -26 q 281 -151 224 -151 q 415 -125 352 -151 q 572 33 524 -81 q 592 47 578 47 q 601 45 597 47 q 615 24 615 39 q 613 16 615 20 q 431 -166 555 -116 q 286 -195 361 -195 q 229 -191 256 -195 q 330 -314 286 -250 q 441 -526 393 -404 q 488 -751 488 -646 q 471 -859 488 -813 q 376 -971 440 -943 q 315 -983 347 -983 m 227 134 q 438 343 372 214 q 460 429 460 393 q 431 491 460 478 q 415 494 423 494 q 300 367 357 494 q 227 134 258 268 m 328 -926 q 353 -922 340 -926 q 420 -842 396 -905 q 436 -738 436 -799 q 397 -538 436 -642 q 294 -339 353 -423 q 172 -197 243 -265 q 156 -465 156 -345 q 248 -878 156 -754 q 328 -926 288 -926 z "},"g":{"ha":744,"x_min":-190,"x_max":785,"o":"m 35 -1084 q -44 -1073 -9 -1084 q -140 -1008 -105 -1053 q -190 -855 -190 -944 q 148 -424 -190 -599 q 281 -355 213 -389 q 354 -319 282 -355 q 376 -77 376 -196 q 371 29 376 -23 q 311 -67 351 -14 q 117 -197 211 -197 q 37 -164 68 -194 q -14 -27 -14 -115 q 39 109 -14 52 q 131 166 77 149 q 201 177 165 177 q 357 135 271 177 l 355 150 q 383 191 357 182 q 399 194 391 194 q 441 164 430 194 q 526 -221 511 4 q 602 -163 566 -194 q 741 34 708 -76 q 762 50 746 50 q 768 49 765 50 q 785 28 785 44 q 783 22 785 25 q 528 -272 732 -145 q 528 -323 528 -297 q 456 -739 528 -557 q 331 -947 410 -855 q 124 -1074 246 -1044 q 35 -1084 75 -1084 m 159 -137 q 214 -107 180 -137 q 329 51 264 -62 q 320 55 324 52 q 267 68 292 68 q 243 66 254 68 q 164 2 193 51 q 130 -96 130 -53 q 146 -133 130 -123 q 159 -137 151 -137 m -33 -1024 q 83 -970 17 -1024 q 256 -680 185 -880 q 345 -373 313 -528 q 161 -467 202 -446 q -108 -707 -41 -572 q -143 -863 -143 -781 q -112 -982 -143 -936 q -33 -1024 -83 -1024 z "},"h":{"ha":631,"x_min":-24,"x_max":696,"o":"m 363 -363 q 314 -349 334 -363 q 269 -224 269 -313 q 270 -197 269 -211 q 294 -79 278 -134 l 311 -16 q 336 96 336 63 q 315 134 336 134 q 254 88 292 134 q 179 -48 210 33 q 149 -158 157 -105 q 138 -189 149 -178 q 106 -202 124 -202 q 62 -172 73 -202 q 16 -29 35 -108 q -24 311 -24 133 q 83 814 -24 606 q 283 1023 153 945 q 460 1072 366 1072 q 631 1009 566 1072 q 696 834 696 947 q 680 714 696 777 q 617 557 658 631 q 445 340 549 435 q 131 117 318 221 q 127 22 127 67 q 130 -53 127 -20 q 220 117 162 43 q 351 189 280 189 q 410 170 384 189 q 473 33 471 124 q 443 -119 471 -50 q 418 -179 433 -146 q 376 -296 376 -264 q 378 -307 376 -300 q 389 -314 379 -314 q 427 -296 401 -314 q 629 37 526 -222 q 648 48 633 48 q 659 46 653 48 q 672 28 672 41 q 671 22 672 26 q 668 14 669 18 q 448 -335 562 -256 q 363 -363 406 -363 m 136 170 q 637 727 551 412 q 652 838 652 782 q 604 979 652 934 q 533 1008 574 1008 q 382 922 459 1008 q 280 751 328 861 q 136 170 172 494 z "},"i":{"ha":412,"x_min":-45,"x_max":453,"o":"m 109 -387 q 50 -372 77 -387 q -21 -295 5 -349 q -45 -181 -43 -248 q -18 -9 -45 -102 q 43 131 5 73 q 132 182 79 182 q 186 165 161 182 q 229 109 218 145 q 232 87 232 98 q 214 31 232 60 q 79 -203 120 -100 q 64 -277 64 -246 q 83 -329 64 -311 q 119 -342 97 -342 q 182 -321 149 -342 q 333 -142 259 -273 q 410 31 386 -47 q 420 43 412 39 q 431 46 425 46 q 453 25 453 43 l 452 18 q 208 -355 344 -267 q 109 -387 158 -387 m 194 181 l 200 198 q 208 260 208 218 l 206 311 q 221 373 206 353 q 259 393 235 393 q 287 384 274 393 q 305 346 305 372 q 297 306 305 329 q 336 319 318 319 q 365 311 351 319 q 382 271 382 298 q 321 217 382 232 l 285 210 q 194 181 216 202 z "},"j":{"ha":374,"x_min":-560,"x_max":414,"o":"m -336 -1084 q -414 -1073 -379 -1084 q -511 -1008 -475 -1053 q -560 -855 -560 -944 q -222 -424 -560 -599 q -16 -319 -149 -385 q 4 -103 3 -208 q -15 150 4 7 q 13 191 -13 182 q 29 194 21 194 q 51 189 38 194 q 106 64 74 180 q 155 -221 145 -64 q 232 -163 196 -194 q 370 34 337 -77 q 391 50 376 50 q 398 49 395 50 q 414 28 414 44 q 413 22 414 25 q 157 -272 361 -145 q 158 -323 158 -297 q 85 -739 158 -557 q -39 -947 40 -855 q -246 -1074 -124 -1044 q -336 -1084 -295 -1084 m -403 -1024 q -287 -970 -353 -1024 q -114 -680 -185 -880 q -26 -373 -57 -528 q -70 -395 -47 -385 q -209 -467 -141 -431 q -478 -707 -411 -572 q -513 -863 -513 -781 q -481 -982 -513 -935 q -403 -1024 -453 -1024 m 11 207 q -70 258 -5 233 l -104 274 q -149 330 -149 299 q -148 342 -149 336 q -104 378 -139 378 q -58 353 -80 378 l -58 365 q -10 430 -58 430 q 1 429 -4 430 q 38 375 38 419 q 32 335 38 358 q 18 288 25 312 q 9 232 9 253 q 11 207 9 227 z "},"k":{"ha":555,"x_min":-21,"x_max":699,"o":"m 321 -385 q 229 -293 254 -385 q 216 -153 216 -235 q 198 -59 216 -60 q 184 -72 193 -59 q 153 -165 159 -114 q 141 -196 152 -185 q 109 -209 127 -209 q 66 -179 77 -209 q -21 304 -21 32 q 86 808 -21 599 q 286 1017 155 939 q 464 1065 370 1065 q 635 1003 570 1065 q 699 827 699 940 q 683 707 699 770 q 448 333 627 497 q 134 110 317 212 q 130 19 130 62 q 133 -60 130 -23 l 141 -39 q 223 110 174 47 q 295 168 258 151 q 302 170 298 170 q 311 166 306 170 q 319 143 319 159 q 311 126 319 130 q 258 82 291 121 q 201 -12 226 43 q 230 -7 215 -7 q 325 -159 325 -12 q 321 -218 325 -180 q 319 -274 319 -248 q 338 -335 319 -335 q 368 -319 349 -335 q 485 -134 420 -275 q 551 31 526 -43 q 572 46 555 46 q 578 45 575 46 q 594 24 594 40 q 569 -48 594 16 q 321 -385 442 -385 m 139 163 q 640 720 551 404 q 656 831 656 775 q 608 972 656 927 q 536 1001 577 1001 q 386 916 463 1001 q 195 477 273 790 q 139 163 151 300 z "},"l":{"ha":475,"x_min":-7,"x_max":618,"o":"m 231 -333 l 226 -333 q 124 -286 168 -333 q 42 -155 71 -230 q -5 88 0 -43 q -7 154 -7 121 q 58 602 -7 378 q 138 807 90 710 q 301 1010 215 951 q 435 1060 372 1060 q 470 1060 437 1060 q 549 1016 503 1059 q 616 865 605 964 q 618 827 618 846 q 555 587 618 713 q 167 98 435 351 l 167 93 q 163 10 163 51 q 174 -136 163 -67 q 239 -282 193 -265 q 248 -283 243 -283 q 354 -179 286 -283 q 422 -60 391 -121 q 471 37 465 24 q 490 49 478 49 q 500 46 495 49 q 513 26 513 39 q 510 16 513 22 q 391 -200 453 -104 q 231 -333 314 -328 m 174 166 q 512 601 404 393 q 567 751 550 674 q 576 830 576 791 q 574 867 576 848 q 513 961 562 949 q 502 962 507 962 q 318 745 414 962 q 252 553 283 667 q 174 166 201 375 z "},"m":{"ha":813,"x_min":-22,"x_max":852,"o":"m 566 -351 q 490 -287 511 -351 q 483 -229 483 -258 l 484 -208 q 513 -75 486 -161 q 541 52 541 24 q 525 83 541 83 q 469 34 507 83 q 374 -125 421 -31 q 320 -252 328 -220 q 314 -269 320 -262 q 297 -276 307 -276 q 273 -260 281 -276 q 261 -205 261 -236 q 283 -81 261 -159 l 294 -43 q 323 100 323 56 q 298 146 323 146 q 237 107 276 146 q 92 -155 152 14 q 63 -264 63 -231 l 63 -269 q 54 -294 63 -283 q 28 -304 44 -304 q 3 -295 14 -304 q -8 -271 -7 -286 q -22 -117 -22 -206 q 2 63 -22 -26 q 86 214 27 152 q 141 234 115 234 q 158 233 143 234 q 192 215 172 232 q 223 155 219 191 q 326 201 275 201 q 365 191 347 201 q 419 114 406 170 q 423 71 423 92 q 421 42 423 56 q 434 60 427 52 q 558 136 497 136 q 572 134 566 136 q 624 100 607 127 q 646 21 646 65 q 602 -136 646 -37 l 581 -188 q 559 -283 560 -240 q 581 -319 559 -319 q 668 -245 612 -319 q 727 -151 699 -202 q 809 31 785 -44 q 830 46 814 46 q 852 24 852 43 l 852 18 q 762 -171 818 -71 q 620 -335 696 -290 q 566 -351 593 -351 z "},"n":{"ha":591,"x_min":-21,"x_max":631,"o":"m 342 -351 q 327 -350 334 -351 q 257 -237 260 -336 q 295 -22 257 -165 q 322 114 322 79 q 302 148 322 148 q 238 107 279 148 q 93 -155 153 14 q 64 -264 64 -231 l 64 -269 q 54 -294 64 -283 q 28 -304 45 -304 q 4 -295 15 -304 q -7 -271 -6 -286 q -21 -113 -21 -206 q 3 64 -21 -24 q 87 214 28 152 q 142 234 116 234 q 158 233 144 234 q 193 215 173 232 q 224 155 220 191 q 328 201 274 201 q 376 187 355 201 q 424 80 424 155 q 403 -50 424 20 q 362 -178 388 -102 q 338 -280 338 -251 q 339 -295 338 -285 q 347 -314 340 -306 q 359 -319 351 -319 q 383 -311 368 -319 q 506 -151 435 -279 q 588 31 564 -44 q 609 46 593 46 q 631 24 631 43 l 631 18 q 541 -171 597 -71 q 399 -335 475 -290 q 342 -351 369 -351 z "},"o":{"ha":530,"x_min":-29,"x_max":562,"o":"m 146 -347 q 58 -317 100 -347 q -22 -183 -1 -277 q -29 -109 -29 -147 q -17 -7 -29 -59 q 22 90 -4 45 q 87 165 47 135 q 210 211 151 211 q 229 210 220 211 q 359 125 317 197 q 385 32 385 83 q 366 -56 385 -12 q 351 -65 360 -65 q 343 -64 347 -65 q 334 -49 334 -60 q 335 -41 334 -45 q 351 31 351 -3 q 332 103 351 75 q 289 127 315 127 q 203 78 249 127 q 136 -36 157 28 q 113 -170 113 -114 q 136 -273 113 -237 q 186 -304 156 -304 q 250 -260 219 -304 q 281 -194 268 -235 l 267 -189 q 201 -132 224 -171 q 185 -74 185 -100 q 189 -49 185 -61 q 262 14 209 9 q 319 -27 300 14 q 331 -94 331 -58 q 323 -165 331 -130 q 451 -92 394 -159 q 530 37 499 -37 q 545 47 535 47 q 552 45 548 47 q 562 31 562 41 q 538 -23 562 22 q 393 -180 477 -136 q 315 -199 357 -198 q 277 -277 300 -245 q 146 -347 223 -347 m 290 -161 q 298 -90 298 -126 q 290 -37 298 -60 q 271 -18 281 -18 q 246 -37 258 -18 q 234 -79 234 -55 q 240 -114 234 -95 q 290 -161 254 -151 z "},"p":{"ha":707,"x_min":-109,"x_max":734,"o":"m 111 -1002 q 98 -1001 108 -1002 q 75 -985 87 -1000 q 28 -925 50 -958 q -94 -603 -63 -792 q -109 -415 -109 -511 q -18 12 -109 -173 q 86 153 24 97 q 114 165 98 165 q 136 158 125 165 q 149 130 149 146 q 142 108 149 119 q 35 -317 52 -67 q 73 -170 50 -236 q 169 28 120 -37 q 263 127 216 93 q 388 174 330 174 q 422 170 406 174 q 547 45 513 146 q 559 -34 559 9 q 556 -78 559 -55 q 701 37 660 -36 q 715 47 705 47 q 724 44 720 47 q 734 29 734 39 q 707 -16 734 16 q 548 -120 652 -81 q 536 -159 543 -139 q 418 -328 489 -277 q 272 -380 349 -380 q 227 -375 248 -380 q 142 -288 142 -352 q 155 -245 142 -267 q 287 -159 185 -188 l 356 -140 q 383 -2 383 -56 q 357 91 383 63 q 323 106 343 106 q 198 7 270 106 q 107 -177 153 -54 q 56 -444 66 -289 q 55 -500 55 -472 q 85 -766 55 -632 q 121 -886 100 -831 q 144 -930 132 -913 q 154 -958 154 -943 q 153 -970 154 -960 q 138 -992 152 -980 q 111 -1002 125 -1002 m 208 -318 q 229 -315 217 -318 q 309 -239 266 -305 q 340 -181 325 -215 q 229 -220 265 -201 q 191 -260 203 -236 q 181 -291 181 -277 q 208 -318 181 -318 z "},"q":{"ha":631,"x_min":-10,"x_max":663,"o":"m 270 -983 q 125 -913 190 -983 q 58 -703 58 -835 q 124 -381 58 -567 q 216 -157 169 -252 q 119 -191 169 -191 q 0 -94 28 -184 q -10 -28 -10 -62 q -3 33 -10 -7 q 42 115 4 73 q 149 177 85 161 q 205 184 178 184 q 361 142 271 184 q 392 123 386 131 q 414 132 402 132 q 437 124 427 132 q 450 96 450 113 q 443 75 450 85 q 399 -18 429 56 q 333 -210 369 -96 l 332 -214 q 499 -130 427 -184 q 629 37 595 -60 q 645 49 633 49 q 663 31 663 46 l 663 26 q 520 -159 625 -83 q 319 -255 433 -223 l 317 -263 q 368 -340 345 -296 q 445 -552 419 -433 q 466 -730 466 -646 q 456 -819 466 -780 q 401 -925 439 -886 q 270 -983 346 -983 m 329 -926 q 378 -903 355 -926 q 422 -811 408 -875 q 431 -722 431 -772 q 410 -560 431 -648 q 374 -439 397 -497 q 305 -305 345 -362 q 228 -726 228 -587 q 245 -846 228 -793 q 329 -926 276 -926 m 161 -130 q 332 58 220 -130 q 309 70 321 64 q 277 76 296 76 q 246 73 263 76 q 167 9 196 58 q 133 -89 133 -46 q 149 -126 133 -116 q 161 -130 154 -130 z "},"r":{"ha":572,"x_min":-75,"x_max":614,"o":"m 269 -389 q 229 -382 248 -389 q 127 -259 154 -355 q 117 -181 117 -221 q 137 -59 117 -125 q 182 58 155 3 l 142 43 q 47 25 94 25 l 28 26 q -62 92 -30 29 q -75 155 -75 123 q -59 227 -75 191 q -21 277 -43 260 q 22 293 1 293 q 42 290 27 293 q 72 256 58 288 q 81 201 81 235 q 51 66 81 150 l 54 66 q 220 123 111 66 q 233 140 227 132 q 321 192 278 192 q 382 168 356 192 q 412 92 412 138 q 387 26 412 58 q 295 -125 348 -25 q 249 -283 249 -212 q 290 -347 249 -347 q 393 -281 326 -347 q 494 -142 445 -227 q 570 31 547 -47 q 581 43 573 39 q 591 46 586 46 q 614 25 614 43 q 588 -43 614 18 q 420 -314 517 -213 q 269 -389 342 -389 m 9 80 l 21 117 q 35 184 35 163 q 27 205 34 205 q 6 186 18 205 q -12 126 -12 159 q 9 80 -12 96 z "},"s":{"ha":436,"x_min":-26,"x_max":476,"o":"m 135 -610 q 3 -564 49 -610 q -26 -486 -26 -534 q 68 -309 -26 -399 q 147 -241 106 -275 q 37 -87 76 -160 q 0 37 9 -33 q -2 67 -2 52 q 31 180 -2 136 q 102 217 63 217 q 182 164 155 217 q 194 102 194 139 q 164 -17 194 54 q 276 -139 249 -106 q 433 38 397 -41 q 453 52 439 52 q 463 50 458 52 q 476 29 476 44 q 474 20 476 25 q 304 -174 435 -67 q 393 -386 393 -286 q 389 -431 393 -408 q 256 -583 366 -535 q 135 -610 195 -610 m 131 19 q 150 106 150 70 q 143 146 150 130 q 100 180 128 180 q 73 163 84 180 q 66 139 66 154 q 88 73 66 105 q 131 19 106 47 m 125 -563 q 230 -529 182 -563 q 269 -445 269 -499 q 234 -348 269 -395 q 176 -275 218 -326 q 98 -342 135 -309 q 41 -413 60 -378 q 18 -486 18 -454 q 38 -534 18 -516 q 125 -563 69 -563 z "},"t":{"ha":465,"x_min":-259,"x_max":779,"o":"m 212 -358 l 204 -358 q 95 -292 146 -358 q 24 -115 48 -227 q -1 115 -1 -4 q 159 722 2 456 q -30 774 47 774 q -115 760 -73 774 q -221 686 -170 741 q -238 680 -227 680 q -252 686 -245 680 q -259 703 -259 692 q -254 717 -259 710 q -136 802 -195 779 q -30 821 -83 821 q 182 760 57 821 q 389 972 266 886 q 562 1057 467 1026 q 574 1058 568 1058 q 598 1050 585 1058 q 617 1014 617 1039 q 583 970 617 981 q 356 673 473 901 q 510 623 434 635 q 547 619 528 619 q 740 721 655 619 q 757 729 747 729 q 772 723 764 729 q 779 707 779 717 q 774 692 779 699 q 549 572 674 572 q 500 577 525 572 q 336 634 419 592 q 232 381 267 490 q 140 -119 140 86 q 161 -257 140 -206 q 222 -309 186 -309 q 278 -288 250 -309 q 463 31 380 -205 q 484 45 468 45 q 491 44 488 45 q 506 23 506 39 q 505 16 506 20 q 302 -323 414 -241 q 212 -358 260 -355 z "},"u":{"ha":695,"x_min":-10,"x_max":728,"o":"m 451 -371 q 372 -332 405 -371 q 327 -173 327 -278 l 327 -159 q 241 -275 284 -237 q 143 -321 190 -321 q 42 -259 85 -321 q -7 -115 5 -204 q -10 -58 -10 -87 q 75 220 -10 114 q 132 247 100 247 q 156 245 136 247 q 206 218 176 243 q 248 151 239 191 q 250 134 250 142 q 225 75 250 104 q 165 -64 203 50 q 132 -214 132 -163 q 166 -272 132 -272 q 218 -245 189 -272 q 366 18 309 -154 q 420 145 390 81 q 476 176 434 176 q 528 163 503 176 q 570 104 570 141 q 564 76 570 91 q 543 33 558 62 q 510 -35 528 3 q 442 -202 469 -117 q 432 -271 432 -242 q 435 -298 432 -286 q 471 -334 444 -334 q 564 -258 511 -334 q 657 -77 619 -174 q 693 32 687 -4 q 710 47 696 47 q 725 39 720 47 q 728 27 728 34 q 692 -91 720 -20 q 594 -275 654 -189 q 451 -371 523 -371 z "},"v":{"ha":552,"x_min":-10,"x_max":584,"o":"m 140 -320 l 134 -320 q 42 -259 80 -314 q -7 -115 5 -204 q -10 -58 -10 -87 q 76 220 -10 114 q 132 247 101 247 q 156 245 136 247 q 206 218 176 243 q 249 151 239 191 q 251 134 251 143 q 225 75 251 104 q 165 -64 203 50 q 132 -214 132 -163 q 169 -273 132 -273 q 201 -260 184 -273 q 266 -188 235 -236 q 314 -106 287 -156 q 309 -100 311 -104 q 262 38 262 -44 q 270 104 262 72 q 308 180 283 153 q 368 212 338 212 q 426 142 415 212 q 427 123 427 133 q 374 -66 427 47 l 359 -98 q 398 -111 378 -111 q 550 38 479 -111 q 566 48 556 48 q 574 47 570 48 q 584 31 584 41 q 583 23 584 27 q 399 -146 500 -146 q 342 -130 371 -146 q 300 -204 319 -174 q 140 -320 224 -320 m 331 -73 l 340 -54 q 391 125 391 58 q 391 138 391 132 q 365 173 386 173 q 336 156 351 173 q 305 96 317 136 q 297 37 297 67 q 331 -73 297 -26 z "},"w":{"ha":885,"x_min":-9,"x_max":918,"o":"m 469 -321 q 389 -273 423 -321 q 351 -126 355 -225 q 351 -121 351 -124 q 142 -320 248 -320 q 43 -259 84 -319 q -5 -115 5 -204 q -9 -58 -9 -87 q 77 220 -9 115 q 133 247 102 247 q 157 245 136 247 q 207 218 177 243 q 250 151 240 191 q 252 134 252 142 q 226 75 252 104 q 166 -64 205 50 q 134 -214 134 -160 q 170 -273 134 -273 q 202 -260 186 -273 q 326 -90 264 -216 q 333 -72 327 -85 q 347 -41 340 -58 q 359 -14 354 -24 q 362 -5 362 -7 q 418 27 382 27 q 466 3 448 27 q 479 -35 479 -14 q 473 -73 479 -44 q 458 -193 458 -152 q 500 -273 458 -273 q 542 -255 519 -273 q 606 -178 576 -224 q 647 -106 635 -132 q 595 39 595 -48 q 604 104 595 72 q 641 180 616 153 q 701 212 671 212 q 760 142 749 212 q 761 123 761 133 q 748 39 761 88 q 692 -98 734 -12 q 732 -111 712 -111 q 884 38 813 -111 q 900 48 889 48 q 907 47 903 48 q 918 31 918 41 q 916 23 918 27 q 732 -146 834 -146 q 676 -130 703 -146 q 469 -321 578 -321 m 665 -73 l 673 -54 q 725 125 725 56 q 724 138 725 132 q 699 173 720 173 q 669 156 685 173 q 638 96 650 136 q 630 38 630 68 q 665 -73 630 -26 z "},"x":{"ha":503,"x_min":-7,"x_max":537,"o":"m 42 -327 l 39 -327 q 19 -290 19 -327 q 26 -250 19 -268 q 115 -153 52 -196 q 155 -125 134 -139 q 145 -77 148 -92 q 117 29 136 -24 q 50 109 84 109 q 32 95 39 109 q 28 75 28 87 l 29 62 q 62 7 32 37 q 68 -5 67 2 q 63 -18 68 -12 q 51 -24 58 -24 q 18 3 37 -24 q -7 73 -7 35 q 2 116 -7 96 q 117 189 38 189 q 195 163 158 189 q 249 101 229 138 q 290 -23 280 41 q 313 4 302 -9 q 347 105 347 50 q 344 138 347 121 q 361 155 345 155 q 374 150 369 155 q 380 138 379 145 q 386 83 386 109 q 299 -96 386 -21 q 354 -267 319 -267 q 454 -110 389 -267 q 503 36 487 -28 q 519 50 505 50 q 537 33 537 47 q 519 -34 537 20 q 401 -281 452 -231 q 313 -323 361 -323 q 184 -216 235 -323 q 172 -184 177 -199 l 142 -202 q 56 -306 58 -254 l 56 -309 q 42 -327 56 -324 z "},"y":{"ha":812,"x_min":-119,"x_max":855,"o":"m 105 -1084 q 26 -1073 62 -1084 q -70 -1008 -35 -1053 q -119 -855 -119 -944 q 218 -424 -119 -599 q 425 -319 283 -389 q 445 -103 444 -212 q 431 107 445 -12 q 382 -35 406 56 q 333 -186 362 -112 q 248 -310 303 -260 q 153 -348 203 -348 q 27 -242 70 -348 q -8 -47 -8 -157 q 56 186 -8 111 q 133 218 90 218 q 207 189 174 218 q 240 112 240 155 q 210 38 240 71 q 174 -38 191 17 q 142 -170 154 -94 q 136 -229 136 -202 q 178 -305 136 -305 q 227 -282 200 -305 q 300 -172 273 -239 q 347 -29 328 -104 q 348 -27 348 -28 q 386 92 366 37 q 427 166 406 138 q 476 194 448 194 q 512 164 500 194 q 596 -221 582 -3 q 673 -163 637 -194 q 811 34 779 -76 q 832 50 817 50 q 839 49 836 50 q 855 28 855 44 q 854 22 855 25 q 598 -272 802 -145 q 599 -323 599 -297 q 526 -739 599 -557 q 401 -947 481 -855 q 195 -1074 317 -1044 q 105 -1084 146 -1084 m 38 -1024 q 154 -970 87 -1024 q 327 -680 256 -880 q 415 -373 384 -528 q 371 -395 393 -385 q 232 -467 300 -431 q -37 -707 30 -572 q -73 -863 -73 -781 q -41 -982 -73 -936 q 38 -1024 -12 -1024 z "},"z":{"ha":612,"x_min":-142,"x_max":643,"o":"m 88 -1021 q -117 -927 -64 -1019 q -142 -829 -142 -883 q -136 -779 -142 -805 q -56 -614 -119 -694 q 159 -410 20 -521 q 144 -410 152 -410 q 117 -412 132 -410 l 111 -412 q 88 -406 99 -412 q 66 -368 66 -392 q 68 -352 66 -362 q 85 -331 70 -342 q 182 -185 151 -254 q 219 -47 219 -106 q 193 52 219 17 q 132 87 166 87 q 81 50 100 87 q 68 -5 71 28 l 69 -10 q 61 -32 69 -22 q 33 -45 51 -45 q 11 -37 21 -45 q -1 -13 1 -28 q -3 19 -3 3 q 3 68 -3 45 q 48 148 16 115 q 197 211 110 211 q 249 205 214 211 q 317 159 283 199 q 346 71 346 120 q 345 39 346 68 q 322 -44 345 11 q 228 -213 279 -145 q 144 -318 193 -262 l 185 -317 q 266 -324 231 -317 q 473 -148 394 -224 q 608 37 576 -49 q 625 48 612 48 q 643 31 643 46 q 642 24 643 27 q 499 -172 606 -69 q 309 -336 432 -238 q 435 -432 393 -367 q 482 -599 482 -505 q 470 -696 482 -647 q 329 -931 432 -840 q 88 -1021 230 -1018 m -5 -940 q 71 -927 26 -940 q 277 -674 239 -873 q 284 -600 284 -635 q 201 -421 284 -464 q 92 -513 144 -467 q -33 -642 20 -577 q -101 -785 -83 -708 q -107 -834 -107 -811 q -85 -908 -107 -878 q -5 -940 -61 -940 z "},"{":{"ha":336,"x_min":0,"x_max":336,"o":"m 197 -300 q 51 -121 62 -300 q 48 -39 48 -81 q 52 72 48 14 q 56 201 56 140 q 20 374 56 324 q 0 405 0 386 q 19 437 0 425 q 46 582 46 452 q 55 779 46 682 q 291 1071 83 1065 q 322 1059 309 1071 q 336 1027 335 1046 q 324 996 336 1008 q 293 982 312 983 q 281 984 287 984 q 231 912 252 984 q 195 734 210 837 q 163 573 181 652 q 103 412 142 471 q 83 389 94 399 q 156 216 149 323 q 158 159 158 188 q 144 -11 158 101 q 132 -145 132 -96 q 149 -224 132 -195 q 208 -254 167 -254 q 225 -252 216 -254 q 242 -258 235 -252 q 249 -275 249 -264 q 244 -290 249 -283 q 197 -300 236 -300 z "},"|":{"ha":326,"x_min":0,"x_max":326,"o":"m 288 -305 q 261 -295 273 -305 q 153 -165 199 -236 q 37 98 75 -45 q 0 385 0 237 q 50 732 0 564 q 197 1041 101 905 q 229 1057 210 1057 q 252 1050 241 1057 q 268 1018 268 1037 q 260 996 268 1006 q 176 707 202 863 q 150 410 150 559 q 172 123 150 257 q 238 -119 195 -19 q 315 -239 271 -197 q 326 -268 326 -250 q 315 -294 326 -282 q 288 -305 304 -305 z "},"}":{"ha":336,"x_min":0,"x_max":336,"o":"m 140 -300 q 92 -289 100 -300 q 87 -275 87 -283 q 94 -258 87 -264 q 109 -252 101 -252 l 127 -254 q 205 -145 205 -254 q 193 -11 205 -104 q 178 164 178 104 q 180 216 178 190 q 254 389 187 323 q 233 412 243 399 q 172 573 194 471 q 137 761 153 660 q 105 912 123 850 q 55 984 83 984 q 43 982 50 984 q 12 996 24 983 q 0 1027 0 1008 q 14 1059 1 1046 q 45 1071 26 1071 q 138 1051 99 1069 q 281 779 262 990 q 290 608 290 690 l 290 574 q 317 437 290 450 q 336 404 336 425 q 316 374 336 385 q 280 199 280 327 q 283 71 280 138 q 288 -39 288 14 q 285 -121 288 -81 q 140 -300 275 -299 z "},"~":{"ha":648,"x_min":0,"x_max":648,"o":"m 426 -14 q 372 -10 399 -14 q 216 22 294 1 q 97 43 136 43 q 55 27 68 43 q 29 9 46 9 q 16 13 22 9 q 0 44 0 24 q 3 60 0 52 q 76 155 33 126 q 182 184 119 184 q 347 152 243 184 l 389 140 q 505 121 451 121 q 595 150 558 121 q 618 165 604 165 q 635 159 627 165 q 648 130 648 149 q 644 111 648 121 q 541 7 604 34 q 426 -14 486 -14 z "},"¡":{"ha":646,"x_min":0,"x_max":646,"o":"m 118 -304 q 64 -264 85 -304 q 0 22 0 -144 q 92 407 0 227 q 256 608 154 528 q 396 681 318 656 l 404 682 q 422 675 413 682 q 437 655 432 668 q 440 640 440 647 q 436 622 440 632 q 413 606 433 611 q 330 546 369 591 q 218 349 265 471 q 151 105 173 231 q 134 -69 134 12 q 161 -227 134 -170 q 168 -255 168 -242 q 135 -301 168 -289 q 118 -304 127 -304 m 595 641 q 544 650 574 641 q 475 663 497 663 q 449 659 462 663 q 492 732 471 674 q 506 763 500 752 q 557 804 526 804 q 568 802 562 804 q 597 764 597 794 q 577 723 597 745 q 596 725 587 725 q 614 722 606 725 q 646 684 646 713 l 645 678 q 595 641 637 641 z "},"¢":{"ha":953,"x_min":0,"x_max":953,"o":"m 538 -460 q 524 -454 530 -460 q 446 -296 473 -403 q 291 -268 365 -296 q 63 -65 141 -209 q 0 221 0 57 q 3 286 0 253 q 94 652 18 476 q 444 1066 222 953 q 616 1107 531 1107 q 781 1063 711 1107 q 920 1101 844 1101 l 932 1101 q 953 1080 953 1099 q 946 1063 953 1069 q 930 1057 939 1057 q 819 1034 866 1057 q 890 862 890 967 q 883 798 890 831 q 809 640 864 711 q 704 552 766 585 q 610 531 659 531 q 528 549 564 531 q 457 9 457 278 q 479 -248 457 -134 q 587 -228 536 -248 q 743 -123 672 -193 q 870 65 832 -37 q 891 80 876 80 q 899 79 895 80 q 913 57 913 73 q 912 50 913 54 q 772 -158 865 -69 q 490 -294 647 -276 q 555 -422 514 -380 q 562 -438 562 -429 q 555 -453 562 -447 q 538 -460 548 -460 m 503 621 q 541 730 519 677 q 510 705 522 720 q 494 659 494 683 q 503 621 494 638 m 610 564 q 689 583 652 564 q 776 658 741 611 q 843 806 826 724 q 848 855 848 831 q 781 1010 848 958 q 637 833 701 951 q 660 818 651 829 q 669 790 669 806 q 655 759 668 771 q 624 747 643 747 q 595 745 608 747 q 537 581 557 654 q 610 564 567 564 m 433 -241 q 413 9 413 -127 q 490 579 413 295 q 461 661 461 614 q 476 728 461 694 q 538 804 496 772 q 585 829 559 821 q 736 1032 652 964 q 692 1038 716 1038 q 525 963 606 1038 q 303 583 405 844 q 218 255 242 425 q 211 149 211 200 q 267 -100 211 1 q 433 -241 328 -214 z "},"£":{"ha":850,"x_min":0,"x_max":850,"o":"m 772 -301 q 732 -278 746 -301 q 669 -212 710 -237 q 484 -168 593 -168 q 336 -185 408 -168 q 178 -256 229 -211 q 168 -261 174 -260 q 151 -266 159 -266 q 132 -260 141 -266 q 115 -230 115 -250 q 121 -212 115 -220 q 193 -54 174 -140 q 210 110 210 24 q 189 377 210 209 l 180 377 q 36 321 102 377 q 23 317 30 317 q 5 324 12 317 q 0 338 0 331 q 7 355 0 349 q 178 423 88 423 l 183 423 q 166 648 166 557 q 208 880 166 787 q 361 1035 250 980 q 497 1065 428 1065 q 753 937 653 1065 q 839 730 814 853 l 839 726 q 835 713 839 720 q 817 705 829 705 q 795 722 800 705 q 717 910 771 838 q 583 1009 656 988 q 535 1016 558 1016 q 439 975 481 1016 q 389 817 389 925 q 402 639 389 739 q 420 391 416 524 l 419 350 q 421 349 420 350 q 423 349 422 349 q 651 278 566 278 q 813 342 739 278 q 827 348 820 348 q 844 341 838 348 q 850 326 850 334 l 850 320 q 842 309 850 315 q 652 232 755 232 q 418 302 560 232 q 250 -169 403 33 q 515 -127 370 -127 q 695 -153 614 -127 q 810 -236 777 -178 q 816 -257 816 -246 q 792 -296 816 -283 q 772 -301 783 -301 z "},"¤":{"ha":1305,"x_min":0,"x_max":1305,"o":"m 45 -109 q 28 -101 34 -109 q 23 -87 23 -94 q 31 -69 23 -77 l 289 131 q 153 345 153 215 q 224 517 153 434 l 8 684 q 0 703 0 692 q 5 716 0 709 q 22 724 11 724 q 35 720 29 724 l 256 549 q 435 643 330 612 q 660 675 541 675 q 870 646 769 675 q 1043 559 971 617 l 1048 555 l 1270 728 q 1284 732 1276 732 q 1299 725 1293 732 q 1305 711 1305 718 q 1297 692 1305 699 l 1079 524 q 1135 381 1135 455 q 1123 311 1135 347 q 987 153 1092 221 l 1252 -52 q 1261 -68 1261 -59 q 1256 -83 1261 -76 q 1238 -92 1249 -92 q 1225 -87 1231 -92 l 945 130 q 606 58 797 58 q 333 109 456 58 l 58 -104 q 45 -109 52 -109 m 603 103 q 808 126 712 103 q 977 255 977 166 q 972 283 977 269 q 891 381 953 336 q 661 461 781 461 q 418 368 530 461 q 347 281 370 327 q 332 227 332 254 q 335 199 332 219 q 373 153 338 178 q 603 103 445 103 z "},"¥":{"ha":875,"x_min":0,"x_max":875,"o":"m 307 -274 q 106 -218 192 -274 q 1 -68 26 -164 q 0 -61 0 -64 q 3 -51 0 -56 q 21 -40 8 -40 q 41 -54 36 -40 q 132 -182 71 -137 q 248 -222 186 -222 q 305 -214 276 -222 q 516 72 446 -170 q 483 78 500 78 q 395 32 434 78 q 387 28 392 28 q 378 34 381 28 q 374 45 374 39 q 378 60 374 55 q 483 115 426 115 q 526 106 505 115 q 549 193 545 177 q 482 212 511 212 q 395 165 435 212 q 387 161 392 161 q 378 167 381 161 q 374 178 374 173 q 378 193 374 188 q 481 248 425 248 q 503 247 484 248 q 556 227 522 245 q 594 467 587 381 q 621 673 605 566 q 401 304 519 448 q 269 195 340 231 q 186 174 227 174 q 47 338 79 174 q 37 459 37 399 q 90 770 37 572 q 130 962 130 927 q 120 988 130 983 q 89 1020 98 998 q 85 1041 85 1030 q 90 1065 85 1053 q 143 1100 106 1100 q 167 1095 155 1100 q 287 880 287 1054 q 283 817 287 849 q 229 547 267 682 q 191 323 191 399 q 214 239 191 253 q 234 233 223 233 q 253 237 243 233 q 366 330 301 254 q 564 649 468 450 q 672 941 633 793 q 673 943 672 943 q 709 1067 687 996 q 735 1103 715 1091 q 765 1111 749 1111 q 816 1082 798 1111 q 824 1053 824 1068 q 822 1038 824 1046 q 800 920 807 980 q 785 604 785 812 q 783 424 785 497 q 733 133 777 280 q 759 130 746 130 l 774 131 q 853 182 814 136 q 863 187 857 187 q 875 168 875 186 q 842 125 873 153 q 758 92 800 92 q 722 98 740 92 q 689 15 713 68 l 700 10 q 758 -3 728 -3 q 853 49 808 -3 q 861 54 857 54 q 871 47 867 54 q 875 35 875 41 q 842 -7 873 20 q 759 -41 802 -41 q 694 -26 726 -41 l 674 -16 q 548 -185 625 -117 q 307 -274 455 -269 z "},"¦":{"ha":209,"x_min":0,"x_max":209,"o":"m 136 -241 q 116 -235 125 -241 q 17 -127 40 -192 q 0 -25 0 -79 q 43 190 0 50 q 71 317 71 271 q 58 357 71 344 q 40 382 40 366 q 45 397 40 389 q 75 410 56 410 q 93 406 84 410 q 183 331 158 374 q 209 235 209 289 q 170 60 209 170 l 156 18 q 132 -111 132 -51 q 157 -188 132 -153 q 171 -213 171 -198 q 164 -229 171 -222 q 136 -241 154 -241 m 136 406 q 116 412 125 406 q 17 519 40 455 q 0 622 0 568 q 6 688 0 654 q 47 848 26 793 q 71 964 71 928 q 58 1004 71 991 q 40 1029 40 1013 q 45 1044 40 1036 q 75 1057 56 1057 q 93 1053 84 1057 q 183 978 158 1021 q 209 882 209 936 q 170 707 209 817 l 156 665 q 132 536 132 596 q 157 459 132 494 q 171 434 171 449 q 164 418 171 425 q 136 406 154 406 z "},"§":{"ha":521,"x_min":0,"x_max":521,"o":"m 291 429 q 279 439 286 434 l 248 467 q 174 538 210 501 q 105 627 132 579 q 76 741 76 681 q 85 800 76 771 q 186 899 109 869 q 281 916 231 916 q 351 906 316 916 q 434 868 396 894 q 496 805 473 842 q 521 724 521 767 q 493 640 521 677 q 419 592 465 604 q 393 589 406 589 q 320 610 354 589 q 264 703 264 644 q 278 762 264 734 q 310 803 291 787 q 361 823 334 823 q 385 819 373 823 q 397 801 397 813 q 396 793 397 797 q 378 781 391 781 q 371 783 374 781 q 347 787 359 787 q 320 781 333 787 q 294 753 304 771 q 282 707 282 732 q 329 627 282 656 q 393 608 359 608 q 415 611 404 608 q 478 652 454 621 q 501 724 501 684 q 497 756 501 740 q 423 850 481 813 q 345 884 387 873 q 294 890 319 890 q 199 867 246 890 q 154 830 170 851 q 138 785 138 808 q 185 691 138 743 q 302 580 224 648 q 360 529 338 551 q 474 326 474 418 q 430 230 474 270 q 281 180 372 180 q 230 186 254 180 q 241 175 235 180 q 347 77 321 103 q 445 -126 445 -21 q 334 -284 445 -241 q 239 -301 289 -301 q 86 -253 157 -301 q 24 -190 48 -227 q 0 -109 0 -152 q 28 -25 0 -62 q 102 22 56 11 q 128 25 115 25 q 201 5 167 25 q 257 -88 257 -30 q 243 -147 257 -119 q 210 -188 230 -172 q 159 -208 186 -208 q 123 -186 123 -208 q 125 -179 123 -182 q 142 -167 130 -167 q 150 -168 146 -167 q 174 -173 162 -173 q 227 -139 208 -173 q 239 -92 239 -118 q 192 -12 239 -41 q 128 6 162 6 q 43 -37 76 6 q 19 -109 19 -68 q 24 -141 19 -125 q 97 -236 39 -199 q 227 -275 159 -275 q 321 -252 275 -275 q 382 -171 382 -219 q 336 -77 382 -128 q 218 35 297 -33 q 161 86 183 64 q 47 289 47 197 q 91 385 47 345 q 239 434 149 434 q 291 429 267 434 m 193 223 q 279 203 232 203 q 304 204 288 203 q 342 214 321 205 q 383 257 372 227 q 387 277 387 266 q 359 351 387 309 q 327 392 344 372 q 241 412 288 412 q 178 400 207 412 q 137 358 149 388 q 134 337 134 349 q 193 223 134 288 z "},"¨":{"ha":378,"x_min":0,"x_max":378,"o":"m 71 917 q 14 945 35 917 q 0 989 0 962 q 34 1060 3 1042 q 71 1071 52 1071 q 131 1040 109 1071 q 142 999 142 1023 q 141 980 142 990 q 109 928 133 943 q 71 917 91 917 m 307 917 q 249 945 271 917 q 235 989 235 962 q 269 1060 239 1042 q 307 1071 287 1071 q 366 1040 344 1071 q 378 1000 378 1024 q 376 980 378 991 q 345 928 369 943 q 307 917 326 917 z "},"©":{"ha":1284,"x_min":0,"x_max":1284,"o":"m 637 -327 q 309 -245 444 -327 q 66 34 144 -142 q 0 356 0 185 q 75 701 0 538 q 292 962 148 859 q 672 1077 462 1077 q 872 1045 772 1077 q 1058 938 973 1013 q 1228 684 1171 834 q 1284 374 1284 537 q 1223 57 1284 208 q 1019 -209 1157 -104 q 637 -327 871 -321 m 637 -282 l 679 -281 q 987 -177 864 -268 q 1182 74 1120 -78 q 1240 375 1240 217 q 1186 669 1240 529 q 1028 905 1133 808 q 850 1005 949 975 q 672 1032 763 1032 q 311 921 471 1032 q 115 682 182 825 q 44 355 44 528 q 107 52 44 195 q 336 -208 180 -114 q 637 -282 460 -282 m 589 -245 q 413 -182 493 -245 q 278 39 324 -113 q 250 254 250 142 q 384 739 250 520 q 567 915 465 859 q 773 971 669 971 q 889 951 836 971 q 986 889 950 929 q 1047 717 1047 821 q 1042 659 1047 688 q 988 539 1025 578 q 895 492 944 492 q 802 559 822 496 q 800 581 800 570 q 833 671 800 621 q 817 669 825 669 q 765 681 787 669 q 720 747 724 703 q 735 764 720 762 q 752 749 751 764 q 757 732 753 740 q 814 701 772 701 q 877 716 841 701 q 883 718 880 718 q 897 709 893 718 q 899 703 899 706 q 893 690 899 695 q 853 642 866 665 q 836 587 836 610 q 839 568 836 577 q 896 527 852 527 q 962 564 929 527 q 1006 661 991 595 q 1013 722 1013 692 q 1006 783 1013 753 q 879 922 983 890 q 826 928 853 928 q 762 919 795 928 q 531 677 618 879 q 448 328 467 517 q 440 191 440 257 q 448 64 440 125 q 506 -117 464 -56 q 631 -190 557 -190 q 672 -184 652 -190 q 789 -111 734 -168 q 891 75 860 -37 q 909 90 895 90 q 930 71 930 87 l 929 66 q 817 -141 897 -60 q 686 -228 758 -201 q 589 -245 638 -245 z "},"ª":{"ha":543,"x_min":0,"x_max":543,"o":"m 407 534 q 330 597 357 540 q 309 713 309 648 q 318 828 309 762 q 259 759 288 786 q 139 701 194 701 q 52 734 86 701 q 0 871 0 784 q 53 1006 0 949 q 215 1076 119 1076 q 372 1033 283 1076 q 422 1081 390 1068 q 454 1087 438 1087 q 490 1079 472 1087 q 537 1030 524 1063 q 543 999 543 1015 q 535 962 543 981 l 484 863 q 417 718 446 793 q 395 624 395 658 q 418 578 395 584 q 425 562 425 576 q 407 534 425 534 m 172 762 q 342 949 233 762 q 334 953 338 951 q 280 967 305 967 q 258 964 269 967 q 178 900 207 949 q 144 802 144 844 q 159 765 144 775 q 172 762 165 762 z "},"«":{"ha":935,"x_min":0,"x_max":935,"o":"m 472 -227 q 460 -219 465 -226 q 455 -201 455 -212 q 449 -180 455 -191 q 311 -98 427 -144 q 262 -74 287 -87 q 180 -38 222 -54 q 50 47 95 -7 q 0 176 0 105 q 19 256 0 215 q 147 361 53 326 q 254 385 199 377 q 335 402 297 391 q 444 504 424 425 q 454 534 444 522 q 479 547 465 547 q 504 533 494 546 q 514 496 514 521 q 372 254 514 313 q 195 213 310 227 l 165 209 q 46 157 46 191 q 202 56 46 118 q 338 -5 270 29 q 449 -87 406 -39 q 491 -193 491 -136 l 490 -205 q 472 -227 489 -227 m 892 -227 q 880 -219 884 -226 q 876 -202 876 -213 q 869 -180 876 -191 q 732 -98 847 -144 q 682 -74 707 -87 q 600 -38 642 -54 q 470 47 515 -7 q 422 150 432 92 q 420 176 420 163 q 439 256 420 216 q 567 361 473 326 q 674 385 619 377 q 755 402 717 391 q 864 504 844 425 q 874 534 865 522 q 900 547 884 547 q 925 533 915 546 q 935 496 935 520 q 792 254 935 315 q 615 213 730 227 l 586 209 q 467 157 467 191 q 623 56 467 117 q 758 -5 690 29 q 869 -87 825 -39 q 911 -193 911 -136 q 892 -227 911 -227 z "},"¬":{"ha":860,"x_min":0,"x_max":860,"o":"m 819 616 l 816 616 q 802 620 809 616 q 722 781 722 677 q 739 887 722 835 q 796 1029 756 940 q 606 991 726 1007 q 327 972 465 972 q 22 1021 108 972 q 0 1059 0 1035 q 6 1082 0 1071 q 45 1103 20 1103 q 67 1097 56 1103 q 425 1020 201 1020 q 602 1032 511 1020 q 820 1084 720 1048 q 829 1086 825 1086 q 860 1000 860 1086 q 838 866 860 946 q 814 724 814 772 q 828 656 814 682 q 838 638 838 649 q 833 625 838 631 q 819 616 828 618 z "},"®":{"ha":1345,"x_min":0,"x_max":1345,"o":"m 668 -285 q 322 -201 463 -285 q 69 81 149 -97 q 0 406 0 235 q 78 751 0 586 q 328 1032 160 925 q 703 1133 490 1133 q 772 1130 737 1133 q 1121 981 977 1116 q 1286 735 1230 878 q 1345 420 1345 585 q 1281 106 1344 255 q 1078 -158 1215 -52 q 668 -285 920 -279 m 667 -241 q 711 -239 688 -241 q 1046 -126 914 -225 q 1240 123 1178 -26 q 1300 425 1300 267 q 1245 719 1300 579 q 1088 951 1192 854 q 946 1044 1025 1008 q 705 1088 844 1088 q 349 992 500 1088 q 118 732 193 892 q 45 406 45 578 q 110 100 45 244 q 342 -160 183 -64 q 667 -241 475 -241 m 321 -67 q 251 -52 284 -67 q 161 26 197 -28 q 115 157 125 80 q 113 196 113 177 q 128 292 113 247 q 200 385 149 355 q 243 396 222 396 q 313 349 292 396 q 323 298 323 328 q 319 260 323 279 q 382 283 355 283 q 398 280 390 283 q 446 231 438 269 q 448 215 448 222 q 424 161 448 186 q 340 133 395 133 q 266 144 304 133 q 256 155 256 146 q 270 170 258 170 l 273 169 q 339 159 309 159 q 406 180 382 159 q 421 216 421 197 q 392 255 421 245 q 382 256 387 256 q 304 214 348 256 q 295 210 300 210 q 281 223 281 212 q 281 227 281 225 q 296 300 296 270 q 288 336 296 323 q 260 353 278 353 q 231 344 247 353 q 182 277 200 322 q 163 168 163 227 q 193 45 163 96 q 270 -21 223 -5 q 302 -26 286 -26 q 341 -19 321 -26 q 492 210 439 23 q 545 600 545 394 q 514 843 545 758 q 448 909 488 909 q 424 918 433 909 q 413 941 414 927 q 422 965 413 956 q 446 975 432 975 q 608 911 545 971 q 688 768 664 855 q 803 907 726 852 q 961 960 878 960 q 1052 938 1009 960 q 1126 870 1095 916 q 1174 707 1174 798 q 1112 508 1174 599 q 762 323 1006 353 q 860 216 821 290 q 908 112 878 182 q 956 24 929 62 q 1063 -28 996 -28 l 1092 -26 q 1103 -30 1097 -26 q 1108 -43 1108 -34 q 1104 -53 1108 -48 q 1058 -61 1098 -61 q 923 -1 974 -61 q 863 94 888 40 q 816 193 825 174 q 708 309 772 279 q 660 319 682 319 q 555 94 621 193 q 427 -36 496 5 q 321 -67 375 -67 m 671 355 q 682 355 677 355 q 787 379 741 361 q 937 491 884 418 q 1002 693 1002 586 q 978 802 1002 755 q 884 865 943 865 q 833 853 859 865 q 772 806 797 836 q 711 656 722 745 q 704 570 705 614 q 671 355 703 469 z "},"¯":{"ha":892,"x_min":0,"x_max":892,"o":"m 459 890 q 127 965 276 890 q 14 1042 66 996 q 0 1063 0 1049 q 1 1072 0 1067 q 21 1086 7 1086 q 30 1084 26 1086 q 492 1005 227 1005 q 556 1006 524 1005 q 864 1053 762 1017 l 870 1053 q 882 1050 876 1053 q 892 1030 892 1044 q 876 1010 892 1015 q 567 897 753 922 q 459 890 513 890 z "},"°":{"ha":203,"x_min":0,"x_max":203,"o":"m 100 872 q 35 897 59 872 q 0 986 0 931 q 19 1054 0 1019 q 96 1097 38 1090 l 102 1097 q 179 1063 154 1097 q 203 991 203 1031 q 174 907 203 942 q 100 872 149 876 m 101 909 q 153 968 153 916 q 135 1021 153 998 q 104 1036 123 1036 q 63 1010 80 1036 q 47 958 47 986 q 94 909 47 909 l 101 909 z "},"±":{"ha":828,"x_min":0,"x_max":828,"o":"m 462 -61 q 435 -50 447 -61 q 251 403 251 150 q 252 448 251 425 q 125 466 168 466 q 71 450 87 466 q 37 431 59 431 q 20 435 28 431 q 0 467 0 446 q 5 484 0 475 q 96 580 43 551 q 231 611 152 611 q 280 608 267 611 q 496 1009 338 815 q 560 1044 521 1044 q 606 1029 584 1044 q 638 960 638 1002 q 623 911 638 934 q 556 758 604 883 q 496 566 525 674 l 497 566 q 646 547 576 547 q 760 576 713 547 q 791 591 772 591 q 812 585 802 591 q 828 556 828 574 q 822 536 828 545 q 691 430 771 456 q 548 408 629 408 q 465 412 501 408 q 450 230 450 323 q 486 13 450 107 q 499 -20 499 0 q 489 -47 499 -35 q 462 -61 478 -60 m 427 -275 q 119 -181 279 -275 q 88 -130 88 -165 q 92 -107 88 -119 q 120 -77 101 -85 q 140 -73 130 -73 q 159 -77 149 -73 q 261 -102 179 -87 q 437 -117 347 -117 q 717 -41 615 -117 q 739 -27 724 -27 q 751 -31 745 -27 q 765 -55 765 -39 q 730 -117 765 -71 q 427 -275 611 -275 z "},"²":{"ha":386,"x_min":0,"x_max":386,"o":"m 319 480 q 235 512 283 480 q 168 564 200 536 q 112 511 138 530 q 45 481 71 481 q 9 499 20 481 q 0 532 0 513 q 27 600 0 572 q 87 625 50 625 q 127 614 106 625 q 132 621 130 617 q 242 861 203 739 q 266 972 264 924 q 257 1017 266 998 q 208 1050 240 1050 q 159 1031 185 1050 q 101 941 125 1002 q 92 935 99 935 q 82 945 82 935 l 83 948 q 148 1045 108 1013 q 230 1078 187 1078 q 307 1046 275 1078 q 342 942 342 1009 q 324 840 342 895 q 261 697 302 767 q 180 578 221 627 l 195 566 q 320 500 274 500 q 370 517 347 500 q 376 519 373 519 q 386 510 386 519 q 382 503 386 506 q 319 480 353 480 m 32 512 q 117 597 60 512 q 87 605 100 605 q 43 586 60 605 q 18 530 18 559 q 32 512 18 512 z "},"³":{"ha":326,"x_min":0,"x_max":326,"o":"m 123 480 q 62 492 88 480 q 11 532 27 507 q 0 568 0 549 q 40 631 0 605 q 79 647 64 646 q 89 637 89 647 q 81 628 89 629 q 22 570 22 615 q 31 543 22 555 q 81 517 46 517 q 135 532 104 517 q 197 581 175 554 q 229 656 229 617 q 112 762 229 732 q 92 780 92 764 q 130 851 95 814 l 193 919 q 227 987 227 958 q 218 1015 227 1003 q 180 1034 204 1034 q 136 1013 157 1034 q 117 981 125 1001 q 109 975 115 975 q 98 985 98 975 l 98 987 q 121 1026 107 1010 q 222 1072 160 1072 q 307 1039 276 1072 q 326 989 326 1019 q 241 862 326 935 q 195 830 218 844 q 132 783 148 802 q 171 780 153 783 q 264 745 230 770 q 315 649 315 705 q 250 523 315 576 q 146 481 209 490 q 123 480 134 480 z "},"´":{"ha":222,"x_min":0,"x_max":222,"o":"m 65 937 q 12 960 30 937 q 0 994 0 975 q 22 1040 0 1023 q 57 1052 38 1052 l 64 1051 q 81 1043 73 1043 q 91 1044 84 1043 q 127 1072 98 1046 q 193 1111 161 1109 q 214 1103 206 1111 q 222 1083 222 1095 q 199 1055 222 1059 q 189 1042 196 1053 q 65 937 129 937 z "},"µ":{"ha":642,"x_min":0,"x_max":642,"o":"m 288 -304 q 260 -293 272 -304 q 153 -163 199 -234 q 0 387 0 71 q 50 734 0 565 q 188 1028 99 901 q 210 1054 194 1046 q 229 1059 219 1059 q 267 1038 256 1055 q 274 1014 274 1027 l 273 1004 q 253 890 264 962 q 232 638 232 760 q 244 484 232 558 q 294 354 255 420 q 392 287 331 292 q 443 309 420 287 q 488 408 475 339 q 503 631 502 507 q 513 823 505 730 q 608 1053 530 999 q 620 1057 614 1057 q 639 1046 632 1057 q 642 1035 642 1041 q 632 1016 642 1023 q 557 820 572 975 q 548 630 549 729 q 532 401 547 503 q 477 279 516 319 q 394 243 440 243 q 369 246 382 243 q 256 322 300 263 q 186 470 205 393 q 162 618 168 541 q 149 400 149 509 q 172 124 149 262 q 238 -118 195 -17 q 314 -237 271 -195 q 326 -264 326 -249 q 315 -291 326 -279 q 288 -304 304 -303 z "},"¶":{"ha":932,"x_min":0,"x_max":932,"o":"m 833 -304 q 806 -293 817 -304 q 699 -163 745 -234 q 583 98 620 -43 q 545 387 545 239 q 679 940 545 688 q 681 944 681 942 q 493 964 661 944 q 397 411 397 717 q 418 124 397 258 q 485 -118 441 -17 q 561 -237 518 -195 q 573 -266 573 -249 q 562 -292 573 -280 q 534 -304 550 -304 q 508 -293 519 -304 q 400 -163 446 -234 q 284 98 321 -43 q 247 387 247 239 q 288 703 247 547 q 191 677 242 677 q 134 684 163 677 q 22 764 56 709 q 0 842 0 802 q 18 912 0 876 q 156 1010 51 980 q 281 1025 208 1025 q 426 1015 337 1025 q 444 1042 435 1029 q 476 1059 457 1059 q 498 1051 488 1059 q 515 1021 515 1039 q 512 1006 515 1014 q 706 986 562 1000 q 743 1042 723 1015 q 774 1059 755 1059 q 797 1051 786 1059 q 813 1019 813 1039 q 806 998 813 1008 l 800 984 q 891 1015 874 987 q 911 1026 898 1026 q 922 1023 916 1026 q 932 1004 932 1017 q 930 993 932 998 q 783 940 898 943 q 721 709 742 831 q 695 411 695 560 q 717 124 695 258 q 783 -118 740 -17 q 859 -237 817 -195 q 871 -266 871 -249 q 860 -292 871 -280 q 833 -304 849 -303 m 189 720 q 308 770 245 720 q 399 973 342 875 q 281 981 330 981 q 170 968 215 981 q 57 892 83 945 q 45 844 45 867 q 61 788 45 815 q 151 726 87 746 q 189 720 169 720 z "},"·":{"ha":96,"x_min":0,"x_max":96,"o":"m 47 14 q 29 18 39 14 q 3 45 12 26 q 0 62 0 54 q 6 87 0 75 q 39 114 17 107 q 52 116 45 116 q 81 105 66 116 q 96 71 96 91 l 96 59 q 83 31 96 47 q 47 14 66 14 z "},"∙":{"ha":96,"x_min":0,"x_max":96,"o":"m 47 14 q 29 18 39 14 q 3 45 12 26 q 0 62 0 54 q 6 87 0 75 q 39 114 17 107 q 52 116 45 116 q 81 105 66 116 q 96 71 96 91 l 96 59 q 83 31 96 47 q 47 14 66 14 z "},"¸":{"ha":368,"x_min":0,"x_max":368,"o":"m 172 -824 q 146 -822 166 -824 q 97 -798 126 -820 q 3 -626 23 -736 q 0 -581 0 -604 q 8 -517 0 -554 q 48 -446 16 -480 q 188 -398 93 -398 q 273 -409 226 -398 q 289 -365 279 -389 q 312 -285 312 -316 q 307 -262 312 -272 q 306 -253 306 -257 q 319 -232 306 -238 q 328 -230 323 -230 q 348 -243 341 -230 q 356 -284 356 -264 q 330 -382 353 -333 q 315 -425 315 -418 q 319 -438 319 -432 q 309 -456 319 -449 q 296 -460 303 -460 q 287 -458 292 -460 q 239 -449 260 -449 q 213 -453 224 -449 q 145 -591 145 -479 q 180 -721 145 -671 q 222 -744 199 -744 q 296 -682 256 -744 q 326 -623 311 -658 q 347 -609 332 -609 q 355 -611 351 -609 q 368 -631 368 -617 q 366 -640 368 -635 q 329 -707 348 -678 q 172 -824 253 -824 z "},"¹":{"ha":172,"x_min":0,"x_max":172,"o":"m 88 479 q 75 484 81 479 q 0 697 0 545 q 29 880 0 786 q 81 1000 50 950 q 138 1063 108 1046 q 153 1070 144 1070 q 166 1065 159 1070 q 172 1051 172 1059 q 168 1038 172 1044 q 88 747 115 949 q 80 629 80 684 q 101 512 80 543 q 107 497 107 506 q 102 485 107 490 q 88 479 97 479 z "},"º":{"ha":319,"x_min":0,"x_max":319,"o":"m 142 484 q 45 546 89 484 q 0 722 0 614 q 29 890 0 809 q 90 1000 52 954 q 163 1054 123 1038 q 206 1063 185 1063 q 300 985 271 1063 q 319 865 319 930 q 293 668 319 761 q 206 508 262 554 q 142 484 174 484 m 165 517 q 193 526 179 517 q 274 672 243 557 q 299 857 299 761 q 282 979 299 928 q 229 1030 262 1030 q 190 1015 210 1030 q 114 865 141 978 q 93 686 93 778 q 94 640 93 663 q 165 517 107 517 z "},"»":{"ha":934,"x_min":0,"x_max":934,"o":"m 463 -245 l 461 -245 q 443 -212 443 -245 q 447 -179 443 -195 q 596 -24 469 -87 q 732 37 664 10 q 888 139 888 99 q 739 195 888 175 q 650 209 696 200 q 485 288 543 229 q 420 477 420 352 q 430 515 420 502 q 454 528 439 528 q 479 516 469 528 q 490 485 490 504 q 599 383 510 406 q 680 366 637 373 q 915 237 865 341 q 934 157 934 197 q 884 28 934 87 q 754 -56 840 -26 q 673 -93 713 -72 q 623 -117 647 -106 q 479 -220 479 -174 l 479 -222 q 463 -245 479 -243 m 42 -245 l 41 -245 q 23 -214 23 -245 q 26 -179 23 -196 q 176 -24 50 -85 q 312 37 244 10 q 468 139 468 100 q 319 195 468 174 q 230 209 275 200 q 64 288 123 230 q 0 477 0 351 q 9 515 0 502 q 35 528 19 528 q 60 516 50 528 q 71 485 70 504 q 178 383 89 406 q 260 366 217 373 q 367 342 315 359 q 494 237 460 307 q 513 158 513 197 q 511 131 513 144 q 334 -56 490 -1 q 252 -93 292 -72 q 202 -117 227 -106 q 92 -172 134 -144 q 58 -222 58 -195 l 58 -224 q 54 -238 58 -232 q 42 -245 50 -244 z "},"¼":{"ha":625,"x_min":0,"x_max":625,"o":"m 88 479 q 75 484 81 479 q 0 694 0 545 q 3 758 0 726 q 81 1000 20 901 q 138 1063 108 1046 q 153 1070 144 1070 q 166 1065 159 1070 q 172 1051 172 1059 q 168 1038 172 1044 q 140 979 153 1015 q 88 747 104 879 q 80 629 80 684 q 100 512 80 544 q 107 497 107 506 q 102 485 107 490 q 88 479 97 479 m 149 305 l 146 305 q 126 321 129 305 q 121 395 121 357 q 129 492 121 443 q 265 779 159 656 q 453 903 348 872 l 458 904 q 478 884 478 904 q 465 867 478 871 q 320 737 399 845 q 191 475 235 622 q 164 328 168 400 l 164 324 q 149 305 164 309 m 541 119 q 528 123 533 119 q 452 333 452 184 q 455 391 452 361 q 390 397 431 397 q 329 394 355 397 q 293 385 309 394 q 282 382 288 382 q 268 389 272 382 q 263 400 263 395 q 272 418 263 412 q 315 509 298 437 q 345 602 334 574 q 471 718 381 691 l 475 719 q 487 715 481 719 q 496 699 496 711 q 481 680 496 684 q 405 581 428 654 q 391 538 397 560 q 374 485 383 511 q 332 414 359 445 q 381 416 357 416 q 457 410 422 416 q 533 640 477 547 q 590 703 560 686 q 604 710 595 709 q 618 705 612 710 q 625 692 624 700 q 620 678 625 684 q 539 378 571 599 q 559 351 553 366 q 557 343 559 347 q 549 339 555 339 q 544 340 547 339 q 540 346 541 342 q 536 353 538 349 q 532 262 532 305 q 553 152 532 184 q 559 139 559 146 q 554 124 559 130 q 541 119 549 119 z "},"½":{"ha":618,"x_min":0,"x_max":618,"o":"m 149 305 l 146 305 q 127 321 130 305 q 121 400 121 357 q 130 492 121 446 q 266 779 159 656 q 454 903 349 872 l 459 904 q 469 901 464 904 q 478 885 478 897 q 465 867 478 871 q 320 737 399 845 q 191 475 235 620 q 165 328 169 400 l 165 324 q 149 305 165 309 m 89 479 q 75 484 81 479 q 35 534 50 504 q 0 694 0 597 q 4 758 0 726 q 81 1000 21 901 q 138 1063 109 1046 q 153 1070 144 1070 q 166 1065 160 1070 q 172 1050 172 1059 q 168 1038 172 1044 q 141 979 154 1015 q 89 747 104 879 q 81 623 81 683 q 101 512 81 542 q 108 499 107 507 q 102 485 108 491 q 89 479 97 479 m 552 123 q 416 195 500 123 l 399 207 q 276 125 326 125 q 241 143 252 125 q 233 177 233 158 q 260 244 233 215 q 317 269 280 267 q 359 257 336 269 q 361 260 359 258 q 363 265 362 262 q 422 375 394 315 q 498 616 494 526 q 489 661 498 642 q 439 694 472 694 q 391 674 417 694 q 333 585 357 646 q 324 579 331 579 q 319 580 322 579 q 315 584 317 581 q 314 589 314 587 l 315 592 q 380 689 340 656 q 463 722 420 722 q 539 689 508 722 q 574 585 574 654 q 493 339 574 480 q 412 222 456 275 q 479 171 456 186 q 553 144 521 144 q 602 161 580 144 q 608 163 605 163 q 615 160 612 163 q 618 154 618 157 q 614 146 618 149 q 552 123 584 123 m 263 155 q 349 241 292 155 q 319 249 332 249 q 275 229 293 249 q 250 174 250 203 q 263 155 250 155 z "},"¾":{"ha":825,"x_min":0,"x_max":825,"o":"m 349 305 l 347 305 q 327 321 330 305 q 321 395 321 357 q 330 492 321 443 q 466 779 359 656 q 654 903 549 872 l 660 904 q 679 884 679 904 q 665 867 679 871 q 521 737 600 845 q 391 475 436 622 q 365 328 369 400 l 365 324 q 349 305 365 309 m 123 480 q 62 492 88 480 q 11 532 26 507 q 0 568 0 549 q 40 631 0 605 q 79 647 64 646 q 89 637 89 647 q 81 628 89 629 q 50 616 63 624 q 22 571 22 599 q 31 543 22 556 q 81 517 46 517 q 135 532 104 517 q 197 581 175 554 q 229 656 229 617 q 112 762 229 732 l 110 762 q 92 780 92 764 q 130 851 95 814 l 193 919 q 227 987 227 958 q 218 1015 227 1003 q 180 1034 204 1034 q 136 1013 157 1034 q 117 981 125 1001 q 109 975 115 975 q 98 985 98 975 l 98 987 q 121 1026 107 1010 q 222 1072 160 1072 q 307 1039 276 1072 q 326 989 326 1019 q 241 862 326 935 q 195 830 218 844 q 132 783 149 802 q 171 780 153 783 q 264 745 230 770 q 315 649 315 705 q 250 523 315 576 q 146 481 209 490 q 123 480 134 480 m 742 119 q 728 123 734 119 q 653 333 653 184 q 656 391 653 361 q 591 397 632 397 q 530 394 556 397 q 494 385 509 394 q 484 382 489 382 q 468 389 473 382 q 464 400 464 395 q 473 418 464 412 q 516 509 498 437 q 546 602 534 574 q 672 718 582 691 l 676 719 q 688 715 682 719 q 696 699 696 711 q 682 680 696 684 q 606 581 629 654 q 592 538 598 560 q 574 485 584 511 q 532 414 560 445 q 582 416 557 416 q 654 411 621 416 q 659 410 656 410 q 734 640 676 545 q 791 703 761 686 q 804 710 796 709 q 819 705 812 710 q 825 692 825 700 q 821 678 825 684 q 793 619 806 655 q 741 387 758 519 l 740 378 q 760 351 754 366 q 758 343 760 347 q 750 339 756 339 q 745 340 748 339 q 741 346 742 342 q 737 353 739 349 q 733 262 733 305 q 753 152 733 184 q 760 139 760 146 q 755 124 760 130 q 742 119 750 119 z "},"¿":{"ha":648,"x_min":0,"x_max":648,"o":"m 275 -306 q 153 -281 214 -306 q 0 -63 0 -216 q 133 203 0 78 q 332 357 203 269 q 432 429 389 394 q 528 568 527 503 l 528 572 q 532 586 528 579 q 550 594 538 594 q 564 590 557 594 q 575 542 575 582 q 507 364 575 459 q 382 215 464 304 q 283 99 330 157 q 195 -92 195 -17 q 229 -182 195 -151 q 321 -215 267 -215 q 473 -138 411 -215 q 519 14 519 -79 l 519 30 q 525 46 519 39 q 540 53 530 52 q 556 47 549 53 q 563 32 562 41 l 564 5 q 523 -170 564 -97 q 275 -306 441 -306 m 553 606 l 549 621 q 507 690 542 645 q 474 758 474 730 q 490 790 474 778 q 517 799 502 799 q 564 747 549 799 q 610 785 579 785 q 640 769 627 785 q 648 745 648 759 q 627 696 648 722 l 604 672 q 553 606 558 631 z "},"À":{"ha":1292,"x_min":0,"x_max":1273,"o":"m 984 1112 q 941 1124 961 1112 q 886 1177 908 1145 q 861 1217 871 1200 q 850 1230 854 1228 q 828 1257 828 1235 q 857 1285 828 1285 q 923 1247 885 1285 l 941 1231 q 967 1218 956 1218 q 985 1226 977 1218 l 992 1227 q 1029 1213 1012 1227 q 1050 1169 1050 1197 q 1036 1133 1050 1149 q 984 1112 1019 1112 m 1256 -396 l 1253 -396 q 1088 -311 1158 -381 q 951 -39 995 -215 q 916 -41 934 -41 q 860 -35 888 -41 q 674 36 764 -13 l 626 62 q 219 -326 446 -326 q 184 -324 201 -326 q 26 -219 76 -305 q 0 -127 0 -175 q 72 23 0 -34 q 234 83 131 70 q 177 192 177 130 q 191 241 177 218 q 267 286 211 277 q 290 288 277 288 q 500 220 374 288 l 514 270 q 611 597 564 457 q 757 895 673 774 q 1010 1093 862 1044 q 1023 1095 1017 1095 q 1050 1086 1038 1095 q 1070 1055 1070 1076 q 1068 1043 1070 1049 q 998 721 1029 923 q 966 301 966 509 q 989 5 966 131 q 1043 36 1025 11 q 1060 92 1060 60 q 1038 160 1060 129 q 1035 170 1035 165 q 1041 183 1035 178 q 1052 188 1047 188 q 1067 180 1061 188 q 1090 98 1090 139 q 1062 16 1090 52 q 996 -28 1038 -14 q 1258 -361 1061 -329 q 1273 -380 1273 -364 q 1265 -393 1273 -387 q 1256 -396 1261 -396 m 941 5 q 932 52 936 28 q 907 374 907 197 q 962 918 907 655 q 858 682 909 819 q 769 430 817 572 q 654 126 715 269 l 707 96 q 880 20 792 49 q 941 5 912 9 m 204 -272 q 317 -214 258 -272 q 417 -43 370 -160 q 481 151 451 44 q 256 241 324 241 q 208 203 208 241 q 212 178 208 192 q 260 110 226 140 q 302 86 280 94 q 314 69 314 81 q 296 52 312 52 q 185 31 230 48 q 83 -64 104 -3 q 71 -126 71 -96 q 85 -191 71 -159 q 204 -272 121 -268 z "},"Á":{"ha":1283,"x_min":0,"x_max":1273,"o":"m 930 1101 q 877 1122 894 1101 q 864 1158 864 1139 q 885 1202 864 1186 q 921 1216 901 1216 l 928 1215 q 947 1207 937 1207 q 972 1220 958 1207 l 990 1236 q 1056 1274 1028 1274 q 1086 1246 1086 1274 q 1063 1219 1086 1224 q 1052 1206 1059 1217 q 1027 1166 1042 1190 q 972 1113 1005 1135 q 930 1101 953 1101 m 1256 -396 l 1253 -396 q 1088 -311 1158 -381 q 951 -39 995 -215 q 916 -41 934 -41 q 860 -35 888 -41 q 674 36 764 -13 l 626 62 q 219 -326 446 -326 q 184 -324 201 -326 q 26 -219 76 -305 q 0 -127 0 -175 q 72 23 0 -34 q 234 83 131 70 q 177 192 177 130 q 191 241 177 218 q 267 286 211 277 q 290 288 277 288 q 500 220 374 288 l 514 270 q 611 597 564 457 q 757 895 673 774 q 1010 1093 862 1044 q 1023 1095 1017 1095 q 1050 1086 1038 1095 q 1070 1055 1070 1076 q 1068 1043 1070 1049 q 998 721 1029 923 q 966 301 966 509 q 989 5 966 131 q 1043 36 1025 11 q 1060 92 1060 60 q 1038 160 1060 129 q 1035 170 1035 165 q 1041 183 1035 178 q 1052 188 1047 188 q 1067 180 1061 188 q 1090 98 1090 139 q 1062 16 1090 52 q 996 -28 1038 -14 q 1258 -361 1061 -329 q 1273 -380 1273 -364 q 1265 -393 1273 -387 q 1256 -396 1261 -396 m 941 5 q 932 52 936 28 q 907 374 907 197 q 962 918 907 655 q 858 682 909 819 q 769 430 817 572 q 654 126 715 269 l 707 96 q 880 20 792 49 q 941 5 912 9 m 204 -272 q 317 -214 258 -272 q 417 -43 370 -160 q 481 151 451 44 q 256 241 324 241 q 208 203 208 241 q 212 178 208 192 q 260 110 226 140 q 302 86 280 94 q 314 69 314 81 q 296 52 312 52 q 185 31 230 48 q 83 -64 104 -3 q 71 -126 71 -96 q 85 -191 71 -159 q 204 -272 121 -268 z "},"Â":{"ha":1288,"x_min":0,"x_max":1273,"o":"m 857 1073 q 845 1077 852 1073 q 836 1095 836 1082 q 852 1117 836 1112 q 892 1166 868 1120 q 916 1205 903 1185 q 994 1258 949 1254 q 1049 1223 1024 1258 q 1072 1181 1061 1204 q 1124 1120 1099 1122 q 1139 1114 1133 1120 q 1146 1099 1145 1108 q 1140 1083 1146 1089 q 1124 1076 1134 1077 q 1074 1097 1093 1077 q 1032 1162 1049 1124 q 994 1213 1008 1213 q 968 1185 981 1213 l 960 1165 q 857 1073 933 1082 m 1256 -396 l 1253 -396 q 1088 -311 1158 -381 q 951 -39 995 -215 q 916 -41 934 -41 q 860 -35 888 -41 q 674 36 764 -13 l 626 62 q 219 -326 446 -326 q 184 -324 201 -326 q 26 -219 76 -305 q 0 -127 0 -175 q 72 23 0 -34 q 234 83 131 70 q 177 192 177 130 q 191 241 177 218 q 267 286 211 277 q 290 288 277 288 q 500 220 374 288 l 514 270 q 611 597 564 457 q 757 895 673 774 q 1010 1093 862 1044 q 1023 1095 1017 1095 q 1050 1086 1038 1095 q 1070 1055 1070 1076 q 1068 1043 1070 1049 q 998 721 1029 923 q 966 301 966 509 q 989 5 966 131 q 1043 36 1025 11 q 1060 92 1060 60 q 1038 160 1060 129 q 1035 170 1035 165 q 1041 183 1035 178 q 1052 188 1047 188 q 1067 180 1061 188 q 1090 98 1090 139 q 1062 16 1090 52 q 996 -28 1038 -14 q 1258 -361 1061 -329 q 1273 -380 1273 -364 q 1265 -393 1273 -387 q 1256 -396 1261 -396 m 941 5 q 932 52 936 28 q 907 374 907 197 q 962 918 907 655 q 858 682 909 819 q 769 430 817 572 q 654 126 715 269 l 707 96 q 880 20 792 49 q 941 5 912 9 m 204 -272 q 317 -214 258 -272 q 417 -43 370 -160 q 481 151 451 44 q 256 241 324 241 q 208 203 208 241 q 212 178 208 192 q 260 110 226 140 q 302 86 280 94 q 314 69 314 81 q 296 52 312 52 q 185 31 230 48 q 83 -64 104 -3 q 71 -126 71 -96 q 85 -191 71 -159 q 204 -272 121 -268 z "},"Ã":{"ha":1282,"x_min":0,"x_max":1273,"o":"m 845 1116 q 840 1118 842 1116 q 831 1135 831 1123 q 832 1141 831 1137 q 863 1190 844 1173 q 926 1207 886 1207 q 1005 1196 954 1207 q 1061 1188 1040 1188 q 1116 1206 1095 1188 q 1128 1214 1120 1214 q 1135 1212 1131 1214 q 1142 1196 1142 1207 q 1141 1189 1142 1192 q 1027 1119 1111 1119 q 937 1129 992 1119 q 885 1136 903 1136 q 858 1126 865 1136 q 845 1116 854 1117 m 1256 -396 l 1253 -396 q 1088 -311 1158 -381 q 951 -39 995 -215 q 916 -41 934 -41 q 860 -35 888 -41 q 674 36 764 -13 l 626 62 q 219 -326 446 -326 q 184 -324 201 -326 q 26 -219 76 -305 q 0 -127 0 -175 q 72 23 0 -34 q 234 83 131 70 q 177 192 177 130 q 191 241 177 218 q 267 286 211 277 q 290 288 277 288 q 500 220 374 288 l 514 270 q 611 597 564 457 q 757 895 673 774 q 1010 1093 862 1044 q 1023 1095 1017 1095 q 1050 1086 1038 1095 q 1070 1055 1070 1076 q 1068 1043 1070 1049 q 998 721 1029 923 q 966 301 966 509 q 989 5 966 131 q 1043 36 1025 11 q 1060 92 1060 60 q 1038 160 1060 129 q 1035 170 1035 165 q 1041 183 1035 178 q 1052 188 1047 188 q 1067 180 1061 188 q 1090 98 1090 139 q 1062 16 1090 52 q 996 -28 1038 -14 q 1258 -361 1061 -329 q 1273 -380 1273 -364 q 1265 -393 1273 -387 q 1256 -396 1261 -396 m 941 5 q 932 52 936 28 q 907 374 907 197 q 962 918 907 655 q 858 682 909 819 q 769 430 817 572 q 654 126 715 269 l 707 96 q 880 20 792 49 q 941 5 912 9 m 204 -272 q 317 -214 258 -272 q 417 -43 370 -160 q 481 151 451 44 q 256 241 324 241 q 208 203 208 241 q 212 178 208 192 q 260 110 226 140 q 302 86 280 94 q 314 69 314 81 q 296 52 312 52 q 185 31 230 48 q 83 -64 104 -3 q 71 -126 71 -96 q 85 -191 71 -159 q 204 -272 121 -268 z "},"Ä":{"ha":1293,"x_min":0,"x_max":1273,"o":"m 937 1107 q 897 1126 912 1107 q 888 1156 888 1138 q 911 1205 890 1192 q 936 1213 923 1213 q 977 1192 962 1213 q 985 1163 985 1180 q 985 1150 985 1157 q 963 1115 979 1125 q 937 1107 950 1107 m 1063 1107 q 1023 1126 1038 1107 q 1014 1156 1014 1138 q 1037 1205 1016 1192 q 1063 1213 1050 1213 q 1104 1192 1088 1213 q 1112 1164 1112 1180 q 1111 1150 1112 1158 q 1089 1115 1105 1125 q 1063 1107 1076 1107 m 1256 -396 l 1253 -396 q 1088 -311 1158 -381 q 951 -39 995 -215 q 916 -41 934 -41 q 860 -35 888 -41 q 674 36 764 -13 l 626 62 q 219 -326 446 -326 q 184 -324 201 -326 q 26 -219 76 -305 q 0 -127 0 -175 q 72 23 0 -34 q 234 83 131 70 q 177 192 177 130 q 191 241 177 218 q 267 286 211 277 q 290 288 277 288 q 500 220 374 288 l 514 270 q 611 597 564 457 q 757 895 673 774 q 1010 1093 862 1044 q 1023 1095 1017 1095 q 1050 1086 1038 1095 q 1070 1055 1070 1076 q 1068 1043 1070 1049 q 998 721 1029 923 q 966 301 966 509 q 989 5 966 131 q 1043 36 1025 11 q 1060 92 1060 60 q 1038 160 1060 129 q 1035 170 1035 165 q 1041 183 1035 178 q 1052 188 1047 188 q 1067 180 1061 188 q 1090 98 1090 139 q 1062 16 1090 52 q 996 -28 1038 -14 q 1258 -361 1061 -329 q 1273 -380 1273 -364 q 1265 -393 1273 -387 q 1256 -396 1261 -396 m 941 5 q 932 52 936 28 q 907 374 907 197 q 962 918 907 655 q 858 682 909 819 q 769 430 817 572 q 654 126 715 269 l 707 96 q 880 20 792 49 q 941 5 912 9 m 204 -272 q 317 -214 258 -272 q 417 -43 370 -160 q 481 151 451 44 q 256 241 324 241 q 208 203 208 241 q 212 178 208 192 q 260 110 226 140 q 302 86 280 94 q 314 69 314 81 q 296 52 312 52 q 185 31 230 48 q 83 -64 104 -3 q 71 -126 71 -96 q 85 -191 71 -159 q 204 -272 121 -268 z "},"Å":{"ha":1282,"x_min":0,"x_max":1273,"o":"m 992 1112 q 944 1131 962 1112 q 919 1196 919 1156 q 933 1246 919 1220 q 989 1276 947 1272 l 994 1277 q 1050 1252 1031 1277 q 1067 1199 1067 1229 q 1046 1137 1067 1163 q 992 1112 1027 1115 m 993 1139 q 1031 1183 1031 1144 q 1018 1221 1031 1204 q 995 1232 1008 1232 q 965 1213 977 1232 q 953 1175 954 1196 q 987 1139 953 1139 l 993 1139 m 1256 -396 l 1253 -396 q 1088 -311 1158 -381 q 951 -39 995 -215 q 916 -41 934 -41 q 860 -35 888 -41 q 674 36 764 -13 l 626 62 q 219 -326 446 -326 q 184 -324 201 -326 q 26 -219 76 -305 q 0 -127 0 -175 q 72 23 0 -34 q 234 83 131 70 q 177 192 177 130 q 191 241 177 218 q 267 286 211 277 q 290 288 277 288 q 500 220 374 288 l 514 270 q 611 597 564 457 q 757 895 673 774 q 1010 1093 862 1044 q 1023 1095 1017 1095 q 1050 1086 1038 1095 q 1070 1055 1070 1076 q 1068 1043 1070 1049 q 998 721 1029 923 q 966 301 966 509 q 989 5 966 131 q 1043 36 1025 11 q 1060 92 1060 60 q 1038 160 1060 129 q 1035 170 1035 165 q 1041 183 1035 178 q 1052 188 1047 188 q 1067 180 1061 188 q 1090 98 1090 139 q 1062 16 1090 52 q 996 -28 1038 -14 q 1258 -361 1061 -329 q 1273 -380 1273 -364 q 1265 -393 1273 -387 q 1256 -396 1261 -396 m 941 5 q 932 52 936 28 q 907 374 907 197 q 962 918 907 655 q 858 682 909 819 q 769 430 817 572 q 654 126 715 269 l 707 96 q 880 20 792 49 q 941 5 912 9 m 204 -272 q 317 -214 258 -272 q 417 -43 370 -160 q 481 151 451 44 q 256 241 324 241 q 208 203 208 241 q 212 178 208 192 q 260 110 226 140 q 302 86 280 94 q 314 69 314 81 q 296 52 312 52 q 185 31 230 48 q 83 -64 104 -3 q 71 -126 71 -96 q 85 -191 71 -159 q 204 -272 121 -268 z "},"Æ":{"ha":2011,"x_min":0,"x_max":1982,"o":"m 1256 -396 l 1253 -396 q 1088 -311 1158 -381 q 951 -39 995 -215 q 916 -41 934 -41 q 860 -35 888 -41 q 674 36 764 -13 l 626 62 q 219 -326 446 -326 q 184 -324 201 -326 q 26 -219 76 -305 q 0 -127 0 -175 q 72 23 0 -34 q 234 83 131 70 q 177 192 177 130 q 191 241 177 218 q 267 286 211 277 q 290 288 277 288 q 500 220 374 288 l 514 270 q 611 597 564 457 q 757 895 673 774 q 1010 1093 862 1044 q 1023 1095 1017 1095 q 1050 1086 1038 1095 q 1070 1055 1070 1076 q 1068 1043 1070 1049 q 998 721 1029 923 q 966 301 966 509 q 989 5 966 131 q 1043 36 1025 11 q 1060 92 1060 60 q 1038 160 1060 129 q 1035 170 1035 165 q 1041 183 1035 178 q 1052 188 1047 188 q 1067 180 1061 188 q 1090 98 1090 139 q 1062 16 1090 52 q 996 -28 1038 -14 q 1258 -361 1061 -329 q 1273 -380 1273 -364 q 1265 -393 1273 -387 q 1256 -396 1261 -396 m 941 5 q 932 52 936 28 q 907 374 907 197 q 962 918 907 655 q 858 682 909 819 q 769 430 817 572 q 654 126 715 269 l 707 96 q 880 20 792 49 q 941 5 912 9 m 204 -272 q 317 -214 258 -272 q 417 -43 370 -160 q 481 151 451 44 q 256 241 324 241 q 208 203 208 241 q 212 178 208 192 q 260 110 226 140 q 302 86 280 94 q 314 69 314 81 q 296 52 312 52 q 185 31 230 48 q 83 -64 104 -3 q 71 -126 71 -96 q 85 -191 71 -159 q 204 -272 121 -268 m 1500 -306 q 1342 -271 1417 -306 q 1179 -128 1236 -220 q 1137 16 1137 -61 q 1310 294 1137 174 q 1635 437 1430 380 q 1591 475 1612 456 q 1466 617 1518 538 q 1402 820 1402 718 q 1562 1067 1402 985 q 1743 1109 1651 1109 q 1796 1106 1769 1109 q 1945 1026 1900 1088 q 1982 913 1982 977 q 1951 808 1982 859 q 1905 755 1933 779 q 1885 750 1898 750 q 1874 757 1880 750 q 1868 771 1868 764 q 1875 788 1868 781 q 1909 830 1895 805 q 1932 911 1932 871 q 1902 980 1932 958 q 1846 996 1882 996 q 1678 930 1767 996 q 1580 801 1609 876 q 1566 723 1566 764 q 1646 530 1566 622 q 1735 448 1681 490 q 1748 421 1748 435 q 1719 387 1748 394 q 1557 332 1625 362 q 1346 97 1346 235 q 1350 62 1346 79 q 1449 -83 1369 -23 q 1630 -146 1535 -145 q 1824 -89 1744 -146 q 1906 18 1879 -47 q 1916 63 1916 41 q 1881 143 1916 111 q 1808 172 1853 172 q 1785 170 1797 172 q 1710 91 1734 161 q 1701 23 1701 62 q 1704 -26 1701 -4 q 1682 -50 1704 -50 q 1657 -39 1666 -50 q 1539 41 1598 41 q 1508 33 1522 41 q 1476 -20 1476 13 q 1490 -53 1476 -38 q 1495 -65 1495 -58 q 1476 -83 1494 -83 q 1463 -77 1470 -83 q 1439 -20 1439 -50 q 1490 63 1439 33 q 1539 76 1512 76 q 1655 20 1599 76 q 1706 172 1655 120 q 1810 216 1748 216 q 1915 172 1868 216 q 1953 100 1943 144 q 1957 66 1957 84 q 1946 -1 1957 35 q 1870 -132 1921 -75 q 1649 -280 1782 -231 q 1500 -306 1577 -306 z "},"Œ":{"ha":1662,"x_min":0,"x_max":1626,"o":"m 1145 -306 q 987 -271 1061 -306 q 823 -128 881 -220 q 782 16 782 -61 q 954 294 782 174 q 1280 437 1074 380 q 1236 475 1257 456 q 1111 617 1163 538 q 1046 820 1046 718 q 1206 1067 1046 985 q 1388 1109 1296 1109 q 1441 1106 1414 1109 q 1590 1026 1544 1088 q 1626 913 1626 977 q 1596 808 1626 859 q 1550 755 1578 779 q 1529 750 1543 750 q 1518 757 1525 750 q 1512 771 1512 764 q 1520 788 1512 781 q 1554 830 1539 805 q 1577 911 1577 871 q 1546 980 1577 958 q 1491 996 1527 996 q 1323 930 1411 996 q 1225 801 1253 876 q 1211 723 1211 764 q 1291 530 1211 622 q 1379 448 1326 490 q 1393 421 1393 435 q 1364 387 1393 394 q 1202 332 1270 362 q 991 97 991 235 q 995 62 991 79 q 1093 -83 1014 -23 q 1275 -146 1180 -145 q 1468 -89 1389 -146 q 1551 18 1523 -47 q 1560 63 1560 41 q 1526 143 1560 111 q 1453 172 1497 172 q 1430 170 1442 172 q 1354 91 1379 161 q 1345 23 1345 62 q 1348 -26 1345 -4 q 1326 -50 1348 -50 q 1302 -39 1310 -50 q 1184 41 1242 41 q 1152 33 1166 41 q 1120 -20 1120 13 q 1135 -53 1120 -38 q 1140 -65 1140 -58 q 1121 -83 1139 -83 q 1108 -77 1114 -83 q 1084 -20 1084 -50 q 1135 63 1084 33 q 1184 76 1157 76 q 1300 20 1244 76 q 1351 172 1300 120 q 1455 216 1393 216 q 1560 172 1512 216 q 1598 100 1588 144 q 1602 66 1602 84 q 1591 -1 1602 35 q 1514 -132 1565 -75 q 1294 -280 1427 -231 q 1145 -306 1221 -306 m 347 -304 q 130 -197 225 -304 q 43 -41 75 -132 q 0 229 0 82 q 43 513 0 372 q 201 789 93 673 q 360 903 269 861 q 380 907 370 907 q 420 882 408 907 q 425 862 425 872 q 399 822 425 836 q 340 736 373 808 q 255 466 294 633 q 206 132 216 300 q 205 79 205 104 q 234 -126 205 -41 q 379 -246 281 -246 q 427 -239 402 -246 q 524 -184 478 -224 q 594 -102 564 -149 q 726 313 690 57 q 743 559 743 438 q 722 805 743 700 q 653 978 700 922 q 578 1019 616 1019 q 528 988 543 1019 q 517 936 517 964 q 569 793 517 874 q 572 783 572 788 q 555 764 570 764 l 549 765 q 503 771 524 771 q 450 758 470 771 q 421 713 421 740 q 445 673 421 690 q 510 658 467 658 q 667 695 577 658 q 674 696 671 696 q 692 678 692 696 q 690 670 692 675 q 627 642 686 661 q 510 622 562 622 q 429 641 458 622 q 385 712 385 669 q 430 789 385 758 q 504 808 458 808 l 519 807 q 484 931 484 871 q 537 1056 484 1012 q 608 1080 565 1080 q 718 1017 664 1080 q 794 817 771 947 q 813 587 813 713 q 736 88 812 320 q 555 -221 669 -124 q 347 -304 458 -304 z "},"Ç":{"ha":934,"x_min":0,"x_max":914,"o":"m 370 -310 q 187 -239 271 -304 q 33 16 85 -159 q 0 262 0 133 q 154 817 0 567 q 363 1020 247 956 q 600 1084 480 1084 q 733 1062 671 1084 q 844 990 803 1036 q 914 793 914 912 q 908 726 914 760 q 847 589 889 634 q 741 534 796 534 q 633 612 656 538 q 630 637 630 625 q 669 740 630 682 q 650 739 659 739 q 591 751 616 739 q 540 827 544 777 q 557 846 540 845 q 576 829 575 846 q 582 810 577 819 q 648 774 599 774 q 719 792 678 774 q 726 794 723 794 q 743 784 738 794 q 745 776 745 780 q 738 762 745 768 q 692 706 707 733 q 672 643 672 671 q 675 623 672 632 q 741 575 691 575 q 817 616 779 575 q 868 729 850 653 q 876 800 876 764 q 868 869 876 834 q 722 1027 841 992 q 661 1036 692 1036 q 587 1025 625 1036 q 323 747 422 979 q 227 347 248 563 q 218 190 218 265 q 227 44 218 114 q 294 -163 245 -94 q 437 -248 352 -248 q 484 -241 460 -248 q 619 -157 556 -222 q 736 57 700 -72 q 757 73 740 73 q 780 52 780 71 l 779 45 q 651 -191 741 -98 q 500 -291 583 -261 q 399 -311 450 -309 q 387 -347 395 -329 q 376 -376 376 -371 q 379 -385 379 -380 q 373 -397 379 -392 q 364 -399 368 -399 q 358 -398 361 -399 q 326 -391 340 -391 q 309 -395 317 -391 q 264 -486 264 -412 q 288 -572 264 -539 q 315 -587 299 -587 q 363 -545 338 -587 q 383 -507 374 -530 q 397 -498 387 -498 q 403 -499 400 -498 q 412 -512 412 -503 q 410 -518 412 -515 q 386 -563 398 -543 q 282 -640 336 -640 q 265 -638 278 -640 q 233 -623 252 -637 q 170 -509 184 -582 q 168 -479 168 -494 q 173 -437 168 -461 q 200 -390 178 -412 q 292 -358 230 -358 q 349 -366 317 -358 q 359 -336 353 -353 q 370 -310 366 -322 z "},"È":{"ha":881,"x_min":0,"x_max":844,"o":"m 625 1124 q 583 1136 602 1124 q 528 1190 549 1158 q 503 1229 512 1213 q 491 1242 495 1240 q 469 1269 469 1247 q 498 1297 469 1297 q 564 1259 526 1297 l 582 1243 q 608 1230 597 1230 q 626 1238 618 1230 l 633 1239 q 670 1225 653 1239 q 691 1181 691 1209 q 677 1145 691 1162 q 625 1124 661 1124 m 363 -306 q 205 -271 279 -306 q 41 -128 99 -220 q 0 16 0 -61 q 172 294 0 174 q 498 437 292 380 q 454 475 475 456 q 329 617 381 538 q 264 820 264 718 q 425 1067 264 985 q 606 1109 514 1109 q 659 1106 632 1109 q 808 1026 762 1088 q 844 913 844 977 q 814 808 844 859 q 768 755 796 779 q 747 750 761 750 q 736 757 743 750 q 730 771 730 764 q 738 788 730 781 q 772 830 758 805 q 795 911 795 871 q 764 980 795 958 q 709 996 745 996 q 541 930 629 996 q 443 801 471 876 q 429 723 429 764 q 509 530 429 622 q 597 448 544 490 q 611 421 611 435 q 582 387 611 394 q 420 332 488 362 q 209 97 209 235 q 213 62 209 79 q 311 -83 232 -23 q 493 -146 398 -145 q 686 -89 607 -146 q 769 18 741 -47 q 779 63 779 41 q 744 143 779 111 q 671 172 715 172 q 648 170 660 172 q 572 91 597 161 q 564 23 564 62 q 566 -26 564 -4 q 545 -50 566 -50 q 520 -39 528 -50 q 402 41 460 41 q 370 33 385 41 q 338 -20 338 13 q 353 -53 338 -38 q 358 -65 358 -58 q 339 -83 357 -83 q 326 -77 332 -83 q 302 -20 302 -50 q 353 63 302 33 q 402 76 375 76 q 518 20 462 76 q 569 172 518 120 q 673 216 611 216 q 778 172 730 216 q 816 100 806 144 q 820 66 820 84 q 809 -1 820 35 q 732 -132 783 -75 q 512 -280 645 -231 q 363 -306 439 -306 z "},"É":{"ha":865,"x_min":0,"x_max":844,"o":"m 571 1121 q 518 1142 535 1121 q 505 1179 505 1159 q 526 1223 505 1206 q 562 1236 543 1236 l 570 1236 q 588 1227 578 1227 q 614 1240 599 1227 l 631 1257 q 697 1295 669 1295 q 727 1266 727 1295 q 705 1239 727 1244 q 693 1226 701 1238 q 668 1187 684 1210 q 613 1133 646 1155 q 571 1121 594 1121 m 363 -306 q 205 -271 279 -306 q 41 -128 99 -220 q 0 16 0 -61 q 172 294 0 174 q 498 437 292 380 q 454 475 475 456 q 329 617 381 538 q 264 820 264 718 q 425 1067 264 985 q 606 1109 514 1109 q 659 1106 632 1109 q 808 1026 762 1088 q 844 913 844 977 q 814 808 844 859 q 768 755 796 779 q 747 750 761 750 q 736 757 743 750 q 730 771 730 764 q 738 788 730 781 q 772 830 758 805 q 795 911 795 871 q 764 980 795 958 q 709 996 745 996 q 541 930 629 996 q 443 801 471 876 q 429 723 429 764 q 509 530 429 622 q 597 448 544 490 q 611 421 611 435 q 582 387 611 394 q 420 332 488 362 q 209 97 209 235 q 213 62 209 79 q 311 -83 232 -23 q 493 -146 398 -145 q 686 -89 607 -146 q 769 18 741 -47 q 779 63 779 41 q 744 143 779 111 q 671 172 715 172 q 648 170 660 172 q 572 91 597 161 q 564 23 564 62 q 566 -26 564 -4 q 545 -50 566 -50 q 520 -39 528 -50 q 402 41 460 41 q 370 33 385 41 q 338 -20 338 13 q 353 -53 338 -38 q 358 -65 358 -58 q 339 -83 357 -83 q 326 -77 332 -83 q 302 -20 302 -50 q 353 63 302 33 q 402 76 375 76 q 518 20 462 76 q 569 172 518 120 q 673 216 611 216 q 778 172 730 216 q 816 100 806 144 q 820 66 820 84 q 809 -1 820 35 q 732 -132 783 -75 q 512 -280 645 -231 q 363 -306 439 -306 z "},"Ê":{"ha":871,"x_min":0,"x_max":844,"o":"m 463 1107 q 450 1112 457 1107 q 441 1130 441 1117 q 458 1152 441 1147 q 498 1200 473 1154 q 521 1240 508 1220 q 600 1293 554 1289 q 654 1258 629 1293 q 677 1216 667 1239 q 729 1155 705 1156 q 745 1149 739 1155 q 751 1133 751 1143 q 745 1118 751 1124 q 730 1111 739 1112 q 680 1131 699 1112 q 637 1196 654 1158 q 600 1247 614 1247 q 574 1220 586 1247 l 565 1200 q 463 1107 538 1116 m 363 -306 q 205 -271 279 -306 q 41 -128 99 -220 q 0 16 0 -61 q 172 294 0 174 q 498 437 292 380 q 454 475 475 456 q 329 617 381 538 q 264 820 264 718 q 425 1067 264 985 q 606 1109 514 1109 q 659 1106 632 1109 q 808 1026 762 1088 q 844 913 844 977 q 814 808 844 859 q 768 755 796 779 q 747 750 761 750 q 736 757 743 750 q 730 771 730 764 q 738 788 730 781 q 772 830 758 805 q 795 911 795 871 q 764 980 795 958 q 709 996 745 996 q 541 930 629 996 q 443 801 471 876 q 429 723 429 764 q 509 530 429 622 q 597 448 544 490 q 611 421 611 435 q 582 387 611 394 q 420 332 488 362 q 209 97 209 235 q 213 62 209 79 q 311 -83 232 -23 q 493 -146 398 -145 q 686 -89 607 -146 q 769 18 741 -47 q 779 63 779 41 q 744 143 779 111 q 671 172 715 172 q 648 170 660 172 q 572 91 597 161 q 564 23 564 62 q 566 -26 564 -4 q 545 -50 566 -50 q 520 -39 528 -50 q 402 41 460 41 q 370 33 385 41 q 338 -20 338 13 q 353 -53 338 -38 q 358 -65 358 -58 q 339 -83 357 -83 q 326 -77 332 -83 q 302 -20 302 -50 q 353 63 302 33 q 402 76 375 76 q 518 20 462 76 q 569 172 518 120 q 673 216 611 216 q 778 172 730 216 q 816 100 806 144 q 820 66 820 84 q 809 -1 820 35 q 732 -132 783 -75 q 512 -280 645 -231 q 363 -306 439 -306 z "},"Ë":{"ha":886,"x_min":0,"x_max":844,"o":"m 541 1119 q 502 1138 517 1119 q 492 1168 492 1150 q 515 1217 494 1204 q 541 1225 528 1225 q 582 1204 567 1225 q 590 1175 590 1192 q 589 1162 590 1169 q 568 1127 584 1137 q 541 1119 555 1119 m 667 1119 q 628 1138 643 1119 q 618 1168 618 1150 q 642 1217 621 1204 q 667 1225 654 1225 q 709 1204 693 1225 q 717 1176 717 1192 q 715 1162 717 1170 q 694 1127 710 1137 q 667 1119 681 1119 m 363 -306 q 205 -271 279 -306 q 41 -128 99 -220 q 0 16 0 -61 q 172 294 0 174 q 498 437 292 380 q 454 475 475 456 q 329 617 381 538 q 264 820 264 718 q 425 1067 264 985 q 606 1109 514 1109 q 659 1106 632 1109 q 808 1026 762 1088 q 844 913 844 977 q 814 808 844 859 q 768 755 796 779 q 747 750 761 750 q 736 757 743 750 q 730 771 730 764 q 738 788 730 781 q 772 830 758 805 q 795 911 795 871 q 764 980 795 958 q 709 996 745 996 q 541 930 629 996 q 443 801 471 876 q 429 723 429 764 q 509 530 429 622 q 597 448 544 490 q 611 421 611 435 q 582 387 611 394 q 420 332 488 362 q 209 97 209 235 q 213 62 209 79 q 311 -83 232 -23 q 493 -146 398 -145 q 686 -89 607 -146 q 769 18 741 -47 q 779 63 779 41 q 744 143 779 111 q 671 172 715 172 q 648 170 660 172 q 572 91 597 161 q 564 23 564 62 q 566 -26 564 -4 q 545 -50 566 -50 q 520 -39 528 -50 q 402 41 460 41 q 370 33 385 41 q 338 -20 338 13 q 353 -53 338 -38 q 358 -65 358 -58 q 339 -83 357 -83 q 326 -77 332 -83 q 302 -20 302 -50 q 353 63 302 33 q 402 76 375 76 q 518 20 462 76 q 569 172 518 120 q 673 216 611 216 q 778 172 730 216 q 816 100 806 144 q 820 66 820 84 q 809 -1 820 35 q 732 -132 783 -75 q 512 -280 645 -231 q 363 -306 439 -306 z "},"Ì":{"ha":433,"x_min":0,"x_max":389,"o":"m 184 1104 q 141 1116 161 1104 q 86 1170 108 1138 q 61 1209 71 1193 q 50 1222 54 1221 q 28 1249 28 1227 q 57 1278 28 1278 q 123 1240 85 1278 l 140 1223 q 167 1211 155 1211 q 184 1219 176 1211 l 192 1219 q 229 1206 212 1219 q 250 1162 250 1190 q 236 1125 250 1142 q 184 1104 219 1104 m 244 -326 l 240 -326 q 211 -317 224 -326 q 67 37 67 -202 q 86 247 67 139 q 155 555 109 374 q 184 674 171 617 q 218 888 218 810 q 198 983 218 948 q 118 1038 165 1038 q 52 1001 75 1038 q 39 946 39 979 q 77 833 39 896 q 79 825 79 829 q 74 812 79 817 q 62 807 68 807 q 54 808 58 807 q 20 866 35 825 q 0 952 0 913 q 22 1029 0 998 q 137 1083 62 1083 q 266 1036 201 1083 q 366 888 330 989 q 389 734 389 824 q 332 401 389 603 l 274 205 q 212 -98 212 2 q 222 -178 212 -142 q 269 -252 235 -223 q 286 -284 286 -265 q 275 -311 286 -298 q 244 -326 262 -325 z "},"Í":{"ha":427,"x_min":0,"x_max":389,"o":"m 129 1101 q 76 1122 93 1101 q 63 1158 63 1139 q 84 1202 63 1186 q 120 1216 100 1216 l 127 1215 q 146 1207 136 1207 q 172 1220 157 1207 l 189 1236 q 255 1274 227 1274 q 285 1246 285 1274 q 262 1219 285 1224 q 251 1206 258 1217 q 226 1166 241 1190 q 171 1113 204 1135 q 129 1101 152 1101 m 244 -326 l 240 -326 q 211 -317 224 -326 q 67 37 67 -202 q 86 247 67 139 q 155 555 109 374 q 184 674 171 617 q 218 888 218 810 q 198 983 218 948 q 118 1038 165 1038 q 52 1001 75 1038 q 39 946 39 979 q 77 833 39 896 q 79 825 79 829 q 74 812 79 817 q 62 807 68 807 q 54 808 58 807 q 20 866 35 825 q 0 952 0 913 q 22 1029 0 998 q 137 1083 62 1083 q 266 1036 201 1083 q 366 888 330 989 q 389 734 389 824 q 332 401 389 603 l 274 205 q 212 -98 212 2 q 222 -178 212 -142 q 269 -252 235 -223 q 286 -284 286 -265 q 275 -311 286 -298 q 244 -326 262 -325 z "},"Î":{"ha":438,"x_min":0,"x_max":396,"o":"m 22 1093 q 9 1097 16 1093 q 0 1116 0 1103 q 17 1137 0 1133 q 57 1186 33 1140 q 80 1225 67 1206 q 159 1278 113 1274 q 214 1244 189 1278 q 237 1202 226 1225 q 288 1141 264 1142 q 304 1135 298 1141 q 311 1119 310 1128 q 304 1103 311 1109 q 289 1097 298 1097 q 239 1117 258 1097 q 197 1182 214 1144 q 159 1233 173 1233 q 133 1206 145 1233 l 124 1185 q 22 1093 98 1102 m 252 -326 l 248 -326 q 218 -317 232 -326 q 75 37 75 -202 q 94 247 75 139 q 163 555 116 374 q 192 674 178 617 q 226 888 226 810 q 205 983 226 948 q 125 1038 172 1038 q 60 1001 83 1038 q 47 946 47 979 q 84 833 47 896 q 87 825 87 829 q 81 812 87 817 q 69 807 76 807 q 62 808 66 807 q 27 866 43 825 q 7 952 7 913 q 29 1029 7 998 q 144 1083 69 1083 q 273 1036 208 1083 q 374 888 338 989 q 396 734 396 824 q 339 401 396 603 l 281 205 q 219 -98 219 2 q 229 -178 219 -142 q 277 -252 242 -223 q 293 -284 293 -265 q 283 -311 293 -298 q 252 -326 270 -325 z "},"Ï":{"ha":438,"x_min":0,"x_max":389,"o":"m 94 1104 q 55 1123 70 1104 q 45 1154 45 1135 q 68 1202 47 1190 q 94 1210 81 1210 q 135 1189 120 1210 q 143 1160 143 1177 q 142 1147 143 1154 q 121 1112 137 1122 q 94 1104 108 1104 m 220 1104 q 181 1123 196 1104 q 172 1154 172 1135 q 195 1202 174 1190 q 220 1210 208 1210 q 262 1189 246 1210 q 270 1161 270 1177 q 269 1147 270 1155 q 247 1112 263 1122 q 220 1104 234 1104 m 244 -326 l 240 -326 q 211 -317 224 -326 q 67 37 67 -202 q 86 247 67 139 q 155 555 109 374 q 184 674 171 617 q 218 888 218 810 q 198 983 218 948 q 118 1038 165 1038 q 52 1001 75 1038 q 39 946 39 979 q 77 833 39 896 q 79 825 79 829 q 74 812 79 817 q 62 807 68 807 q 54 808 58 807 q 20 866 35 825 q 0 952 0 913 q 22 1029 0 998 q 137 1083 62 1083 q 266 1036 201 1083 q 366 888 330 989 q 389 734 389 824 q 332 401 389 603 l 274 205 q 212 -98 212 2 q 222 -178 212 -142 q 269 -252 235 -223 q 286 -284 286 -265 q 275 -311 286 -298 q 244 -326 262 -325 z "},"Ð":{"ha":1235,"x_min":0,"x_max":1192,"o":"m 433 280 q 416 220 425 250 l 381 90 q 416 -26 408 -3 q 523 -227 458 -170 q 597 -257 557 -257 q 672 -231 635 -257 q 774 -118 726 -195 q 897 167 851 7 q 954 562 954 363 q 931 785 954 680 q 870 942 909 884 q 731 1027 812 1027 q 680 1018 705 1027 q 557 904 610 992 q 510 781 525 846 q 513 715 513 750 q 475 439 513 604 q 672 511 595 454 q 694 525 680 525 q 707 522 701 525 q 720 496 720 513 q 717 484 720 490 q 581 334 663 387 q 433 280 512 290 m 260 443 q 279 525 269 482 l 309 652 q 342 879 342 799 q 322 980 342 943 q 241 1038 289 1038 q 176 999 200 1038 q 163 940 163 976 q 201 821 163 888 q 203 812 203 817 q 202 805 203 808 q 186 793 197 793 q 178 795 182 793 q 121 806 147 806 q 70 792 88 806 q 47 749 47 774 q 94 688 47 709 q 154 677 118 677 q 290 708 216 677 q 296 709 293 709 q 305 707 300 709 q 315 691 315 703 q 303 674 315 680 l 267 661 q 141 638 199 638 q 77 648 104 638 q 0 747 0 680 q 6 783 0 760 q 42 825 13 806 q 110 844 68 844 q 151 840 132 844 q 124 947 124 901 q 146 1029 124 996 q 260 1086 186 1086 q 390 1036 325 1086 q 490 880 454 986 l 492 872 q 519 925 503 899 q 659 1059 576 1019 q 791 1090 723 1090 q 991 1023 897 1090 q 1139 833 1092 946 q 1192 554 1192 711 q 1190 506 1192 530 q 1091 115 1177 304 q 873 -198 1006 -74 q 696 -303 786 -278 q 631 -313 663 -313 q 565 -302 597 -313 q 431 -183 483 -273 q 359 1 384 -102 l 347 -58 q 336 -168 336 -117 q 346 -253 336 -214 q 393 -330 359 -300 q 410 -364 410 -345 q 398 -394 410 -380 q 368 -410 387 -408 l 364 -410 q 335 -399 349 -410 q 191 -24 191 -277 q 210 199 191 83 q 229 301 218 245 q 75 371 153 325 q 43 422 43 386 q 47 444 43 433 q 75 475 56 467 q 95 479 85 479 q 115 475 104 479 q 216 450 134 465 q 260 443 238 446 z "},"Ñ":{"ha":1383,"x_min":0,"x_max":1341,"o":"m 948 1078 q 943 1080 945 1078 q 934 1096 934 1084 q 935 1102 934 1099 q 966 1151 947 1135 q 1029 1168 989 1168 q 1108 1157 1057 1168 q 1164 1149 1143 1149 q 1219 1167 1198 1149 q 1231 1175 1223 1175 q 1238 1173 1234 1175 q 1245 1158 1245 1168 q 1244 1150 1245 1154 q 1130 1080 1214 1080 q 1040 1090 1095 1080 q 988 1097 1006 1097 q 961 1088 968 1097 q 948 1078 958 1078 m 280 -301 q 186 -281 231 -301 q 64 -176 113 -250 q 0 53 0 -81 q 20 183 0 121 q 117 307 49 268 q 176 323 147 323 q 269 259 240 323 q 283 191 283 231 q 277 140 283 165 q 362 170 326 170 q 384 167 374 170 q 449 100 438 151 q 452 79 452 89 q 419 7 452 41 q 306 -32 380 -32 q 206 -18 258 -32 q 193 -1 193 -14 q 211 18 195 18 l 215 17 q 304 4 263 4 q 394 33 363 4 q 415 79 415 55 q 376 132 415 120 q 362 134 369 134 q 258 78 317 134 q 244 72 252 72 q 226 90 226 75 q 227 96 226 92 q 247 193 247 153 q 236 242 247 224 q 198 264 222 264 q 159 252 180 264 q 94 162 117 223 q 68 14 68 94 q 108 -149 68 -80 q 211 -239 148 -218 q 254 -247 232 -247 q 307 -237 280 -247 q 511 73 440 -180 q 582 606 582 321 q 540 925 582 811 q 450 1014 505 1014 q 418 1026 431 1014 q 404 1058 405 1038 q 417 1090 404 1077 q 448 1103 429 1103 q 667 1017 582 1098 q 795 712 778 905 q 875 888 833 817 q 982 1010 922 968 q 1103 1053 1042 1053 q 1310 853 1240 1053 q 1341 639 1341 757 q 1326 437 1341 547 q 1274 136 1312 332 q 1232 -144 1232 -73 q 1238 -203 1232 -180 q 1280 -236 1249 -236 l 1293 -235 q 1311 -242 1302 -235 q 1320 -262 1320 -248 q 1263 -292 1320 -292 q 1168 -239 1201 -292 q 1112 -4 1119 -159 q 1109 115 1109 54 q 1124 454 1109 216 q 1138 743 1138 647 q 1135 833 1138 792 q 1101 957 1128 921 q 1052 985 1080 985 q 916 869 986 985 q 801 577 854 764 q 784 412 798 496 q 595 -84 735 126 q 422 -260 515 -204 q 280 -301 353 -301 z "},"Ò":{"ha":850,"x_min":0,"x_max":813,"o":"m 517 1098 q 475 1110 494 1098 q 420 1164 441 1132 q 395 1203 404 1187 q 383 1216 387 1215 q 361 1243 361 1221 q 391 1272 361 1272 q 456 1234 418 1272 l 474 1217 q 500 1204 489 1204 q 518 1213 510 1204 l 526 1213 q 562 1200 545 1213 q 583 1156 583 1183 q 570 1119 583 1136 q 517 1098 553 1098 m 347 -304 q 130 -197 225 -304 q 43 -41 75 -132 q 0 229 0 82 q 43 513 0 372 q 201 789 93 673 q 360 903 269 861 q 380 907 370 907 q 420 882 408 907 q 425 862 425 872 q 399 822 425 836 q 340 736 373 808 q 255 466 294 633 q 206 132 216 300 q 205 79 205 104 q 234 -126 205 -41 q 379 -246 281 -246 q 427 -239 402 -246 q 524 -184 478 -224 q 594 -102 564 -149 q 726 313 690 57 q 743 559 743 438 q 722 805 743 700 q 653 978 700 922 q 578 1019 616 1019 q 528 988 543 1019 q 517 936 517 964 q 569 793 517 874 q 572 783 572 788 q 555 764 570 764 l 549 765 q 503 771 524 771 q 450 758 470 771 q 421 713 421 740 q 445 673 421 690 q 510 658 467 658 q 667 695 577 658 q 674 696 671 696 q 692 678 692 696 q 690 670 692 675 q 627 642 686 661 q 510 622 562 622 q 429 641 458 622 q 385 712 385 669 q 430 789 385 758 q 504 808 458 808 l 519 807 q 484 931 484 871 q 537 1056 484 1012 q 608 1080 565 1080 q 718 1017 664 1080 q 794 817 771 947 q 813 587 813 713 q 736 88 812 320 q 555 -221 669 -124 q 347 -304 458 -304 z "},"Ó":{"ha":855,"x_min":0,"x_max":813,"o":"m 499 1078 q 446 1099 463 1078 q 433 1135 433 1116 q 454 1179 433 1163 q 490 1193 471 1193 l 498 1192 q 516 1184 507 1184 q 542 1197 527 1184 l 559 1213 q 625 1251 597 1251 q 655 1223 655 1251 q 633 1196 655 1201 q 621 1183 629 1194 q 596 1143 612 1166 q 541 1090 574 1112 q 499 1078 522 1078 m 347 -304 q 130 -197 225 -304 q 43 -41 75 -132 q 0 229 0 82 q 43 513 0 372 q 201 789 93 673 q 360 903 269 861 q 380 907 370 907 q 420 882 408 907 q 425 862 425 872 q 399 822 425 836 q 340 736 373 808 q 255 466 294 633 q 206 132 216 300 q 205 79 205 104 q 234 -126 205 -41 q 379 -246 281 -246 q 427 -239 402 -246 q 524 -184 478 -224 q 594 -102 564 -149 q 726 313 690 57 q 743 559 743 438 q 722 805 743 700 q 653 978 700 922 q 578 1019 616 1019 q 528 988 543 1019 q 517 936 517 964 q 569 793 517 874 q 572 783 572 788 q 555 764 570 764 l 549 765 q 503 771 524 771 q 450 758 470 771 q 421 713 421 740 q 445 673 421 690 q 510 658 467 658 q 667 695 577 658 q 674 696 671 696 q 692 678 692 696 q 690 670 692 675 q 627 642 686 661 q 510 622 562 622 q 429 641 458 622 q 385 712 385 669 q 430 789 385 758 q 504 808 458 808 l 519 807 q 484 931 484 871 q 537 1056 484 1012 q 608 1080 565 1080 q 718 1017 664 1080 q 794 817 771 947 q 813 587 813 713 q 736 88 812 320 q 555 -221 669 -124 q 347 -304 458 -304 z "},"Ô":{"ha":850,"x_min":0,"x_max":813,"o":"m 430 1069 q 418 1073 425 1069 q 408 1091 408 1078 q 425 1113 408 1108 q 465 1162 441 1116 q 488 1201 475 1181 q 567 1254 522 1250 q 622 1219 597 1254 q 645 1177 634 1200 q 696 1116 672 1118 q 712 1110 706 1116 q 719 1095 718 1104 q 713 1079 719 1085 q 697 1072 707 1073 q 647 1093 666 1073 q 605 1158 622 1120 q 567 1208 581 1208 q 541 1181 553 1208 l 532 1161 q 430 1069 506 1078 m 347 -304 q 130 -197 225 -304 q 43 -41 75 -132 q 0 229 0 82 q 43 513 0 372 q 201 789 93 673 q 360 903 269 861 q 380 907 370 907 q 420 882 408 907 q 425 862 425 872 q 399 822 425 836 q 340 736 373 808 q 255 466 294 633 q 206 132 216 300 q 205 79 205 104 q 234 -126 205 -41 q 379 -246 281 -246 q 427 -239 402 -246 q 524 -184 478 -224 q 594 -102 564 -149 q 726 313 690 57 q 743 559 743 438 q 722 805 743 700 q 653 978 700 922 q 578 1019 616 1019 q 528 988 543 1019 q 517 936 517 964 q 569 793 517 874 q 572 783 572 788 q 555 764 570 764 l 549 765 q 503 771 524 771 q 450 758 470 771 q 421 713 421 740 q 445 673 421 690 q 510 658 467 658 q 667 695 577 658 q 674 696 671 696 q 692 678 692 696 q 690 670 692 675 q 627 642 686 661 q 510 622 562 622 q 429 641 458 622 q 385 712 385 669 q 430 789 385 758 q 504 808 458 808 l 519 807 q 484 931 484 871 q 537 1056 484 1012 q 608 1080 565 1080 q 718 1017 664 1080 q 794 817 771 947 q 813 587 813 713 q 736 88 812 320 q 555 -221 669 -124 q 347 -304 458 -304 z "},"Õ":{"ha":844,"x_min":0,"x_max":813,"o":"m 395 1086 q 389 1088 392 1086 q 380 1105 380 1093 q 382 1111 380 1107 q 413 1160 393 1143 q 475 1177 436 1177 q 555 1166 503 1177 q 610 1158 589 1158 q 665 1176 645 1158 q 677 1184 669 1184 q 685 1182 681 1184 q 692 1166 692 1177 q 690 1159 692 1162 q 576 1089 661 1089 q 486 1099 542 1089 q 435 1106 453 1106 q 408 1097 414 1106 q 395 1086 404 1087 m 347 -304 q 130 -197 225 -304 q 43 -41 75 -132 q 0 229 0 82 q 43 513 0 372 q 201 789 93 673 q 360 903 269 861 q 380 907 370 907 q 420 882 408 907 q 425 862 425 872 q 399 822 425 836 q 340 736 373 808 q 255 466 294 633 q 206 132 216 300 q 205 79 205 104 q 234 -126 205 -41 q 379 -246 281 -246 q 427 -239 402 -246 q 524 -184 478 -224 q 594 -102 564 -149 q 726 313 690 57 q 743 559 743 438 q 722 805 743 700 q 653 978 700 922 q 578 1019 616 1019 q 528 988 543 1019 q 517 936 517 964 q 569 793 517 874 q 572 783 572 788 q 555 764 570 764 l 549 765 q 503 771 524 771 q 450 758 470 771 q 421 713 421 740 q 445 673 421 690 q 510 658 467 658 q 667 695 577 658 q 674 696 671 696 q 692 678 692 696 q 690 670 692 675 q 627 642 686 661 q 510 622 562 622 q 429 641 458 622 q 385 712 385 669 q 430 789 385 758 q 504 808 458 808 l 519 807 q 484 931 484 871 q 537 1056 484 1012 q 608 1080 565 1080 q 718 1017 664 1080 q 794 817 771 947 q 813 587 813 713 q 736 88 812 320 q 555 -221 669 -124 q 347 -304 458 -304 z "},"Ö":{"ha":850,"x_min":0,"x_max":813,"o":"m 449 1089 q 410 1108 425 1089 q 400 1139 400 1120 q 423 1187 402 1175 q 448 1195 435 1195 q 490 1174 475 1195 q 498 1145 498 1162 q 497 1133 498 1139 q 475 1097 492 1107 q 449 1089 463 1089 m 575 1089 q 536 1108 551 1089 q 526 1139 526 1120 q 549 1187 528 1175 q 575 1195 562 1195 q 616 1174 601 1195 q 625 1146 625 1162 q 623 1133 625 1140 q 602 1097 618 1107 q 575 1089 589 1089 m 347 -304 q 130 -197 225 -304 q 43 -41 75 -132 q 0 229 0 82 q 43 513 0 372 q 201 789 93 673 q 360 903 269 861 q 380 907 370 907 q 420 882 408 907 q 425 862 425 872 q 399 822 425 836 q 340 736 373 808 q 255 466 294 633 q 206 132 216 300 q 205 79 205 104 q 234 -126 205 -41 q 379 -246 281 -246 q 427 -239 402 -246 q 524 -184 478 -224 q 594 -102 564 -149 q 726 313 690 57 q 743 559 743 438 q 722 805 743 700 q 653 978 700 922 q 578 1019 616 1019 q 528 988 543 1019 q 517 936 517 964 q 569 793 517 874 q 572 783 572 788 q 555 764 570 764 l 549 765 q 503 771 524 771 q 450 758 470 771 q 421 713 421 740 q 445 673 421 690 q 510 658 467 658 q 667 695 577 658 q 674 696 671 696 q 692 678 692 696 q 690 670 692 675 q 627 642 686 661 q 510 622 562 622 q 429 641 458 622 q 385 712 385 669 q 430 789 385 758 q 504 808 458 808 l 519 807 q 484 931 484 871 q 537 1056 484 1012 q 608 1080 565 1080 q 718 1017 664 1080 q 794 817 771 947 q 813 587 813 713 q 736 88 812 320 q 555 -221 669 -124 q 347 -304 458 -304 z "},"×":{"ha":970,"x_min":0,"x_max":970,"o":"m 485 5 q 233 -220 376 -130 q 59 -304 151 -272 q 44 -307 52 -307 q 25 -302 35 -307 q 0 -262 0 -291 q 4 -243 0 -252 q 30 -220 12 -227 q 165 -132 94 -197 q 350 88 258 -48 q 387 145 369 116 q 307 302 343 219 q 190 843 190 568 q 193 920 190 882 q 229 1086 203 1068 q 254 1094 241 1094 q 291 1074 277 1094 q 298 1050 298 1063 l 298 1041 q 346 700 300 879 q 471 355 393 520 q 485 325 477 340 q 499 355 492 340 q 624 700 577 520 q 672 1041 670 879 l 671 1050 q 679 1074 671 1063 q 715 1094 692 1094 q 741 1086 729 1094 q 777 920 768 1068 q 780 843 780 882 q 663 302 780 568 q 583 145 627 219 q 620 88 601 116 q 804 -132 711 -48 q 940 -220 876 -197 q 966 -243 958 -227 q 970 -262 970 -252 q 945 -302 970 -291 q 926 -307 936 -307 q 911 -304 918 -307 q 737 -220 819 -272 q 485 5 594 -130 z "},"Ø":{"ha":1013,"x_min":0,"x_max":998,"o":"m 495 686 l 496 687 q 713 813 602 766 q 668 954 697 894 q 550 1042 618 1042 q 456 999 498 1042 q 397 888 413 956 q 393 842 393 865 q 410 760 393 800 q 479 690 433 709 q 495 686 487 687 m 772 713 q 779 560 779 642 q 765 331 779 442 q 613 -123 730 41 q 505 -219 568 -183 q 339 -264 425 -264 q 257 -253 304 -264 q 159 -202 210 -242 q 109 -151 131 -179 q 85 -231 95 -191 q 70 -261 82 -251 q 44 -272 58 -272 q 10 -256 24 -272 q 0 -227 0 -245 q 30 -24 5 -126 l 34 -8 q 2 209 2 89 q 23 394 2 300 q 151 683 59 556 q 290 810 210 762 q 314 818 302 818 q 356 787 345 818 q 349 845 349 816 q 354 895 349 869 q 423 1030 371 978 q 550 1086 481 1086 q 578 1084 564 1086 q 708 971 654 1071 q 755 829 738 910 q 952 873 851 863 l 957 873 l 966 872 q 998 830 998 864 q 997 821 998 825 q 960 789 990 793 q 814 738 895 783 q 772 713 793 726 m 208 75 q 269 -112 225 -39 q 409 -197 326 -197 q 483 -179 446 -197 q 578 -97 536 -153 q 681 130 645 -1 q 735 568 735 328 q 730 686 735 631 q 595 575 665 640 q 208 75 362 361 m 200 366 q 258 448 227 408 q 454 653 346 564 q 372 743 401 683 q 357 782 363 762 l 358 774 q 337 736 358 750 q 267 646 296 709 q 200 369 215 533 l 200 366 z "},"Ù":{"ha":1182,"x_min":0,"x_max":1137,"o":"m 756 1139 q 713 1151 733 1139 q 659 1204 680 1173 q 633 1244 643 1227 q 622 1257 626 1255 q 600 1284 600 1262 q 629 1312 600 1312 q 695 1274 657 1312 l 713 1258 q 739 1245 728 1245 q 757 1253 749 1245 l 764 1254 q 801 1240 784 1254 q 822 1196 822 1224 q 808 1160 822 1177 q 756 1139 791 1139 m 1004 -323 q 974 -307 985 -323 q 905 -187 923 -261 q 890 -52 890 -126 q 935 298 890 80 l 966 462 q 726 -169 865 8 q 605 -279 667 -245 q 514 -304 558 -304 q 341 -127 394 -304 q 318 71 318 -47 q 361 398 318 194 l 422 710 q 437 857 437 793 q 435 899 437 879 q 382 1018 425 992 q 330 1033 358 1033 q 275 1021 304 1033 q 172 954 223 1000 q 70 809 96 887 q 64 774 64 789 q 73 741 64 753 q 109 723 85 723 q 233 801 161 723 q 245 806 238 806 q 259 801 253 806 q 264 789 264 796 q 263 783 264 786 q 252 715 252 744 q 270 654 252 673 q 307 637 287 637 q 367 685 351 637 q 370 708 370 695 q 297 848 370 770 q 293 859 293 853 q 298 873 293 868 q 310 878 303 878 q 365 823 327 878 q 407 706 407 761 q 402 675 407 690 q 333 605 383 619 q 307 601 319 601 q 244 629 272 601 q 216 715 216 658 l 216 736 q 125 692 176 703 q 104 690 114 690 q 39 713 66 690 q 0 799 0 746 q 55 931 0 861 q 129 1004 92 977 q 357 1089 248 1089 q 589 924 519 1089 q 621 734 621 848 q 576 405 621 604 q 530 211 553 306 q 498 79 513 142 q 470 -122 470 -43 q 540 -256 472 -256 q 585 -242 560 -256 q 688 -144 634 -215 q 932 522 835 48 q 1014 1076 985 776 q 1026 1101 1016 1091 q 1053 1110 1036 1110 q 1074 1103 1063 1110 q 1087 1078 1085 1096 q 1137 755 1137 935 q 1069 266 1137 543 l 1052 192 q 996 -132 996 -36 q 1036 -269 996 -222 q 1041 -287 1041 -278 q 1023 -318 1041 -307 q 1004 -323 1015 -323 z "},"Ú":{"ha":1171,"x_min":0,"x_max":1137,"o":"m 717 1128 q 664 1149 681 1128 q 651 1186 651 1166 q 672 1230 651 1214 q 708 1244 688 1244 l 715 1243 q 734 1235 724 1235 q 760 1248 745 1235 l 777 1264 q 843 1302 815 1302 q 873 1274 873 1302 q 850 1246 873 1252 q 839 1234 846 1245 q 814 1194 829 1217 q 759 1141 792 1162 q 717 1128 740 1128 m 1004 -323 q 974 -307 985 -323 q 905 -187 923 -261 q 890 -52 890 -126 q 935 298 890 80 l 966 462 q 726 -169 865 8 q 605 -279 667 -245 q 514 -304 558 -304 q 341 -127 394 -304 q 318 71 318 -47 q 361 398 318 194 l 422 710 q 437 857 437 793 q 435 899 437 879 q 382 1018 425 992 q 330 1033 358 1033 q 275 1021 304 1033 q 172 954 223 1000 q 70 809 96 887 q 64 774 64 789 q 73 741 64 753 q 109 723 85 723 q 233 801 161 723 q 245 806 238 806 q 259 801 253 806 q 264 789 264 796 q 263 783 264 786 q 252 715 252 744 q 270 654 252 673 q 307 637 287 637 q 367 685 351 637 q 370 708 370 695 q 297 848 370 770 q 293 859 293 853 q 298 873 293 868 q 310 878 303 878 q 365 823 327 878 q 407 706 407 761 q 402 675 407 690 q 333 605 383 619 q 307 601 319 601 q 244 629 272 601 q 216 715 216 658 l 216 736 q 125 692 176 703 q 104 690 114 690 q 39 713 66 690 q 0 799 0 746 q 55 931 0 861 q 129 1004 92 977 q 357 1089 248 1089 q 589 924 519 1089 q 621 734 621 848 q 576 405 621 604 q 530 211 553 306 q 498 79 513 142 q 470 -122 470 -43 q 540 -256 472 -256 q 585 -242 560 -256 q 688 -144 634 -215 q 932 522 835 48 q 1014 1076 985 776 q 1026 1101 1016 1091 q 1053 1110 1036 1110 q 1074 1103 1063 1110 q 1087 1078 1085 1096 q 1137 755 1137 935 q 1069 266 1137 543 l 1052 192 q 996 -132 996 -36 q 1036 -269 996 -222 q 1041 -287 1041 -278 q 1023 -318 1041 -307 q 1004 -323 1015 -323 z "},"Û":{"ha":1171,"x_min":0,"x_max":1137,"o":"m 623 1131 q 610 1135 617 1131 q 601 1153 601 1140 q 618 1175 601 1170 q 658 1223 633 1177 q 681 1263 668 1243 q 760 1316 714 1312 q 814 1281 789 1316 q 838 1239 827 1262 q 889 1178 865 1179 q 905 1172 899 1178 q 911 1156 911 1166 q 905 1141 911 1147 q 890 1134 899 1135 q 840 1154 859 1135 q 798 1219 814 1181 q 760 1270 774 1270 q 734 1243 746 1270 l 725 1223 q 623 1131 699 1139 m 1004 -323 q 974 -307 985 -323 q 905 -187 923 -261 q 890 -52 890 -126 q 935 298 890 80 l 966 462 q 726 -169 865 8 q 605 -279 667 -245 q 514 -304 558 -304 q 341 -127 394 -304 q 318 71 318 -47 q 361 398 318 194 l 422 710 q 437 857 437 793 q 435 899 437 879 q 382 1018 425 992 q 330 1033 358 1033 q 275 1021 304 1033 q 172 954 223 1000 q 70 809 96 887 q 64 774 64 789 q 73 741 64 753 q 109 723 85 723 q 233 801 161 723 q 245 806 238 806 q 259 801 253 806 q 264 789 264 796 q 263 783 264 786 q 252 715 252 744 q 270 654 252 673 q 307 637 287 637 q 367 685 351 637 q 370 708 370 695 q 297 848 370 770 q 293 859 293 853 q 298 873 293 868 q 310 878 303 878 q 365 823 327 878 q 407 706 407 761 q 402 675 407 690 q 333 605 383 619 q 307 601 319 601 q 244 629 272 601 q 216 715 216 658 l 216 736 q 125 692 176 703 q 104 690 114 690 q 39 713 66 690 q 0 799 0 746 q 55 931 0 861 q 129 1004 92 977 q 357 1089 248 1089 q 589 924 519 1089 q 621 734 621 848 q 576 405 621 604 q 530 211 553 306 q 498 79 513 142 q 470 -122 470 -43 q 540 -256 472 -256 q 585 -242 560 -256 q 688 -144 634 -215 q 932 522 835 48 q 1014 1076 985 776 q 1026 1101 1016 1091 q 1053 1110 1036 1110 q 1074 1103 1063 1110 q 1087 1078 1085 1096 q 1137 755 1137 935 q 1069 266 1137 543 l 1052 192 q 996 -132 996 -36 q 1036 -269 996 -222 q 1041 -287 1041 -278 q 1023 -318 1041 -307 q 1004 -323 1015 -323 z "},"Ü":{"ha":1171,"x_min":0,"x_max":1137,"o":"m 682 1162 q 643 1181 658 1162 q 633 1211 633 1193 q 656 1260 635 1247 q 682 1267 669 1267 q 723 1246 708 1267 q 731 1218 731 1235 q 730 1205 731 1212 q 709 1170 725 1180 q 682 1162 696 1162 m 849 1162 q 810 1181 825 1162 q 800 1211 800 1193 q 823 1260 802 1247 q 849 1267 836 1267 q 890 1246 875 1267 q 899 1219 899 1235 q 897 1205 899 1213 q 876 1170 892 1180 q 849 1162 863 1162 m 1004 -323 q 974 -307 985 -323 q 905 -187 923 -261 q 890 -52 890 -126 q 935 298 890 80 l 966 462 q 726 -169 865 8 q 605 -279 667 -245 q 514 -304 558 -304 q 341 -127 394 -304 q 318 71 318 -47 q 361 398 318 194 l 422 710 q 437 857 437 793 q 435 899 437 879 q 382 1018 425 992 q 330 1033 358 1033 q 275 1021 304 1033 q 172 954 223 1000 q 70 809 96 887 q 64 774 64 789 q 73 741 64 753 q 109 723 85 723 q 233 801 161 723 q 245 806 238 806 q 259 801 253 806 q 264 789 264 796 q 263 783 264 786 q 252 715 252 744 q 270 654 252 673 q 307 637 287 637 q 367 685 351 637 q 370 708 370 695 q 297 848 370 770 q 293 859 293 853 q 298 873 293 868 q 310 878 303 878 q 365 823 327 878 q 407 706 407 761 q 402 675 407 690 q 333 605 383 619 q 307 601 319 601 q 244 629 272 601 q 216 715 216 658 l 216 736 q 125 692 176 703 q 104 690 114 690 q 39 713 66 690 q 0 799 0 746 q 55 931 0 861 q 129 1004 92 977 q 357 1089 248 1089 q 589 924 519 1089 q 621 734 621 848 q 576 405 621 604 q 530 211 553 306 q 498 79 513 142 q 470 -122 470 -43 q 540 -256 472 -256 q 585 -242 560 -256 q 688 -144 634 -215 q 932 522 835 48 q 1014 1076 985 776 q 1026 1101 1016 1091 q 1053 1110 1036 1110 q 1074 1103 1063 1110 q 1087 1078 1085 1096 q 1137 755 1137 935 q 1069 266 1137 543 l 1052 192 q 996 -132 996 -36 q 1036 -269 996 -222 q 1041 -287 1041 -278 q 1023 -318 1041 -307 q 1004 -323 1015 -323 z "},"Ý":{"ha":839,"x_min":0,"x_max":801,"o":"m 389 1128 q 336 1149 353 1128 q 323 1186 323 1166 q 344 1230 323 1214 q 380 1244 360 1244 l 387 1243 q 406 1235 396 1235 q 431 1248 416 1235 l 449 1264 q 515 1302 487 1302 q 545 1274 545 1302 q 522 1246 545 1252 q 511 1234 518 1245 q 486 1194 501 1217 q 431 1141 464 1162 q 389 1128 412 1128 m 279 -308 q 185 -288 230 -308 q 64 -183 113 -256 q 0 46 0 -87 q 20 176 0 115 q 116 300 49 261 q 175 316 147 316 q 269 252 239 316 q 282 184 282 224 q 277 134 282 165 q 361 163 325 163 q 384 160 373 163 q 449 93 437 144 q 451 73 451 83 q 418 0 451 35 q 305 -39 381 -39 q 205 -24 257 -39 q 192 -7 192 -21 q 211 11 194 11 l 215 10 q 304 -3 263 -3 q 393 26 363 -3 q 414 72 414 48 q 375 125 414 113 q 361 127 369 127 q 258 71 316 127 q 245 65 252 65 q 226 83 226 68 l 227 89 q 247 188 247 144 q 236 235 247 218 q 197 258 221 258 q 159 245 179 258 q 93 155 117 216 q 67 7 67 87 q 107 -156 67 -86 q 210 -246 148 -225 q 254 -254 231 -254 q 307 -243 279 -254 q 511 65 440 -186 q 582 593 582 317 q 539 918 582 803 l 538 921 q 532 830 538 878 q 469 584 517 705 q 363 425 427 484 q 222 359 292 359 q 118 434 156 359 q 94 574 94 485 q 121 777 94 663 q 149 955 148 901 q 134 1000 149 990 q 108 1041 108 1014 q 113 1061 108 1050 q 153 1086 125 1086 q 174 1081 163 1086 q 271 977 247 1047 q 290 856 290 921 q 286 798 290 827 q 249 591 273 688 q 234 479 234 520 q 266 417 234 417 q 333 456 294 417 q 427 600 390 515 q 493 921 493 766 q 486 996 493 964 q 450 1007 469 1007 q 418 1019 431 1007 q 404 1051 405 1031 q 417 1083 404 1070 q 448 1097 429 1096 q 666 1010 583 1091 q 791 735 768 908 q 801 599 801 669 q 784 406 801 505 q 595 -91 735 123 q 422 -267 516 -210 q 279 -308 353 -308 z "},"Ÿ":{"ha":850,"x_min":0,"x_max":801,"o":"m 320 1113 q 281 1132 296 1113 q 271 1162 271 1144 q 294 1211 273 1198 q 319 1219 307 1219 q 361 1198 346 1219 q 369 1169 369 1186 q 368 1156 369 1163 q 347 1121 363 1131 q 320 1113 334 1113 m 487 1113 q 448 1132 463 1113 q 438 1162 438 1144 q 461 1211 440 1198 q 487 1219 474 1219 q 528 1198 513 1219 q 536 1170 536 1186 q 535 1156 536 1164 q 513 1121 530 1131 q 487 1113 500 1113 m 279 -308 q 185 -288 230 -308 q 64 -183 113 -256 q 0 46 0 -87 q 20 176 0 115 q 116 300 49 261 q 175 316 147 316 q 269 252 239 316 q 282 184 282 224 q 277 134 282 165 q 361 163 325 163 q 384 160 373 163 q 449 93 437 144 q 451 73 451 83 q 418 0 451 35 q 305 -39 381 -39 q 205 -24 257 -39 q 192 -7 192 -21 q 211 11 194 11 l 215 10 q 304 -3 263 -3 q 393 26 363 -3 q 414 72 414 48 q 375 125 414 113 q 361 127 369 127 q 258 71 316 127 q 245 65 252 65 q 226 83 226 68 l 227 89 q 247 188 247 144 q 236 235 247 218 q 197 258 221 258 q 159 245 179 258 q 93 155 117 216 q 67 7 67 87 q 107 -156 67 -86 q 210 -246 148 -225 q 254 -254 231 -254 q 307 -243 279 -254 q 511 65 440 -186 q 582 593 582 317 q 539 918 582 803 l 538 921 q 532 830 538 878 q 469 584 517 705 q 363 425 427 484 q 222 359 292 359 q 118 434 156 359 q 94 574 94 485 q 121 777 94 663 q 149 955 148 901 q 134 1000 149 990 q 108 1041 108 1014 q 113 1061 108 1050 q 153 1086 125 1086 q 174 1081 163 1086 q 271 977 247 1047 q 290 856 290 921 q 286 798 290 827 q 249 591 273 688 q 234 479 234 520 q 266 417 234 417 q 333 456 294 417 q 427 600 390 515 q 493 921 493 766 q 486 996 493 964 q 450 1007 469 1007 q 418 1019 431 1007 q 404 1051 405 1031 q 417 1083 404 1070 q 448 1097 429 1096 q 666 1010 583 1091 q 791 735 768 908 q 801 599 801 669 q 784 406 801 505 q 595 -91 735 123 q 422 -267 516 -210 q 279 -308 353 -308 z "},"Þ":{"ha":744,"x_min":0,"x_max":724,"o":"m 288 -304 q 261 -293 273 -304 q 153 -163 200 -234 q 0 392 0 73 q 50 734 0 563 q 198 1042 101 908 q 230 1059 210 1059 q 252 1051 241 1059 q 269 1021 269 1040 q 261 998 269 1008 q 176 709 205 871 q 378 744 283 744 q 679 598 591 744 q 724 429 724 522 q 658 212 724 317 q 447 45 588 101 q 255 14 363 14 q 194 17 226 14 q 315 -237 239 -163 q 327 -264 326 -249 q 316 -291 327 -279 q 288 -304 304 -303 m 199 66 q 250 69 225 66 q 408 133 343 83 q 512 271 478 189 q 542 415 542 343 q 481 594 542 523 q 359 666 437 646 q 292 673 328 673 q 168 656 231 673 q 150 407 150 531 q 183 66 150 221 l 199 66 z "},"ß":{"ha":808,"x_min":0,"x_max":787,"o":"m 288 -304 q 260 -293 272 -304 q 153 -163 199 -234 q 0 387 0 72 q 50 734 0 565 q 197 1042 100 908 q 229 1059 210 1059 q 252 1051 241 1059 q 268 1019 268 1039 q 260 998 268 1008 q 235 934 247 966 q 238 938 236 936 q 242 944 240 941 q 373 1044 300 1013 q 488 1067 429 1067 q 705 968 611 1067 q 774 849 753 917 q 787 769 787 810 q 613 467 787 602 q 498 380 515 393 q 592 327 552 356 q 722 104 722 233 q 720 65 722 97 q 691 -16 718 34 q 521 -153 636 -117 q 450 -162 487 -162 q 266 -102 357 -162 q 258 -83 258 -95 q 262 -71 258 -77 q 279 -62 269 -62 q 293 -66 286 -62 q 361 -81 328 -81 q 468 -46 419 -81 q 550 53 521 -9 q 574 159 574 104 q 468 342 574 274 q 437 373 437 361 q 451 400 437 382 q 535 541 493 458 q 584 747 584 646 q 559 887 584 826 q 489 979 531 951 q 418 1002 455 1002 q 276 918 343 1002 q 178 725 220 840 q 175 709 178 720 q 149 404 149 557 q 172 124 149 257 q 238 -118 195 -17 q 314 -237 271 -195 q 326 -264 326 -249 q 315 -291 326 -279 q 288 -304 304 -303 z "}}}
